<?xml version="1.0" encoding="UTF-8"?>
<svg width="80px" height="80px" viewBox="0 0 80 80" version="1.1" xmlns="http://www.w3.org/2000/svg" xmlns:xlink="http://www.w3.org/1999/xlink">
    <!-- Generator: Sketch 54.1 (76490) - https://sketchapp.com -->
    <title>datasheet</title>
    <desc>Created with Sketch.</desc>
    <g id="Symbols" stroke="none" stroke-width="1" fill="none" fill-rule="evenodd">
        <g id="resource/nor" transform="translate(-20.000000, -33.000000)">
            <g id="resource">
                <g id="datasheet" transform="translate(20.000000, 33.000000)">
                    <circle id="Oval" stroke="#D83751" stroke-width="3" fill="#FFFFFF" cx="40" cy="40" r="38.5"></circle>
                    <g transform="translate(17.000000, 17.000000)" fill="#D83751">
                        <g id="Flash" stroke-width="1" transform="translate(3.234375, 0.000000)">
                            <path d="M29.8266841,1.43889584 L2.15625,1.43889584 C1.75929534,1.43889584 1.4375,1.7606811 1.4375,2.15762333 L1.4375,43.8438175 C1.4375,44.2407598 1.75929534,44.562545 2.15625,44.562545 L37.375,44.562545 C37.7719547,44.562545 38.09375,44.2407598 38.09375,43.8438175 L38.09375,9.3448982 L31.9829341,9.3448982 C30.7920701,9.3448982 29.8266841,8.37954243 29.8266841,7.18871574 L29.8266841,1.43889584 Z M30.5052165,0.0014408722 C30.5353048,-0.000467430936 30.5655873,-0.000493107635 30.5958779,0.0014408722 L30.90625,0.0014408722 L39.53125,8.62617071 L39.53125,43.8438175 C39.53125,45.0346442 38.565864,46 37.375,46 L2.15625,46 C0.965386008,46 0,45.0346442 0,43.8438175 L0,2.15762333 C0,0.966796641 0.965386008,0.0014408722 2.15625,0.0014408722 L30.5052165,0.0014408722 Z M36.7164681,7.90744322 L31.2641841,2.45533 L31.2641841,7.18871574 C31.2641841,7.58565797 31.5859794,7.90744322 31.9829341,7.90744322 L36.7164681,7.90744322 Z" id="Shape" fill-rule="nonzero" transform="translate(19.765625, 23.000000) scale(1, -1) translate(-19.765625, -23.000000) "></path>
                        </g>
                        <rect id="Rectangle" x="8.984375" y="15.453125" width="3.234375" height="8.625"></rect>
                        <rect id="Rectangle-Copy" x="14.015625" y="13.296875" width="3.234375" height="10.78125"></rect>
                        <rect id="Rectangle-Copy-2" x="19.046875" y="19.765625" width="3.234375" height="4.3125"></rect>
                        <rect id="Rectangle-Copy-3" x="24.078125" y="16.890625" width="3.234375" height="7.1875"></rect>
                        <rect id="Rectangle-Copy-9" x="29.109375" y="16.890625" width="3.234375" height="7.1875"></rect>
                        <rect id="Rectangle-Copy-10" x="34.140625" y="16.890625" width="3.234375" height="7.1875"></rect>
                        <rect id="Rectangle-Copy-4" x="8.984375" y="38.453125" width="19.046875" height="1.4375" rx="0.71875"></rect>
                        <rect id="Rectangle-Copy-5" x="8.984375" y="27.671875" width="28.390625" height="1.4375" rx="0.71875"></rect>
                        <rect id="Rectangle-Copy-6" x="8.984375" y="31.265625" width="28.390625" height="1.4375" rx="0.71875"></rect>
                        <rect id="Rectangle-Copy-7" x="8.984375" y="34.859375" width="21.203125" height="1.4375" rx="0.71875"></rect>
                        <rect id="Rectangle" x="8.984375" y="3.59375" width="28.390625" height="5.390625"></rect>
                    </g>
                </g>
            </g>
        </g>
    </g>
</svg>