<?xml version="1.0" encoding="UTF-8"?>
<svg width="81px" height="80px" viewBox="0 0 81 80" version="1.1" xmlns="http://www.w3.org/2000/svg" xmlns:xlink="http://www.w3.org/1999/xlink">
    <!-- Generator: Sketch 54.1 (76490) - https://sketchapp.com -->
    <title>icon/automate</title>
    <desc>Created with Sketch.</desc>
    <defs>
        <polygon id="path-1" points="0 0.119375 79.8803914 0.119375 79.8803914 79.84375 0 79.84375"></polygon>
        <path d="M16.6598826,0.04859375 C16.3829354,0.04859375 16.1413699,0.23671875 16.0742074,0.505 L16.0742074,0.505 L14.8494716,5.3940625 C14.4087671,5.55171875 13.9769863,5.72796875 13.5553816,5.92234375 L13.5553816,5.92234375 L9.23209393,3.33359375 C8.99428571,3.19125 8.6902544,3.22875 8.49424658,3.424375 L8.49424658,3.424375 L3.46786693,8.4409375 C3.27201566,8.63640625 3.23444227,8.93984375 3.37706458,9.1771875 L3.37706458,9.1771875 L5.91201566,13.3935937 C5.68594912,13.8565625 5.48164384,14.3320312 5.30082192,14.8185937 L5.30082192,14.8185937 L0.543091977,16.0057813 C0.274129159,16.0728125 0.0854794521,16.3140625 0.0854794521,16.5904687 L0.0854794521,16.5904687 L0.0854794521,23.685 C0.0854794521,23.9617187 0.274129159,24.2028125 0.543091977,24.2696875 L0.543091977,24.2696875 L5.1444227,25.4178125 C5.33463796,25.98 5.5553816,26.5279687 5.80493151,27.06 L5.80493151,27.06 L3.37706458,31.0984375 C3.23444227,31.3357813 3.27201566,31.6392187 3.46786693,31.8348437 L3.46786693,31.8348437 L8.49424658,36.8514062 C8.6902544,37.046875 8.99428571,37.084375 9.23209393,36.9420312 L9.23209393,36.9420312 L13.1818395,34.576875 C13.755773,34.8598437 14.3494325,35.1090625 14.96,35.3223437 L14.96,35.3223437 L16.0742074,39.7704687 C16.1413699,40.0389062 16.3829354,40.2271875 16.6598826,40.2271875 L16.6598826,40.2271875 L23.768454,40.2271875 C24.0454012,40.2271875 24.2871233,40.0389062 24.3542857,39.7704687 L24.3542857,39.7704687 L25.4684932,35.3223437 C26.0790607,35.1090625 26.6727202,34.8598437 27.2466536,34.576875 L27.2466536,34.576875 L31.1963992,36.9420312 C31.4340509,37.084375 31.7382387,37.046875 31.93409,36.8514062 L31.93409,36.8514062 L36.9604697,31.8348437 C37.1563209,31.6392187 37.1938943,31.3357813 37.051272,31.0984375 L37.051272,31.0984375 L34.6235616,27.06 C34.872955,26.5279687 35.0938552,25.98 35.2839139,25.4178125 L35.2839139,25.4178125 L39.8852446,24.2696875 C40.1542074,24.2028125 40.3428571,23.9617187 40.3428571,23.685 L40.3428571,23.685 L40.3428571,16.5904687 C40.3428571,16.3140625 40.1542074,16.0728125 39.8852446,16.0057813 L39.8852446,16.0057813 L35.1275147,14.8185937 C34.9466928,14.3320312 34.7423875,13.8565625 34.5163209,13.3935937 L34.5163209,13.3935937 L37.051272,9.1771875 C37.1938943,8.93984375 37.1563209,8.63640625 36.9604697,8.4409375 L36.9604697,8.4409375 L31.93409,3.424375 C31.7382387,3.22875 31.4340509,3.19125 31.1963992,3.33359375 L31.1963992,3.33359375 L26.8731115,5.92234375 C26.4513503,5.72796875 26.0195695,5.55171875 25.578865,5.3940625 L25.578865,5.3940625 L24.3542857,0.505 C24.2871233,0.23671875 24.0454012,0.04859375 23.768454,0.04859375 L23.768454,0.04859375 L16.6598826,0.04859375 Z M13.8929159,6.651875 C14.2943249,6.466875 14.7040313,6.2996875 15.1209393,6.150625 L15.1209393,6.150625 C15.3742466,6.05984375 15.5654012,5.84921875 15.6306849,5.58890625 L15.6306849,5.58890625 L16.8170646,0.8521875 L23.6114286,0.8521875 L24.7976517,5.58890625 C24.8629354,5.84921875 25.05409,6.05984375 25.3073973,6.150625 L25.3073973,6.150625 C25.7241487,6.2996875 26.1340117,6.466875 26.5355773,6.651875 L26.5355773,6.651875 C26.7772994,6.7634375 27.0589432,6.74828125 27.2873581,6.6115625 L27.2873581,6.6115625 L31.4758513,4.10328125 L36.2799217,8.89828125 L33.8260665,12.9801562 C33.6857926,13.2134375 33.6732681,13.5014063 33.7927202,13.7457813 L33.7927202,13.7457813 C34.0079843,14.1865625 34.2014873,14.6378125 34.3726027,15.098125 L34.3726027,15.098125 C34.4649706,15.346875 34.6744423,15.5339062 34.9322896,15.5982813 L34.9322896,15.5982813 L39.5376908,16.7471875 L39.5376908,23.5282813 L35.0886888,24.6382813 C34.8227006,24.7046875 34.6086888,24.9017188 34.5211742,25.1607813 L34.5211742,25.1607813 C34.3414481,25.6921875 34.1321331,26.2123438 33.8941683,26.7192188 L33.8941683,26.7192188 C33.7806654,26.9614063 33.795225,27.2442188 33.9329941,27.4734375 L33.9329941,27.4734375 L36.2799217,31.3775 L31.4758513,36.1721875 L27.6609002,33.8876562 C27.4260665,33.7471875 27.1356556,33.7351563 26.8900196,33.85625 L26.8900196,33.85625 C26.3430137,34.1259375 25.7795695,34.3623437 25.2025049,34.5639063 L25.2025049,34.5639063 C24.9468493,34.653125 24.7530333,34.865 24.6874364,35.1275 L24.6874364,35.1275 L23.6114286,39.4235938 L16.8170646,39.4235938 L15.7409002,35.1275 C15.6753033,34.865 15.4816438,34.653125 15.2258317,34.5639063 L15.2258317,34.5639063 C14.6489237,34.3623437 14.0854795,34.1259375 13.538317,33.85625 L13.538317,33.85625 C13.2928376,33.7351563 13.0024266,33.7471875 12.767593,33.8876562 L12.767593,33.8876562 L8.95248532,36.1721875 L4.14825832,31.3775 L6.49534247,27.4734375 C6.63311155,27.2442188 6.64767123,26.9614063 6.5341683,26.7192188 L6.5341683,26.7192188 C6.29620352,26.2123438 6.08688845,25.6921875 5.90716243,25.1607813 L5.90716243,25.1607813 C5.81949119,24.9017188 5.60579256,24.7046875 5.33964775,24.6382813 L5.33964775,24.6382813 L0.890802348,23.5282813 L0.890802348,16.7471875 L5.49604697,15.5982813 C5.75389432,15.5339062 5.96336595,15.346875 6.05573386,15.098125 L6.05573386,15.098125 C6.22684932,14.6378125 6.42035225,14.1865625 6.63561644,13.7457813 L6.63561644,13.7457813 C6.75506849,13.5014063 6.74254403,13.2134375 6.60227006,12.9801562 L6.60227006,12.9801562 L4.14825832,8.89828125 L8.95248532,4.10328125 L13.1409785,6.6115625 C13.2681018,6.6875 13.4113503,6.7259375 13.555225,6.7259375 L13.555225,6.7259375 C13.670137,6.7259375 13.7855186,6.70140625 13.8929159,6.651875 L13.8929159,6.651875 Z M10.3511546,20.33875 C10.3511546,25.7753125 14.7669667,30.1825 20.2141683,30.1825 L20.2141683,30.1825 C25.6615264,30.1825 30.077182,25.7753125 30.077182,20.33875 L30.077182,20.33875 C30.077182,14.9021875 25.6615264,10.495 20.2141683,10.495 L20.2141683,10.495 C14.7669667,10.495 10.3511546,14.9021875 10.3511546,20.33875 L10.3511546,20.33875 Z M11.1563209,20.33875 C11.1563209,15.3459375 15.2115851,11.2985937 20.2141683,11.2985937 L20.2141683,11.2985937 C25.2165949,11.2985937 29.2720157,15.3459375 29.2720157,20.33875 L29.2720157,20.33875 C29.2720157,25.3314063 25.2165949,29.3789063 20.2141683,29.3789063 L20.2141683,29.3789063 C15.2115851,29.3789063 11.1563209,25.3314063 11.1563209,20.33875 L11.1563209,20.33875 Z M16.1884932,14.5889062 L16.1884932,25.6865625 C16.1884932,25.7696875 16.2097847,25.8514063 16.2503327,25.9235938 L16.2503327,25.9235938 C16.378865,26.1528125 16.6652055,26.2325 16.8901761,26.1017187 L16.8901761,26.1017187 L26.4189432,20.5526563 C26.4915851,20.5103125 26.5518591,20.4489063 26.5935029,20.3748438 L26.5935029,20.3748438 C26.7220352,20.1457813 26.6439139,19.85375 26.4189432,19.7228125 L26.4189432,19.7228125 L16.8901761,14.1739063 C16.8192564,14.1328125 16.7390998,14.1110937 16.6575342,14.1110937 L16.6575342,14.1110937 C16.3984344,14.1110937 16.1884932,14.325 16.1884932,14.5889062 L16.1884932,14.5889062 Z" id="path-3"></path>
        <path d="M16.6598826,0.04859375 C16.3829354,0.04859375 16.1413699,0.23671875 16.0742074,0.505 L16.0742074,0.505 L14.8494716,5.3940625 C14.4087671,5.55171875 13.9769863,5.72796875 13.5553816,5.92234375 L13.5553816,5.92234375 L9.23209393,3.33359375 C8.99428571,3.19125 8.6902544,3.22875 8.49424658,3.424375 L8.49424658,3.424375 L3.46786693,8.4409375 C3.27201566,8.63640625 3.23444227,8.93984375 3.37706458,9.1771875 L3.37706458,9.1771875 L5.91201566,13.3935937 C5.68594912,13.8565625 5.48164384,14.3320312 5.30082192,14.8185937 L5.30082192,14.8185937 L0.543091977,16.0057813 C0.274129159,16.0728125 0.0854794521,16.3140625 0.0854794521,16.5904687 L0.0854794521,16.5904687 L0.0854794521,23.685 C0.0854794521,23.9617187 0.274129159,24.2028125 0.543091977,24.2696875 L0.543091977,24.2696875 L5.1444227,25.4178125 C5.33463796,25.98 5.5553816,26.5279687 5.80493151,27.06 L5.80493151,27.06 L3.37706458,31.0984375 C3.23444227,31.3357813 3.27201566,31.6392187 3.46786693,31.8348437 L3.46786693,31.8348437 L8.49424658,36.8514062 C8.6902544,37.046875 8.99428571,37.084375 9.23209393,36.9420312 L9.23209393,36.9420312 L13.1818395,34.576875 C13.755773,34.8598437 14.3494325,35.1090625 14.96,35.3223437 L14.96,35.3223437 L16.0742074,39.7704687 C16.1413699,40.0389062 16.3829354,40.2271875 16.6598826,40.2271875 L16.6598826,40.2271875 L23.768454,40.2271875 C24.0454012,40.2271875 24.2871233,40.0389062 24.3542857,39.7704687 L24.3542857,39.7704687 L25.4684932,35.3223437 C26.0790607,35.1090625 26.6727202,34.8598437 27.2466536,34.576875 L27.2466536,34.576875 L31.1963992,36.9420312 C31.4340509,37.084375 31.7382387,37.046875 31.93409,36.8514062 L31.93409,36.8514062 L36.9604697,31.8348437 C37.1563209,31.6392187 37.1938943,31.3357813 37.051272,31.0984375 L37.051272,31.0984375 L34.6235616,27.06 C34.872955,26.5279687 35.0938552,25.98 35.2839139,25.4178125 L35.2839139,25.4178125 L39.8852446,24.2696875 C40.1542074,24.2028125 40.3428571,23.9617187 40.3428571,23.685 L40.3428571,23.685 L40.3428571,16.5904687 C40.3428571,16.3140625 40.1542074,16.0728125 39.8852446,16.0057813 L39.8852446,16.0057813 L35.1275147,14.8185937 C34.9466928,14.3320312 34.7423875,13.8565625 34.5163209,13.3935937 L34.5163209,13.3935937 L37.051272,9.1771875 C37.1938943,8.93984375 37.1563209,8.63640625 36.9604697,8.4409375 L36.9604697,8.4409375 L31.93409,3.424375 C31.7382387,3.22875 31.4340509,3.19125 31.1963992,3.33359375 L31.1963992,3.33359375 L26.8731115,5.92234375 C26.4513503,5.72796875 26.0195695,5.55171875 25.578865,5.3940625 L25.578865,5.3940625 L24.3542857,0.505 C24.2871233,0.23671875 24.0454012,0.04859375 23.768454,0.04859375 L23.768454,0.04859375 L16.6598826,0.04859375 Z M13.8929159,6.651875 C14.2943249,6.466875 14.7040313,6.2996875 15.1209393,6.150625 L15.1209393,6.150625 C15.3742466,6.05984375 15.5654012,5.84921875 15.6306849,5.58890625 L15.6306849,5.58890625 L16.8170646,0.8521875 L23.6114286,0.8521875 L24.7976517,5.58890625 C24.8629354,5.84921875 25.05409,6.05984375 25.3073973,6.150625 L25.3073973,6.150625 C25.7241487,6.2996875 26.1340117,6.466875 26.5355773,6.651875 L26.5355773,6.651875 C26.7772994,6.7634375 27.0589432,6.74828125 27.2873581,6.6115625 L27.2873581,6.6115625 L31.4758513,4.10328125 L36.2799217,8.89828125 L33.8260665,12.9801562 C33.6857926,13.2134375 33.6732681,13.5014063 33.7927202,13.7457813 L33.7927202,13.7457813 C34.0079843,14.1865625 34.2014873,14.6378125 34.3726027,15.098125 L34.3726027,15.098125 C34.4649706,15.346875 34.6744423,15.5339062 34.9322896,15.5982813 L34.9322896,15.5982813 L39.5376908,16.7471875 L39.5376908,23.5282813 L35.0886888,24.6382813 C34.8227006,24.7046875 34.6086888,24.9017188 34.5211742,25.1607813 L34.5211742,25.1607813 C34.3414481,25.6921875 34.1321331,26.2123438 33.8941683,26.7192188 L33.8941683,26.7192188 C33.7806654,26.9614063 33.795225,27.2442188 33.9329941,27.4734375 L33.9329941,27.4734375 L36.2799217,31.3775 L31.4758513,36.1721875 L27.6609002,33.8876562 C27.4260665,33.7471875 27.1356556,33.7351563 26.8900196,33.85625 L26.8900196,33.85625 C26.3430137,34.1259375 25.7795695,34.3623437 25.2025049,34.5639063 L25.2025049,34.5639063 C24.9468493,34.653125 24.7530333,34.865 24.6874364,35.1275 L24.6874364,35.1275 L23.6114286,39.4235938 L16.8170646,39.4235938 L15.7409002,35.1275 C15.6753033,34.865 15.4816438,34.653125 15.2258317,34.5639063 L15.2258317,34.5639063 C14.6489237,34.3623437 14.0854795,34.1259375 13.538317,33.85625 L13.538317,33.85625 C13.2928376,33.7351563 13.0024266,33.7471875 12.767593,33.8876562 L12.767593,33.8876562 L8.95248532,36.1721875 L4.14825832,31.3775 L6.49534247,27.4734375 C6.63311155,27.2442188 6.64767123,26.9614063 6.5341683,26.7192188 L6.5341683,26.7192188 C6.29620352,26.2123438 6.08688845,25.6921875 5.90716243,25.1607813 L5.90716243,25.1607813 C5.81949119,24.9017188 5.60579256,24.7046875 5.33964775,24.6382813 L5.33964775,24.6382813 L0.890802348,23.5282813 L0.890802348,16.7471875 L5.49604697,15.5982813 C5.75389432,15.5339062 5.96336595,15.346875 6.05573386,15.098125 L6.05573386,15.098125 C6.22684932,14.6378125 6.42035225,14.1865625 6.63561644,13.7457813 L6.63561644,13.7457813 C6.75506849,13.5014063 6.74254403,13.2134375 6.60227006,12.9801562 L6.60227006,12.9801562 L4.14825832,8.89828125 L8.95248532,4.10328125 L13.1409785,6.6115625 C13.2679452,6.6875 13.4115068,6.72609375 13.5553816,6.72609375 L13.5553816,6.72609375 C13.670137,6.72609375 13.785362,6.70140625 13.8929159,6.651875 L13.8929159,6.651875 Z M10.3511546,20.33875 C10.3511546,25.7753125 14.7669667,30.1825 20.2141683,30.1825 L20.2141683,30.1825 C25.6615264,30.1825 30.077182,25.7753125 30.077182,20.33875 L30.077182,20.33875 C30.077182,14.9021875 25.6615264,10.495 20.2141683,10.495 L20.2141683,10.495 C14.7669667,10.495 10.3511546,14.9021875 10.3511546,20.33875 L10.3511546,20.33875 Z M11.1563209,20.33875 C11.1563209,15.3459375 15.2115851,11.2985937 20.2141683,11.2985937 L20.2141683,11.2985937 C25.2165949,11.2985937 29.2720157,15.3459375 29.2720157,20.33875 L29.2720157,20.33875 C29.2720157,25.3314063 25.2165949,29.3789063 20.2141683,29.3789063 L20.2141683,29.3789063 C15.2115851,29.3789063 11.1563209,25.3314063 11.1563209,20.33875 L11.1563209,20.33875 Z M16.1884932,14.5889062 L16.1884932,25.6865625 C16.1884932,25.7696875 16.2097847,25.8514063 16.2503327,25.9235938 L16.2503327,25.9235938 C16.378865,26.1528125 16.6652055,26.2325 16.8901761,26.1017187 L16.8901761,26.1017187 L26.4189432,20.5526563 C26.4915851,20.5103125 26.5518591,20.4489063 26.5935029,20.3748438 L26.5935029,20.3748438 C26.7220352,20.1457813 26.6439139,19.85375 26.4189432,19.7228125 L26.4189432,19.7228125 L16.8901761,14.1739063 C16.8192564,14.1328125 16.7390998,14.1110937 16.6575342,14.1110937 L16.6575342,14.1110937 C16.3984344,14.1110937 16.1884932,14.325 16.1884932,14.5889062 L16.1884932,14.5889062 Z" id="path-5"></path>
    </defs>
    <g id="mockup" stroke="none" stroke-width="1" fill="none" fill-rule="evenodd">
        <g id="sonar-1440" transform="translate(-952.000000, -674.000000)">
            <g id="自動" transform="translate(952.207909, 674.000000)">
                <g id="icon/automate">
                    <g>
                        <g id="Group-8" transform="translate(0.000000, 0.036875)">
                            <path d="M39.9401957,77.6804063 C29.8508023,77.6804063 20.3654012,73.759 13.2311546,66.6386875 C6.09675147,59.5182188 2.16782779,50.0513438 2.16782779,39.9816563 C2.16782779,29.9118125 6.09675147,20.4447813 13.2311546,13.3244688 C20.3652446,6.20415625 29.8508023,2.28275 39.9401957,2.28275 C50.029589,2.28275 59.5151468,6.20415625 66.6493933,13.3244688 C73.7837965,20.4447813 77.7128767,29.9118125 77.7128767,39.9816563 C77.7128767,50.0513438 73.7837965,59.5182188 66.6493933,66.6385313 C59.5151468,73.759 50.029589,77.6804063 39.9401957,77.6804063" id="Fill-1" fill="#FEFEFE"></path>
                            <g id="Group-5">
                                <mask id="mask-2" fill="white">
                                    <use xlink:href="#path-1"></use>
                                </mask>
                                <g id="Clip-4"></g>
                                <path d="M39.9401957,0.119375 C17.8819569,0.119375 0,17.96625 0,39.9815625 C0,61.996875 17.8819569,79.84375 39.9401957,79.84375 C61.998591,79.84375 79.8805479,61.996875 79.8805479,39.9815625 C79.8805479,17.96625 61.998591,0.119375 39.9401957,0.119375 M39.9401957,4.44625 C44.7488063,4.44625 49.4111937,5.38515625 53.7978865,7.23703125 C58.0371037,9.0265625 61.8453229,11.589375 65.1167123,14.854375 C68.3877886,18.1192188 70.955773,21.9198438 72.7488063,26.1510938 C74.6043053,30.5290625 75.5450489,35.1823438 75.5450489,39.9815625 C75.5450489,44.780625 74.6043053,49.4339063 72.7488063,53.8121875 C70.955773,58.043125 68.3877886,61.8439063 65.1167123,65.1089063 C61.8453229,68.3735938 58.0371037,70.9364063 53.7978865,72.7260938 C49.4111937,74.5778125 44.7488063,75.516875 39.9401957,75.516875 C35.1317417,75.516875 30.4691977,74.5778125 26.0825049,72.7260938 C21.8432877,70.9364063 18.0350685,68.3735938 14.7638356,65.1089063 C11.4926027,61.8439063 8.92477495,58.043125 7.13158513,53.8121875 C5.27608611,49.4339063 4.33534247,44.780625 4.33534247,39.9815625 C4.33534247,35.1823438 5.27608611,30.5290625 7.13158513,26.1510938 C8.92477495,21.9198438 11.4926027,18.1192188 14.7638356,14.854375 C18.0350685,11.589375 21.8432877,9.0265625 26.0825049,7.23703125 C30.4691977,5.38515625 35.1317417,4.44625 39.9401957,4.44625" id="Fill-3" fill="#C71532" mask="url(#mask-2)"></path>
                            </g>
                            <path d="M46.1450176,40.3964687 L36.6162505,45.945375 C36.3912798,46.0763125 36.1047828,45.996625 35.9762505,45.7674062 C35.9358591,45.6952187 35.9145675,45.6135 35.9145675,45.5302188 L35.9145675,34.4327188 C35.9145675,34.1688125 36.1245088,33.95475 36.3834521,33.95475 C36.4650176,33.95475 36.5453307,33.9764688 36.6162505,34.0177188 L46.1450176,39.5664687 C46.3699883,39.6974063 46.4481096,39.9895937 46.3195773,40.2185 C46.2779335,40.2927188 46.2176595,40.354125 46.1450176,40.3964687 L46.1450176,40.3964687 Z M56.0059961,51.2211562 L53.6590685,47.31725 C53.5212994,47.087875 53.5067397,46.8052187 53.6203992,46.5630313 C53.8582074,46.0561563 54.0675225,45.536 54.247092,45.0045937 C54.3349198,44.745375 54.548775,44.5483438 54.8147632,44.4819375 L59.2637652,43.3719375 L59.2637652,36.5911562 L54.6582074,35.4419375 C54.4005166,35.3777187 54.1912016,35.1906875 54.0986771,34.9419375 C53.9275616,34.481625 53.7340587,34.030375 53.5187945,33.5895937 C53.3993425,33.3450625 53.4118669,33.0570938 53.5521409,32.8239688 L56.0059961,28.7419375 L51.2019256,23.9470938 L47.0134325,26.4552188 C46.7848611,26.5919375 46.5035303,26.60725 46.2616517,26.4956875 C45.8600861,26.3106875 45.4502231,26.1433438 45.0333151,25.9942813 C44.7801644,25.9036563 44.5890098,25.692875 44.5238826,25.4325625 L43.3373464,20.6958438 L36.5431389,20.6958438 L35.3566027,25.4325625 C35.291319,25.692875 35.1003209,25.9036563 34.8470137,25.9942813 C34.4301057,26.1433438 34.0203992,26.3106875 33.6188337,26.4956875 C33.376955,26.60725 33.0954677,26.5919375 32.8670528,26.4552188 L28.6785597,23.9470938 L23.8743327,28.7419375 L26.3283444,32.8239688 C26.4686184,33.0570938 26.4811429,33.3450625 26.3616908,33.5895937 C26.1464266,34.030375 25.9527671,34.481625 25.7818082,34.9419375 C25.6892838,35.1906875 25.4799687,35.3777187 25.2221213,35.4419375 L20.6167202,36.5911562 L20.6167202,43.3719375 L25.0657221,44.4819375 C25.3317104,44.5483438 25.5455656,44.745375 25.6332368,45.0045937 C25.8129628,45.536 26.0222779,46.0561563 26.2600861,46.5630313 C26.3737456,46.8052187 26.3591859,47.087875 26.2214168,47.31725 L23.8743327,51.2211562 L28.6785597,56.016 L32.4935108,53.7314687 C32.7283444,53.5908438 33.0187554,53.5789688 33.2643914,53.7000625 C33.8115538,53.96975 34.374998,54.2061562 34.9519061,54.4077188 C35.2077182,54.4969375 35.4013777,54.7088125 35.4669746,54.9711563 L36.5431389,59.26725 L43.3373464,59.26725 L44.4133542,54.9711563 C44.4791076,54.7088125 44.6727671,54.4969375 44.9285793,54.4077188 C45.5054873,54.2061562 46.0689315,53.96975 46.6160939,53.7000625 C46.8617299,53.5789688 47.1521409,53.5908438 47.3869746,53.7314687 L51.2019256,56.016 L56.0059961,51.2211562 Z M45.1945675,55.166 L44.0803601,59.6142812 C44.0130411,59.8825625 43.7714755,60.0708437 43.4945284,60.0708437 L36.3859569,60.0708437 C36.1088532,60.0708437 35.8674442,59.8825625 35.8001252,59.6142812 L34.6859178,55.166 C34.0753503,54.952875 33.4818474,54.7035 32.9077573,54.4205312 L28.9580117,56.7858437 C28.7205166,56.9280313 28.4163288,56.8906875 28.2203209,56.6952187 L23.1939413,51.6785 C22.9979335,51.482875 22.9605166,51.1794375 23.1031389,50.94225 L25.5310059,46.9036562 C25.281456,46.3717812 25.0605558,45.8236562 24.8703405,45.261625 L20.2690098,44.1135 C20.0002035,44.0464688 19.8115538,43.805375 19.8115538,43.5288125 L19.8115538,36.4342812 C19.8115538,36.1577188 20.0002035,35.916625 20.2690098,35.8494375 L25.0268963,34.6624063 C25.2078748,34.1756875 25.4118669,33.700375 25.63809,33.2374063 L23.1031389,29.0208437 C22.9605166,28.7836563 22.9979335,28.4800625 23.1939413,28.2845937 L28.2203209,23.2680313 C28.4163288,23.0724063 28.7205166,23.0350625 28.9580117,23.1774063 L33.2812994,25.7661563 C33.7030607,25.5717813 34.1348415,25.395375 34.575546,25.2377188 L35.8001252,20.3486563 C35.8674442,20.0805313 36.1088532,19.89225 36.3859569,19.89225 L43.4945284,19.89225 C43.7714755,19.89225 44.0130411,20.0805313 44.0803601,20.3486563 L45.3049393,25.2377188 C45.7456438,25.395375 46.1774247,25.5717813 46.5991859,25.7661563 L50.9224736,23.1774063 C51.1599687,23.0350625 51.4641566,23.0724063 51.6601644,23.2680313 L56.686544,28.2845937 C56.8823953,28.4800625 56.9198121,28.7836563 56.7773464,29.0208437 L54.2423953,33.2374063 C54.4684618,33.700375 54.6726106,34.1756875 54.853589,34.6624063 L59.6114755,35.8494375 C59.8801252,35.916625 60.068775,36.1577188 60.068775,36.4342812 L60.068775,43.5288125 C60.068775,43.805375 59.8801252,44.0464688 59.6114755,44.1135 L55.0099883,45.261625 C54.8199295,45.8236562 54.5990294,46.3717812 54.3494795,46.9036562 L56.7773464,50.94225 C56.9198121,51.1794375 56.8823953,51.482875 56.686544,51.6785 L51.6601644,56.6952187 C51.4641566,56.8906875 51.1599687,56.9280313 50.9224736,56.7858437 L46.972728,54.4205312 C46.398638,54.7035 45.805135,54.952875 45.1945675,55.166 L45.1945675,55.166 Z M39.9402427,49.2225625 C44.9426693,49.2225625 48.99809,45.1752188 48.99809,40.1824062 C48.99809,35.18975 44.9426693,31.14225 39.9402427,31.14225 C34.9376595,31.14225 30.8823953,35.18975 30.8823953,40.1824062 C30.8823953,45.1752188 34.9376595,49.2225625 39.9402427,49.2225625 L39.9402427,49.2225625 Z M39.9402427,50.0261562 C34.4930411,50.0261562 30.077229,45.6189688 30.077229,40.1824062 C30.077229,34.7458438 34.4930411,30.3386563 39.9402427,30.3386563 C45.3874442,30.3386563 49.8032564,34.7458438 49.8032564,40.1824062 C49.8032564,45.6189688 45.3874442,50.0261562 39.9402427,50.0261562 L39.9402427,50.0261562 Z" id="Fill-6" fill="#C71532"></path>
                        </g>
                        <g id="Group-11" transform="translate(19.726027, 19.880625)">
                            <mask id="mask-4" fill="white">
                                <use xlink:href="#path-3"></use>
                            </mask>
                            <g id="Clip-10"></g>
                            <polygon id="Fill-9" fill="#C71532" mask="url(#mask-4)" points="0.0856360078 40.2270312 40.3428571 40.2270312 40.3428571 0.0484375 0.0856360078 0.0484375"></polygon>
                        </g>
                        <g id="Group-14" transform="translate(19.726027, 19.880625)">
                            <mask id="mask-6" fill="white">
                                <use xlink:href="#path-5"></use>
                            </mask>
                            <g id="Clip-13"></g>
                            <polygon id="Fill-12" fill="#C71532" mask="url(#mask-6)" points="-0.920861057 41.2315625 41.3491977 41.2315625 41.3491977 -0.9559375 -0.920861057 -0.9559375"></polygon>
                        </g>
                    </g>
                </g>
            </g>
        </g>
    </g>
</svg>