<?xml version="1.0" encoding="UTF-8"?>
<svg width="120px" height="120px" viewBox="0 0 120 120" version="1.1" xmlns="http://www.w3.org/2000/svg" xmlns:xlink="http://www.w3.org/1999/xlink">
    <!-- Generator: Sketch 54.1 (76490) - https://sketchapp.com -->
    <title>icon/auto_investigation</title>
    <desc>Created with Sketch.</desc>
    <defs>
        <polygon id="path-1" points="0 0.0452261307 119.95466 0.0452261307 119.95466 119.698372 0 119.698372"></polygon>
        <path d="M23.6245844,0.173065327 C23.5260453,0.324120603 23.4507809,0.493266332 23.4051385,0.675678392 L23.4051385,0.675678392 L21.6628715,7.62633166 C21.2387909,7.78582915 20.8195466,7.95708543 20.4051385,8.13979899 L20.4051385,8.13979899 L14.2521914,4.45748744 C13.5983879,4.06582915 12.760806,4.16864322 12.2215617,4.70683417 L12.2215617,4.70683417 L4.67335013,12.2357789 C4.13380353,12.7739698 4.03073048,13.6091457 4.42337531,14.261608 L4.42337531,14.261608 L8.02125945,20.2429146 C7.7963728,20.7232161 7.58720403,21.2110553 7.39405542,21.7049246 L7.39405542,21.7049246 L0.632040302,23.3912563 C0.449168766,23.4367839 0.279899244,23.5118593 0.128463476,23.6101508 L0.128463476,23.6101508 L0.128463476,37.0380905 C0.279899244,37.1363819 0.449168766,37.2111558 0.632040302,37.2566834 L0.632040302,37.2566834 L7.14528967,38.881206 C7.36171285,39.4854271 7.60141058,40.081206 7.86438287,40.6658291 L7.86438287,40.6658291 L4.42337531,46.3866332 C4.03073048,47.038794 4.13380353,47.8742714 4.67335013,48.4121608 L4.67335013,48.4121608 L12.2215617,55.941407 C12.760806,56.479598 13.5983879,56.5824121 14.2521914,56.1907538 L14.2521914,56.1907538 L19.8332494,52.8506533 C20.4858438,53.158191 21.151738,53.4373869 21.8297229,53.6870352 L21.8297229,53.6870352 L23.4051385,59.9722613 C23.4507809,60.1546734 23.5257431,60.3235176 23.6242821,60.4745729 L23.6242821,60.4745729 L37.0863476,60.4745729 C37.1848866,60.3235176 37.2598489,60.1546734 37.3054912,59.9722613 L37.3054912,59.9722613 L38.8806045,53.6870352 C39.5588917,53.4373869 40.2244836,53.158191 40.8770781,52.8506533 L40.8770781,52.8506533 L46.458136,56.1907538 C47.1125441,56.5824121 47.9495214,56.479598 48.489068,55.941407 L48.489068,55.941407 L56.0372796,48.4121608 C56.5765239,47.8742714 56.679597,47.038794 56.2872544,46.3866332 L56.2872544,46.3866332 L52.8462469,40.6658291 C53.1092191,40.081206 53.3489169,39.4854271 53.5650378,38.881206 L53.5650378,38.881206 L60.0782872,37.2566834 C60.2611587,37.2111558 60.4304282,37.1363819 60.581864,37.0380905 L60.581864,37.0380905 L60.581864,23.6101508 C60.4304282,23.5118593 60.2611587,23.4367839 60.0782872,23.3912563 L60.0782872,23.3912563 L53.3159698,21.7049246 C53.1231234,21.2110553 52.9136524,20.7232161 52.6893703,20.2429146 L52.6893703,20.2429146 L56.2872544,14.261608 C56.679597,13.6091457 56.5765239,12.7739698 56.0372796,12.2357789 L56.0372796,12.2357789 L48.489068,4.70683417 C47.9495214,4.16864322 47.1125441,4.06582915 46.458136,4.45748744 L46.458136,4.45748744 L40.3051889,8.13979899 C39.8910831,7.95708543 39.4715365,7.78582915 39.0474559,7.62633166 L39.0474559,7.62633166 L37.3054912,0.675678392 C37.2598489,0.493266332 37.1845844,0.324120603 37.0860453,0.173065327 L37.0860453,0.173065327 L23.6245844,0.173065327 Z M20.3555668,10.9486432 C20.6360705,10.9486432 20.9171788,10.8889447 21.1795466,10.7683417 L21.1795466,10.7683417 C21.7626196,10.4996985 22.3571788,10.2569849 22.9620151,10.0411055 L22.9620151,10.0411055 C23.5795466,9.8201005 24.0459446,9.30663317 24.2052393,8.67165829 L24.2052393,8.67165829 L25.8438287,2.13316583 L34.8664987,2.13316583 L36.5053904,8.67165829 C36.6643829,9.30663317 37.1307809,9.8201005 37.7486146,10.0411055 L37.7486146,10.0411055 C38.3531486,10.2569849 38.9480101,10.4996985 39.5313854,10.7683417 L39.5313854,10.7683417 C40.1214106,11.0403015 40.8081612,11.0032161 41.3652393,10.6694472 L41.3652393,10.6694472 L47.1494207,7.2081407 L53.5293703,13.5720603 L50.1476071,19.1939698 C49.8060453,19.7623116 49.7752141,20.4651256 50.0665995,21.0609045 L50.0665995,21.0609045 C50.3791436,21.7007035 50.6602519,22.3555779 50.9081108,23.0225126 L50.9081108,23.0225126 C51.133602,23.6291457 51.6447355,24.0853266 52.2737531,24.2424121 L52.2737531,24.2424121 L58.6171285,25.8241206 L58.6171285,34.8241206 L52.5086146,36.3476382 C51.8596474,36.5092462 51.3376322,36.9895477 51.1236272,37.621809 L51.1236272,37.621809 C50.863073,38.3915578 50.559597,39.1459296 50.2138035,39.8822111 L50.2138035,39.8822111 C49.9366247,40.4728643 49.9722922,41.1624121 50.3087154,41.721407 L50.3087154,41.721407 L53.5293703,47.0761809 L47.1494207,53.4401005 L41.9265491,50.3143719 C41.3534509,49.9712563 40.644937,49.9423116 40.0458438,50.2374874 L40.0458438,50.2374874 C39.2505793,50.6291457 38.4326448,50.9719598 37.5965743,51.2638191 L37.5965743,51.2638191 C36.9720907,51.481809 36.4996474,51.998593 36.3394458,52.638392 L36.3394458,52.638392 L34.8664987,58.5147739 L25.8438287,58.5147739 L24.3711839,52.638392 C24.2103778,51.998593 23.7379345,51.481809 23.1140554,51.2638191 L23.1140554,51.2638191 C22.2773804,50.9719598 21.4600504,50.6291457 20.6650882,50.2374874 L20.6650882,50.2374874 C20.0656927,49.9423116 19.3571788,49.9712563 18.7837783,50.3143719 L18.7837783,50.3143719 L13.5609068,53.4401005 L7.18095718,47.0761809 L10.4016121,41.721407 C10.7383375,41.1624121 10.7737028,40.4728643 10.4965239,39.8822111 L10.4965239,39.8822111 C10.151335,39.1459296 9.84725441,38.3915578 9.58670025,37.621809 L9.58670025,37.621809 C9.37269521,36.9895477 8.85098237,36.5092462 8.20171285,36.3476382 L8.20171285,36.3476382 L2.09319899,34.8241206 L2.09319899,25.8241206 L8.43657431,24.2424121 C9.06589421,24.0853266 9.57672544,23.6291457 9.80221662,23.0225126 L9.80221662,23.0225126 C10.0506801,22.3555779 10.3308816,21.7007035 10.6440302,21.0609045 L10.6440302,21.0609045 C10.9348111,20.4651256 10.9048866,19.7623116 10.5624181,19.1939698 L10.5624181,19.1939698 L7.18095718,13.5720603 L13.5609068,7.2081407 L19.3447859,10.6694472 C19.6546096,10.8548744 20.003728,10.9486432 20.3540554,10.9486432 L20.3540554,10.9486432 C20.3546599,10.9486432 20.3552645,10.9486432 20.3555668,10.9486432 L20.3555668,10.9486432 Z M14.7884131,30.6253266 C14.7884131,39.201407 21.7580856,46.1532663 30.3551637,46.1532663 L30.3551637,46.1532663 C38.9525441,46.1532663 45.9219144,39.201407 45.9219144,30.6253266 L45.9219144,30.6253266 C45.9219144,22.0498492 38.9525441,15.0976884 30.3551637,15.0976884 L30.3551637,15.0976884 C21.7580856,15.0976884 14.7884131,22.0498492 14.7884131,30.6253266 L14.7884131,30.6253266 Z M17.5088161,30.6253266 C17.5088161,23.5483417 23.2606549,17.8112563 30.3551637,17.8112563 L30.3551637,17.8112563 C37.4502771,17.8112563 43.2015113,23.5483417 43.2015113,30.6253266 L43.2015113,30.6253266 C43.2015113,37.7026131 37.4502771,43.4396985 30.3551637,43.4396985 L30.3551637,43.4396985 C23.2606549,43.4396985 17.5088161,37.7026131 17.5088161,30.6253266 L17.5088161,30.6253266 Z" id="path-3"></path>
        <path d="M0.128463476,14.9469347 C0.128463476,23.1063317 6.75989924,29.7211055 14.9395466,29.7211055 L14.9395466,29.7211055 C23.1197985,29.7211055 29.7506297,23.1063317 29.7506297,14.9469347 L29.7506297,14.9469347 C29.7506297,6.78753769 23.1197985,0.173366834 14.9395466,0.173366834 L14.9395466,0.173366834 C6.75989924,0.173366834 0.128463476,6.78753769 0.128463476,14.9469347 L0.128463476,14.9469347 Z M1.31335013,14.9469347 C1.31335013,7.44060302 7.41400504,1.35527638 14.9395466,1.35527638 L14.9395466,1.35527638 C22.4650882,1.35527638 28.5657431,7.44060302 28.5657431,14.9469347 L28.5657431,14.9469347 C28.5657431,22.4538693 22.4650882,28.5388945 14.9395466,28.5388945 L14.9395466,28.5388945 C7.41400504,28.5388945 1.31335013,22.4538693 1.31335013,14.9469347 L1.31335013,14.9469347 Z M14.3350126,4.39417085 L14.3350126,5.9321608 C9.79586902,6.29969849 6.18619647,9.94703518 5.89088161,14.4949749 L5.89088161,14.4949749 L4.51133501,14.4949749 C4.17763224,14.4949749 3.90680101,14.7648241 3.90680101,15.0979899 L3.90680101,15.0979899 C3.90680101,15.4311558 4.17763224,15.701005 4.51133501,15.701005 L4.51133501,15.701005 L5.89088161,15.701005 C6.18619647,20.2489447 9.79586902,23.8959799 14.3350126,24.2635176 L14.3350126,24.2635176 L14.3350126,25.4996985 C14.3350126,25.8331658 14.6055416,26.1027136 14.9395466,26.1027136 L14.9395466,26.1027136 C15.2732494,26.1027136 15.5440806,25.8331658 15.5440806,25.4996985 L15.5440806,25.4996985 L15.5440806,24.2831156 C20.3250378,24.0518593 24.150529,20.1883417 24.3049874,15.3994975 L24.3049874,15.3994975 L25.6700252,15.3994975 C26.0040302,15.3994975 26.2745592,15.1296482 26.2745592,14.7964824 L26.2745592,14.7964824 C26.2745592,14.4636181 26.0040302,14.1934673 25.6700252,14.1934673 L25.6700252,14.1934673 L24.2656927,14.1934673 C23.8249874,9.68713568 20.1225189,6.13417085 15.5440806,5.91286432 L15.5440806,5.91286432 L15.5440806,4.39417085 C15.5440806,4.06130653 15.2732494,3.79115578 14.9395466,3.79115578 L14.9395466,3.79115578 C14.6055416,3.79115578 14.3350126,4.06130653 14.3350126,4.39417085 L14.3350126,4.39417085 Z M15.5440806,7.42251256 L15.5440806,6.65547739 C19.7120403,6.87467337 23.0817128,10.0971859 23.5184887,14.1934673 L23.5184887,14.1934673 L22.7455919,14.1934673 C22.3145592,10.520804 19.2873552,7.63899497 15.5440806,7.42251256 L15.5440806,7.42251256 Z M14.3350126,6.67658291 L14.3350126,7.44603015 C10.631335,7.80542714 7.69511335,10.779799 7.4061461,14.4949749 L7.4061461,14.4949749 L6.63627204,14.4949749 C6.9288665,10.3567839 10.2069521,7.04050251 14.3350126,6.67658291 L14.3350126,6.67658291 Z M15.5440806,10.7261307 L15.5440806,8.01527638 C18.96,8.22934673 21.7218136,10.8476382 22.1486146,14.1934673 L22.1486146,14.1934673 L19.3224181,14.1934673 C18.9884131,14.1934673 18.7178841,14.4636181 18.7178841,14.7964824 L18.7178841,14.7964824 C18.7178841,15.1296482 18.9884131,15.3994975 19.3224181,15.3994975 L19.3224181,15.3994975 L22.1990932,15.3994975 C22.0473552,19.0287437 19.1625189,21.9536683 15.5440806,22.1807035 L15.5440806,22.1807035 L15.5440806,19.1683417 C15.5440806,18.8351759 15.2732494,18.5653266 14.9395466,18.5653266 L14.9395466,18.5653266 C14.6055416,18.5653266 14.3350126,18.8351759 14.3350126,19.1683417 L14.3350126,19.1683417 L14.3350126,22.1553769 C10.9589924,21.7998995 8.28695214,19.0890452 8.00130982,15.701005 L8.00130982,15.701005 L10.8589421,15.701005 C11.1926448,15.701005 11.4634761,15.4311558 11.4634761,15.0979899 L11.4634761,15.0979899 C11.4634761,14.7648241 11.1926448,14.4949749 10.8589421,14.4949749 L10.8589421,14.4949749 L8.00130982,14.4949749 C8.28695214,11.1069347 10.9589924,8.39577889 14.3350126,8.04030151 L14.3350126,8.04030151 L14.3350126,10.7261307 C14.3350126,11.0592965 14.6055416,11.3291457 14.9395466,11.3291457 L14.9395466,11.3291457 C15.2732494,11.3291457 15.5440806,11.0592965 15.5440806,10.7261307 L15.5440806,10.7261307 Z M15.5440806,22.7731658 C19.4904786,22.5449246 22.6394962,19.3555779 22.7927456,15.3994975 L22.7927456,15.3994975 L23.5614106,15.3994975 C23.4072544,19.778593 19.9145592,23.3104523 15.5440806,23.5405025 L15.5440806,23.5405025 L15.5440806,22.7731658 Z M6.63627204,15.701005 L7.4061461,15.701005 C7.69511335,19.4158794 10.631335,22.3902513 14.3350126,22.7499497 L14.3350126,22.7499497 L14.3350126,23.5190955 C10.2069521,23.1551759 6.9288665,19.8388945 6.63627204,15.701005 L6.63627204,15.701005 Z M12.8236776,15.0979899 C12.8236776,16.3468342 13.8386902,17.358995 15.0906801,17.358995 L15.0906801,17.358995 C16.3429723,17.358995 17.3576826,16.3468342 17.3576826,15.0979899 L17.3576826,15.0979899 C17.3576826,13.8491457 16.3429723,12.8366834 15.0906801,12.8366834 L15.0906801,12.8366834 C13.8386902,12.8366834 12.8236776,13.8491457 12.8236776,15.0979899 L12.8236776,15.0979899 Z" id="path-5"></path>
    </defs>
    <g id="mockup" stroke="none" stroke-width="1" fill="none" fill-rule="evenodd">
        <g id="sonar-1440" transform="translate(-889.000000, -1027.000000)">
            <g id="block_An-Elegant-Threat-Hunting-Solution" transform="translate(130.207909, 921.000000)">
                <g id="content" transform="translate(0.000000, 106.000000)">
                    <g id="Group-13" transform="translate(713.792091, 0.000000)">
                        <g id="icon/auto_investigation" transform="translate(45.000000, 0.000000)">
                            <g>
                                <g id="Group-3" transform="translate(0.000000, 0.256281)">
                                    <mask id="mask-2" fill="white">
                                        <use xlink:href="#path-1"></use>
                                    </mask>
                                    <g id="Clip-2"></g>
                                    <path d="M119.954902,59.8717387 C119.954902,92.9130452 93.1021058,119.698372 59.9772695,119.698372 C26.8527355,119.698372 -6.04534005e-05,92.9130452 -6.04534005e-05,59.8717387 C-6.04534005e-05,26.8304322 26.8527355,0.0451055276 59.9772695,0.0451055276 C93.1021058,0.0451055276 119.954902,26.8304322 119.954902,59.8717387" id="Fill-1" fill="#C71532" mask="url(#mask-2)"></path>
                                </g>
                                <g id="Group-6" transform="translate(29.622166, 29.804020)">
                                    <mask id="mask-4" fill="white">
                                        <use xlink:href="#path-3"></use>
                                    </mask>
                                    <g id="Clip-5"></g>
                                    <polygon id="Fill-4" fill="#FEFEFE" mask="url(#mask-4)" points="-2.13853904 62.7361809 62.8488665 62.7361809 62.8488665 -2.0879397 -2.13853904 -2.0879397"></polygon>
                                </g>
                                <g id="Group-9" transform="translate(45.037783, 45.180905)">
                                    <mask id="mask-6" fill="white">
                                        <use xlink:href="#path-5"></use>
                                    </mask>
                                    <g id="Clip-8"></g>
                                    <polygon id="Fill-7" fill="#FEFEFE" mask="url(#mask-6)" points="-1.38287154 31.2286432 31.2619647 31.2286432 31.2619647 -1.33417085 -1.38287154 -1.33417085"></polygon>
                                </g>
                            </g>
                        </g>
                    </g>
                </g>
            </g>
        </g>
    </g>
</svg>