<?xml version="1.0" encoding="UTF-8"?>
<svg width="120px" height="120px" viewBox="0 0 120 120" version="1.1" xmlns="http://www.w3.org/2000/svg" xmlns:xlink="http://www.w3.org/1999/xlink">
    <!-- Generator: Sketch 54.1 (76490) - https://sketchapp.com -->
    <title>icon/premise</title>
    <desc>Created with Sketch.</desc>
    <defs>
        <polygon id="path-1" points="0.000120906801 0.0452261307 119.95466 0.0452261307 119.95466 119.698462 0.000120906801 119.698462"></polygon>
        <path d="M1.8631738,0.0832160804 C0.939143577,0.0832160804 0.189823678,0.830653266 0.189823678,1.75236181 L0.189823678,1.75236181 L0.189823678,31.7990955 C0.189823678,32.7211055 0.939143577,33.4685427 1.8631738,33.4685427 L1.8631738,33.4685427 L17.5940554,33.4685427 L17.5940554,41.1470352 L12.2387909,41.1470352 C11.4994458,41.1470352 10.9000504,41.7452261 10.9000504,42.4827136 L10.9000504,42.4827136 C10.9000504,43.2198995 11.4994458,43.8177889 12.2387909,43.8177889 L12.2387909,43.8177889 L43.0307305,43.8177889 C43.7703778,43.8177889 44.369471,43.2198995 44.369471,42.4827136 L44.369471,42.4827136 C44.369471,41.7452261 43.7703778,41.1470352 43.0307305,41.1470352 L43.0307305,41.1470352 L37.6757683,41.1470352 L37.6757683,33.4685427 L53.4063476,33.4685427 C54.3306801,33.4685427 55.0796977,32.7211055 55.0796977,31.7990955 L55.0796977,31.7990955 L55.0796977,1.75236181 C55.0796977,0.830653266 54.3306801,0.0832160804 53.4063476,0.0832160804 L53.4063476,0.0832160804 L1.8631738,0.0832160804 Z M2.86730479,2.75396985 L52.4022166,2.75396985 L52.4022166,30.7974874 L36.0024181,30.7974874 L19.2674055,30.7974874 L2.86730479,30.7974874 L2.86730479,2.75396985 Z M20.2715365,41.1470352 L34.9979849,41.1470352 L34.9979849,33.4685427 L20.2715365,33.4685427 L20.2715365,41.1470352 Z M6.88382872,5.09095477 C5.95919395,5.09095477 5.21047859,5.83809045 5.21047859,6.76040201 L5.21047859,6.76040201 L5.21047859,26.7916583 C5.21047859,27.7133668 5.95919395,28.460804 6.88382872,28.460804 L6.88382872,28.460804 L48.385995,28.460804 C49.3100252,28.460804 50.0596474,27.7133668 50.0596474,26.7916583 L50.0596474,26.7916583 L50.0596474,6.76040201 C50.0596474,5.83809045 49.3100252,5.09095477 48.385995,5.09095477 L48.385995,5.09095477 L6.88382872,5.09095477 Z M7.8879597,25.7897487 L47.381864,25.7897487 L47.381864,7.76170854 L7.8879597,7.76170854 L7.8879597,25.7897487 Z M4.87556675,45.4872362 C3.95153652,45.4872362 3.20191436,46.2346734 3.20191436,47.1566834 L3.20191436,47.1566834 L3.20191436,62.5139698 C3.20191436,63.4359799 3.95153652,64.1831156 4.87556675,64.1831156 L4.87556675,64.1831156 L50.3942569,64.1831156 C51.3182872,64.1831156 52.0676071,63.4359799 52.0676071,62.5139698 L52.0676071,62.5139698 L52.0676071,47.1566834 C52.0676071,46.2346734 51.3182872,45.4872362 50.3942569,45.4872362 L50.3942569,45.4872362 L4.87556675,45.4872362 Z M5.87969773,61.5123618 L49.3901259,61.5123618 L49.3901259,48.1582915 L5.87969773,48.1582915 L5.87969773,61.5123618 Z M44.7040806,51.4965829 L44.7040806,58.1737688 C44.7040806,58.9112563 45.3037783,59.5091457 46.0431234,59.5091457 L46.0431234,59.5091457 C46.7824685,59.5091457 47.381864,58.9112563 47.381864,58.1737688 L47.381864,58.1737688 L47.381864,51.4965829 C47.381864,50.7590955 46.7824685,50.161206 46.0431234,50.161206 L46.0431234,50.161206 C45.3037783,50.161206 44.7040806,50.7590955 44.7040806,51.4965829 L44.7040806,51.4965829 Z M40.3532494,51.4965829 L40.3532494,58.1737688 C40.3532494,58.9112563 40.9526448,59.5091457 41.6919899,59.5091457 L41.6919899,59.5091457 C42.431335,59.5091457 43.0307305,58.9112563 43.0307305,58.1737688 L43.0307305,58.1737688 L43.0307305,51.4965829 C43.0307305,50.7590955 42.431335,50.161206 41.6919899,50.161206 L41.6919899,50.161206 C40.9526448,50.161206 40.3532494,50.7590955 40.3532494,51.4965829 L40.3532494,51.4965829 Z M36.0024181,51.4965829 L36.0024181,58.1737688 C36.0024181,58.9112563 36.6018136,59.5091457 37.3408564,59.5091457 L37.3408564,59.5091457 C38.0802015,59.5091457 38.6798992,58.9112563 38.6798992,58.1737688 L38.6798992,58.1737688 L38.6798992,51.4965829 C38.6798992,50.7590955 38.0802015,50.161206 37.3408564,50.161206 L37.3408564,50.161206 C36.6018136,50.161206 36.0024181,50.7590955 36.0024181,51.4965829 L36.0024181,51.4965829 Z M8.89178841,54.8351759 C8.89178841,57.4166834 10.9898237,59.5091457 13.5775315,59.5091457 L13.5775315,59.5091457 C16.1655416,59.5091457 18.2635768,57.4166834 18.2635768,54.8351759 L18.2635768,54.8351759 C18.2635768,52.2536683 16.1655416,50.161206 13.5775315,50.161206 L13.5775315,50.161206 C10.9898237,50.161206 8.89178841,52.2536683 8.89178841,54.8351759 L8.89178841,54.8351759 Z M11.5692695,54.8351759 C11.5692695,53.7289447 12.4685139,52.8319598 13.5775315,52.8319598 L13.5775315,52.8319598 C14.6865491,52.8319598 15.5857935,53.7289447 15.5857935,54.8351759 L15.5857935,54.8351759 C15.5857935,55.941407 14.6865491,56.838392 13.5775315,56.838392 L13.5775315,56.838392 C12.4685139,56.838392 11.5692695,55.941407 11.5692695,54.8351759 L11.5692695,54.8351759 Z M22.6144081,53.499799 C21.875063,53.499799 21.2753652,54.0976884 21.2753652,54.8351759 L21.2753652,54.8351759 C21.2753652,55.5726633 21.875063,56.1705528 22.6144081,56.1705528 L22.6144081,56.1705528 L31.6509824,56.1705528 C32.3906297,56.1705528 32.9897229,55.5726633 32.9897229,54.8351759 L32.9897229,54.8351759 C32.9897229,54.0976884 32.3906297,53.499799 31.6509824,53.499799 L31.6509824,53.499799 L22.6144081,53.499799 Z" id="path-3"></path>
    </defs>
    <g id="mockup" stroke="none" stroke-width="1" fill="none" fill-rule="evenodd">
        <g id="sonar-1440" transform="translate(-437.000000, -1027.000000)">
            <g id="block_An-Elegant-Threat-Hunting-Solution" transform="translate(130.207909, 921.000000)">
                <g id="content" transform="translate(0.000000, 106.000000)">
                    <g id="Group-12" transform="translate(299.792091, 0.000000)">
                        <g id="icon/premise" transform="translate(7.000000, 0.000000)">
                            <g>
                                <g id="Group-6" transform="translate(0.000000, 0.256281)">
                                    <g id="Group-5">
                                        <mask id="mask-2" fill="white">
                                            <use xlink:href="#path-1"></use>
                                        </mask>
                                        <g id="Clip-4"></g>
                                        <path d="M59.9774509,0.0451959799 C26.8529169,0.0451959799 0.000120906801,26.8305226 0.000120906801,59.8718291 C0.000120906801,92.9131357 26.8529169,119.698462 59.9774509,119.698462 C93.1019849,119.698462 119.954781,92.9131357 119.954781,59.8718291 C119.954781,26.8305226 93.1019849,0.0451959799 59.9774509,0.0451959799 M59.9774509,6.53906533 C74.2589622,6.53906533 87.6856625,12.086804 97.784403,22.1598693 C107.882841,32.2332362 113.444554,45.626201 113.444554,59.8718291 C113.444554,74.1174573 107.882841,87.5104221 97.784403,97.5837889 C87.6856625,107.656854 74.2589622,113.204593 59.9774509,113.204593 C45.6956373,113.204593 32.2692393,107.656854 22.1704987,97.5837889 C12.0720605,87.5104221 6.51034761,74.1174573 6.51034761,59.8718291 C6.51034761,45.626201 12.0720605,32.2332362 22.1704987,22.1598693 C32.2692393,12.086804 45.6956373,6.53906533 59.9774509,6.53906533" id="Fill-3" fill="#C71532" mask="url(#mask-2)"></path>
                                    </g>
                                </g>
                                <g id="Group-9" transform="translate(32.342569, 27.994975)">
                                    <mask id="mask-4" fill="white">
                                        <use xlink:href="#path-3"></use>
                                    </mask>
                                    <g id="Clip-8"></g>
                                    <polygon id="Fill-7" fill="#C71532" mask="url(#mask-4)" points="-1.48382872 65.8525628 56.7530479 65.8525628 56.7530479 -1.58592965 -1.48382872 -1.58592965"></polygon>
                                </g>
                            </g>
                        </g>
                    </g>
                </g>
            </g>
        </g>
    </g>
</svg>