<?xml version="1.0" encoding="UTF-8"?>
<svg width="1281px" height="508px" viewBox="0 0 1281 508" version="1.1" xmlns="http://www.w3.org/2000/svg" xmlns:xlink="http://www.w3.org/1999/xlink">
    <!-- Generator: Sketch 56.2 (81672) - https://sketch.com -->
    <title>unknown_threats</title>
    <desc>Created with Sketch.</desc>
    <g id="mockup" stroke="none" stroke-width="1" fill="none" fill-rule="evenodd">
        <g id="sonar-1280--copy" transform="translate(0.000000, -2780.000000)">
            <g id="unknown_threats" transform="translate(0.000000, 2780.000000)">
                <polygon id="Rectangle" fill="#D3CEC7" points="435 0 845 0 1125 508 155 508"></polygon>
                <g id="Group-16" transform="translate(530.275000, 32.000000)" fill="#4C433F" fill-rule="nonzero">
                    <path d="M7.02,89.85 L12.3,89.85 L11.64,87.42 C10.95,85.11 10.35,82.56 9.69,80.16 L9.57,80.16 C9,82.59 8.34,85.11 7.68,87.42 L7.02,89.85 Z M14.82,99 L13.26,93.3 L6.06,93.3 L4.5,99 L-2.84217094e-13,99 L7.11,76.8 L12.33,76.8 L19.47,99 L14.82,99 Z M21.72,99 L21.72,82.2 L25.32,82.2 L25.62,84.42 L25.74,84.42 C27.21,82.98 28.92,81.78 31.2,81.78 C34.83,81.78 36.39,84.3 36.39,88.53 L36.39,99 L31.98,99 L31.98,89.07 C31.98,86.49 31.26,85.56 29.61,85.56 C28.23,85.56 27.36,86.22 26.1,87.45 L26.1,99 L21.72,99 Z M47.1,99.42 C43.11,99.42 41.58,96.9 41.58,93.12 L41.58,85.68 L39.21,85.68 L39.21,82.41 L41.79,82.2 L42.3,77.7 L45.99,77.7 L45.99,82.2 L50.13,82.2 L50.13,85.68 L45.99,85.68 L45.99,93.12 C45.99,95.04 46.77,95.94 48.27,95.94 C48.81,95.94 49.47,95.76 49.92,95.58 L50.64,98.79 C49.74,99.09 48.57,99.42 47.1,99.42 Z M53.55,99 L53.55,82.2 L57.93,82.2 L57.93,99 L53.55,99 Z M55.77,79.5 C54.24,79.5 53.13,78.48 53.13,77.1 C53.13,75.66 54.24,74.7 55.77,74.7 C57.27,74.7 58.38,75.66 58.38,77.1 C58.38,78.48 57.27,79.5 55.77,79.5 Z M66.45,99 L60.72,82.2 L65.16,82.2 L67.62,90.57 C68.04,92.22 68.52,93.96 68.97,95.67 L69.12,95.67 C69.54,93.96 70.02,92.22 70.47,90.57 L72.93,82.2 L77.16,82.2 L71.55,99 L66.45,99 Z M79.95,99 L79.95,82.2 L84.33,82.2 L84.33,99 L79.95,99 Z M82.17,79.5 C80.64,79.5 79.53,78.48 79.53,77.1 C79.53,75.66 80.64,74.7 82.17,74.7 C83.67,74.7 84.78,75.66 84.78,77.1 C84.78,78.48 83.67,79.5 82.17,79.5 Z M89.07,99 L89.07,82.2 L92.67,82.2 L92.97,85.17 L93.09,85.17 C94.32,82.98 96.12,81.78 97.86,81.78 C98.79,81.78 99.33,81.93 99.84,82.14 L99.06,85.95 C98.49,85.77 98.01,85.68 97.32,85.68 C96,85.68 94.41,86.55 93.45,88.98 L93.45,99 L89.07,99 Z M107.13,99.42 C103.53,99.42 101.97,96.9 101.97,92.7 L101.97,82.2 L106.38,82.2 L106.38,92.13 C106.38,94.74 107.1,95.64 108.72,95.64 C110.1,95.64 111,95.04 112.14,93.54 L112.14,82.2 L116.55,82.2 L116.55,99 L112.95,99 L112.62,96.6 L112.5,96.6 C111.06,98.31 109.44,99.42 107.13,99.42 Z M126.06,99.42 C123.81,99.42 121.32,98.43 119.67,97.05 L121.68,94.29 C123.18,95.46 124.62,96.12 126.18,96.12 C127.86,96.12 128.61,95.4 128.61,94.35 C128.61,93.09 126.87,92.52 125.1,91.83 C122.97,91.02 120.51,89.73 120.51,86.94 C120.51,83.91 122.97,81.78 126.75,81.78 C129.21,81.78 131.07,82.8 132.48,83.85 L130.5,86.52 C129.3,85.68 128.13,85.08 126.87,85.08 C125.37,85.08 124.65,85.74 124.65,86.7 C124.65,87.93 126.3,88.38 128.07,89.04 C130.29,89.88 132.75,90.99 132.75,94.11 C132.75,97.05 130.44,99.42 126.06,99.42 Z M140.97,104.46 L148.41,74.85 L151.35,74.85 L143.91,104.46 L140.97,104.46 Z M161.73,99 L161.73,76.8 L175.35,76.8 L175.35,80.49 L166.17,80.49 L166.17,85.62 L173.97,85.62 L173.97,89.34 L166.17,89.34 L166.17,95.28 L175.68,95.28 L175.68,99 L161.73,99 Z M180.18,99 L180.18,76.8 L186.27,76.8 C193.05,76.8 197.25,80.31 197.25,87.81 C197.25,95.28 193.05,99 186.51,99 L180.18,99 Z M184.62,95.43 L186,95.43 C190.14,95.43 192.72,93.21 192.72,87.81 C192.72,82.38 190.14,80.34 186,80.34 L184.62,80.34 L184.62,95.43 Z M206.04,80.31 L206.04,87.09 L208.92,87.09 C211.77,87.09 213.33,85.89 213.33,83.52 C213.33,81.12 211.77,80.31 208.92,80.31 L206.04,80.31 Z M218.64,99 L213.69,99 L209.13,90.6 L206.04,90.6 L206.04,99 L201.6,99 L201.6,76.8 L209.34,76.8 C213.99,76.8 217.68,78.42 217.68,83.52 C217.68,86.85 216,88.92 213.45,89.91 L218.64,99 Z" id="Antivirus/EDR"></path>
                    <path d="M109.725,57.3690836 C127.79264,47.0898393 136.896839,32.8262536 137.165673,14.45426 L109.725,2.77483442 L82.2843268,14.45426 C82.5531611,32.8262536 91.6573603,47.0898393 109.725,57.3690836 Z M110.346703,59.9492062 L109.725,60.2958626 L109.103297,59.9492062 C89.5639584,49.0542415 79.725,33.5640274 79.725,13.6128046 L79.725,12.768738 L109.725,7.28306304e-13 L139.725,12.768738 L139.725,13.6128046 C139.725,33.5640274 129.886042,49.0542415 110.346703,59.9492062 Z M93.252495,17.7646612 L109.592056,20.9407501 L126.114145,17.7291812 L109.725,10.7535578 L93.252495,17.7646612 Z M129.164003,19.7373277 L111.001596,23.2677421 L111.001596,48.6347953 C122.681041,41.5260707 128.699956,31.9277013 129.164003,19.7373329 Z M108.448404,48.6347953 L108.448404,23.3194255 L90.2880136,19.7894032 C90.7672026,31.9550404 96.7855958,41.5361965 108.448404,48.6347953 Z M110.346703,51.9704828 L109.725,52.3171392 L109.103297,51.9704828 C94.8831074,44.0414292 87.7037234,32.7383837 87.7037234,18.1955871 L87.7037234,17.3515204 L109.725,7.9787234 L131.746277,17.3515204 L131.746277,18.1955871 C131.746277,32.7383837 124.566893,44.0414292 110.346703,51.9704828 Z" id="Combined-Shape"></path>
                </g>
                <rect id="Rectangle" fill-opacity="0.4" fill="#77D1FF" x="0" y="168" width="1281" height="340"></rect>
                <g id="logo" transform="translate(500.000000, 199.000000)">
                    <circle id="Oval" fill="#C81432" cx="140" cy="140" r="140"></circle>
                    <g id="Group-29" transform="translate(40.000000, 67.000000)" fill="#FEFEFE">
                        <path d="M123.930409,73.7522222 C117.515205,80.1674269 108.984795,83.701345 99.9087719,83.701345 C90.8345029,83.701345 82.302924,80.1674269 75.8865497,73.7522222 C74.2093567,72.0750292 72.697076,70.207193 71.3918129,68.2001754 L71.0233918,67.632924 L71.6923977,67.5311696 C73.248538,67.2949123 74.654386,66.4867251 75.648538,65.2563158 L76.0233918,64.7949123 L76.3520468,65.2890643 C77.397076,66.8645029 78.6081871,68.3440351 79.9502924,69.6884795 C85.2812865,75.0171345 92.3690058,77.9522222 99.9087719,77.9522222 C107.448538,77.9522222 114.536842,75.0171345 119.866667,69.6878947 C125.196491,64.358655 128.132749,57.2709357 128.132749,49.7305848 C128.132749,43.1639181 125.944444,37.0259064 121.800585,31.9492982 L118.514035,35.2364327 C121.78655,39.4142105 123.51345,44.4177193 123.51345,49.732924 C123.51345,56.0422807 121.05848,61.9703509 116.6,66.424152 C112.140351,70.8820468 106.212281,73.3370175 99.9076023,73.3370175 C99.8005848,73.3370175 99.6953216,73.33 99.5888889,73.3229825 L99.3748538,73.3112865 L98.6023392,73.2937427 L99.0163743,72.6422807 C99.6584795,71.6294152 99.9982456,70.4709357 99.9982456,69.2890643 C99.9982456,68.8984211 99.9578947,68.4943275 99.8789474,68.0890643 L99.7795322,67.5808772 L100.297076,67.5691813 C104.927485,67.4709357 109.273684,65.6206433 112.535088,62.3598246 C115.907602,58.9902339 117.766082,54.5060234 117.766082,49.732924 C117.766082,45.9697661 116.607018,42.3878947 114.409357,39.3405263 L111.084795,42.6656725 C112.436842,44.7896491 113.148538,47.224152 113.148538,49.7305848 C113.148538,53.2639181 111.773099,56.5884795 109.27193,59.0931579 C106.770175,61.5937427 103.445029,62.9709357 99.9076023,62.9709357 C96.3719298,62.9709357 93.0473684,61.5937427 90.5461988,59.0937427 C88.045614,56.5949123 86.6695906,53.2697661 86.6695906,49.7305848 C86.6695906,46.1960819 88.045614,42.8703509 90.5450292,40.3685965 C92.7356725,38.1767836 95.6397661,36.8183041 98.7216374,36.5422807 C98.8116959,36.5335088 98.905848,36.5288304 98.9994152,36.5288304 C100.460819,36.5288304 101.708772,37.6797076 101.842105,39.1492982 C101.983626,40.7264912 100.81462,42.1253216 99.2356725,42.2674269 C97.4929825,42.4229825 95.8508772,43.1914035 94.6111111,44.4323392 C93.1953216,45.8481287 92.4163743,47.73 92.4163743,49.7305848 C92.4163743,51.7323392 93.1953216,53.6136257 94.6111111,55.0288304 C95.9573099,56.3767836 97.8883041,57.1492982 99.9076023,57.1492982 C101.92924,57.1492982 103.860819,56.3767836 105.205263,55.0294152 C106.621053,53.6130409 107.40117,51.7317544 107.40117,49.7305848 C107.40117,48.7674269 107.209942,47.8235673 106.833918,46.9165497 L102.272515,51.4779532 C101.725731,52.0247368 100.995322,52.3259064 100.216374,52.3259064 C99.4385965,52.3259064 98.7093567,52.0253216 98.1625731,51.4797076 L98.1608187,51.4779532 L98.1608187,51.4779532 C97.6140351,50.9305848 97.3122807,50.2001754 97.3122807,49.4223977 C97.3122807,48.6434503 97.6140351,47.9130409 98.1608187,47.3662573 L123.652632,21.8732749 C124.200585,21.3264912 124.930994,21.0247368 125.709357,21.0247368 C126.487719,21.0247368 127.217544,21.3264912 127.764912,21.8732749 C128.311696,22.4212281 128.61345,23.1510526 128.61345,23.93 C128.61345,24.7083626 128.311696,25.4381871 127.764912,25.9855556 L125.890058,27.8604094 C131.045029,33.9685965 133.880117,41.7194737 133.880117,49.7305848 C133.880117,58.8060234 130.347368,67.3364327 123.930409,73.7522222 L123.930409,73.7522222 Z M65.6444444,61.3089474 C65.6444444,58.4919883 67.9362573,56.2001754 70.751462,56.2001754 C73.5684211,56.2001754 75.8602339,58.4919883 75.8602339,61.3089474 C75.8602339,64.1253216 73.5684211,66.4165497 70.751462,66.4165497 C67.9362573,66.4165497 65.6444444,64.1253216 65.6444444,61.3089474 L65.6444444,61.3089474 Z M75.8865497,25.7095322 C80.9087719,20.6861404 87.2532164,17.410117 94.2362573,16.2352632 C94.3935673,16.2107018 94.5444444,16.1990058 94.694152,16.1990058 C96.1134503,16.1990058 97.3122807,17.2066082 97.545614,18.5931579 C97.8081871,20.1569006 96.7497076,21.6422807 95.1871345,21.9054386 C89.394152,22.8773684 84.1251462,25.5978363 79.9502924,29.7738596 C74.6192982,35.1025146 71.6830409,42.1902339 71.6830409,49.7305848 C71.6830409,51.3223977 71.8245614,52.9504678 72.102924,54.5680117 L72.2040936,55.1569006 L71.6134503,55.0744444 C71.3309942,55.0352632 71.0450292,55.007193 70.751462,55.007193 C69.4695906,55.007193 68.2315789,55.3978363 67.1707602,56.1370175 L66.6134503,56.5247368 L66.4923977,55.8563158 C66.122807,53.8200585 65.9356725,51.7592398 65.9356725,49.7305848 C65.9356725,40.6533918 69.4695906,32.1223977 75.8865497,25.7095322 L75.8865497,25.7095322 Z M78.8555556,37.3674269 C78.8555556,34.6849708 81.0380117,32.5030994 83.7204678,32.5030994 C86.4023392,32.5030994 88.5847953,34.6849708 88.5847953,37.3674269 C88.5847953,40.049883 86.4023392,42.2323392 83.7204678,42.2323392 C81.0380117,42.2323392 78.8555556,40.049883 78.8555556,37.3674269 L78.8555556,37.3674269 Z M93.6953216,64.4253216 C96.3777778,64.4253216 98.5608187,66.607193 98.5608187,69.2890643 C98.5608187,71.9715205 96.3777778,74.1539766 93.6953216,74.1539766 C91.0134503,74.1539766 88.8309942,71.9715205 88.8309942,69.2890643 C88.8309942,66.607193 91.0134503,64.4253216 93.6953216,64.4253216 L93.6953216,64.4253216 Z M89.3491228,64.7463743 C88.1777778,65.8668421 87.4900585,67.3703509 87.4105263,68.9802924 L87.3725146,69.7533918 L86.7304094,69.3200585 C85.4666667,68.4656725 84.2836257,67.4914035 83.2157895,66.424152 C78.7578947,61.9662573 76.302924,56.0376023 76.302924,49.7305848 C76.302924,46.8165497 76.8421053,43.9475439 77.9046784,41.2030994 L78.1900585,40.4645029 L78.6619883,41.1001754 C79.6309942,42.407193 81.0368421,43.2826316 82.6204678,43.5656725 L83.1163743,43.6539766 L82.9590643,44.1317544 C82.3561404,45.9604094 82.0508772,47.8440351 82.0508772,49.7305848 C82.0508772,54.5025146 83.9081871,58.9873099 87.2795322,62.3598246 C87.8502924,62.9305848 88.4953216,63.4773684 89.3076023,64.0808772 L89.722807,64.3884795 L89.3491228,64.7463743 Z M98.4573099,28.8492982 C98.780117,30.4007602 97.7824561,31.9264912 96.2327485,32.2510526 C94.025731,32.7142105 91.9432749,33.5896491 90.0409357,34.852807 L89.6222222,35.1317544 L89.405848,34.6779532 C88.7081871,33.2147953 87.4935673,32.0855556 85.9871345,31.4978363 L85.2508772,31.2118713 L85.8859649,30.7411111 C88.6327485,28.7089474 91.7169591,27.3235673 95.0549708,26.6264912 C95.2508772,26.5861404 95.4491228,26.5656725 95.6467836,26.5656725 C96.997076,26.5656725 98.1789474,27.5259064 98.4573099,28.8492982 L98.4573099,28.8492982 Z M99.9081871,0.000175438596 C72.4426901,0.000175438596 50.1777778,22.2650877 50.1777778,49.7305848 C50.1777778,77.1960819 72.4426901,99.4609942 99.9081871,99.4609942 C127.373684,99.4609942 149.638596,77.1960819 149.638596,49.7305848 C149.638596,22.2650877 127.373684,0.000175438596 99.9081871,0.000175438596 L99.9081871,0.000175438596 Z" id="Fill-1"></path>
                        <polygon id="Fill-3" points="5.84795322e-05 116.302924 5.84795322e-05 121.040351 6.84216374 121.040351 6.84216374 142.092982 11.5790058 142.092982 11.5790058 116.302924"></polygon>
                        <path d="M22.3744444,122.619181 L21.835848,122.619181 C20.6153801,122.619181 19.4615789,122.896374 18.4212281,123.37883 L18.4212281,116.302807 L13.684386,116.302807 L13.684386,142.092865 L18.4212281,142.092865 L18.4212281,130.770643 C18.4212281,128.888187 19.952807,127.356023 21.835848,127.356023 L22.3744444,127.356023 C24.2580702,127.356023 25.7896491,128.888187 25.7896491,130.770643 L25.7896491,142.092865 L30.5259064,142.092865 L30.5259064,130.770643 C30.5259064,126.275906 26.8691813,122.619181 22.3744444,122.619181" id="Fill-5"></path>
                        <path d="M73.1580117,134.473275 C73.1580117,136.356316 71.6264327,137.887895 69.742807,137.887895 L69.2042105,137.887895 C67.3211696,137.887895 65.7895906,136.356316 65.7895906,134.473275 L65.7895906,130.245205 C65.7895906,128.361579 67.3211696,126.829415 69.2042105,126.829415 L69.742807,126.829415 C71.6264327,126.829415 73.1580117,128.361579 73.1580117,130.245205 L73.1580117,131.835263 L73.1580117,134.473275 Z M74.2106433,122.092573 L74.2106433,123.434094 C72.9264327,122.58848 71.3919298,122.092573 69.742807,122.092573 L69.2042105,122.092573 C64.8854971,122.092573 61.3498246,125.47152 61.0790643,129.724152 L61.0790643,134.993743 C61.3492398,139.245205 64.8854971,142.624737 69.2042105,142.624737 L69.742807,142.624737 C71.3919298,142.624737 72.9264327,142.129415 74.2106433,141.283801 L74.2106433,142.092573 L77.8948538,142.092573 L77.8948538,122.092573 L74.2106433,122.092573 Z" id="Fill-7"></path>
                        <path d="M42.6038596,122.339883 C40.7933333,122.339883 38.6950877,122.93462 36.8418713,123.953333 L36.8418713,122.092515 L32.1050292,122.092515 L32.1050292,142.092515 L36.8418713,142.092515 L36.8418713,130.49193 C36.8418713,129.12 40.3038596,127.355673 42.631345,127.355673 L42.6038596,122.339883 Z" id="Fill-9"></path>
                        <path d="M47.8947368,130.513918 L47.8947368,130.244912 C47.8947368,128.361287 49.4263158,126.829123 51.3093567,126.829123 L51.848538,126.829123 C53.7315789,126.829123 55.2631579,128.361287 55.2631579,130.244912 L55.2631579,130.513918 L47.8947368,130.513918 Z M51.848538,122.092865 L51.3093567,122.092865 C46.8146199,122.092865 43.1578947,125.750175 43.1578947,130.244912 L43.1842105,134.99345 C43.4549708,139.245497 46.9906433,142.625029 51.3093567,142.625029 L51.848538,142.625029 C55.7684211,142.625029 60,140.112164 60,136.052515 L55.2631579,136.052515 C55.2631579,136.944327 53.5081871,137.887602 51.848538,137.887602 L51.3093567,137.887602 C49.4263158,137.887602 47.8947368,136.356023 47.8947368,134.473567 L47.8947368,134.198129 L60,134.198129 L60,130.244912 C60,125.750175 56.3432749,122.092865 51.848538,122.092865 L51.848538,122.092865 Z" id="Fill-11"></path>
                        <path d="M84.2105848,126.114211 L87.8947953,126.114211 L87.8947953,122.518304 L84.2105848,122.518304 L84.2105848,118.934678 L79.4737427,118.934678 L79.4737427,137.183216 C79.4737427,138.794327 79.91,139.992573 80.8088304,140.847544 C81.9421637,141.927076 83.4176023,142.092573 84.9205263,142.092573 C85.2550292,142.092573 87.4807602,142.051637 87.8947953,142.051637 L87.8947953,137.428246 L84.7369006,137.428246 C84.4462573,137.428246 84.2105848,137.197836 84.2105848,136.914795 L84.2105848,126.114211 Z" id="Fill-13"></path>
                        <path d="M106.027895,126.853216 L97.692807,126.853216 C96.2384211,126.853216 95.0547953,125.736842 95.0547953,124.364327 L95.0547953,123.480702 C95.0547953,122.108772 96.2384211,120.992398 97.692807,120.992398 L110.88462,120.992398 L110.88462,116.302924 L97.692807,116.302924 C93.6261404,116.302924 90.3179532,119.523392 90.3179532,123.480702 L90.3179532,124.364327 C90.3179532,128.322807 93.6261404,131.54269 97.692807,131.54269 L106.027895,131.54269 C107.482281,131.54269 108.665906,132.659064 108.665906,134.030994 L108.665906,134.91462 C108.665906,136.287135 107.482281,137.403509 106.027895,137.403509 L91.2167836,137.403509 L91.2167836,142.092982 L106.027895,142.092982 C110.094561,142.092982 113.402164,138.873099 113.402164,134.91462 L113.402164,134.030994 C113.402164,130.073099 110.094561,126.853216 106.027895,126.853216" id="Fill-15"></path>
                        <path d="M122.640292,127.397485 C121.184152,127.397485 119.999942,128.581696 119.999942,130.037836 L119.999942,134.410936 C119.999942,135.866491 121.184152,137.051287 122.640292,137.051287 L126.307544,137.051287 C127.763099,137.051287 128.94731,135.866491 128.94731,134.410936 L128.94731,130.037836 C128.94731,128.581696 127.763099,127.397485 126.307544,127.397485 L122.640292,127.397485 Z M126.523333,142.355965 L122.424503,142.355965 C118.185906,142.355965 114.736784,138.907427 114.736784,134.668246 L114.736784,129.779942 C114.736784,125.541345 118.185906,122.092807 122.424503,122.092807 L126.523333,122.092807 C130.76193,122.092807 134.210468,125.541345 134.210468,129.779942 L134.210468,134.668246 C134.210468,138.907427 130.76193,142.355965 126.523333,142.355965 L126.523333,142.355965 Z" id="Fill-17"></path>
                        <path d="M196.635789,135.726257 C194.879649,135.726257 193.455673,137.150819 193.455673,138.906374 C193.455673,140.663099 194.879649,142.087076 196.635789,142.087076 C198.392515,142.087076 199.815906,140.663099 199.815906,138.906374 C199.815906,137.150819 198.392515,135.726257 196.635789,135.726257" id="Fill-19"></path>
                        <path d="M198.895556,126.564795 L198.895556,121.829123 L194.423041,121.829123 C184.976257,121.829123 179.558713,126.504561 179.558713,134.657193 L179.558713,142.087018 L184.293801,142.087018 L184.293801,134.657193 C184.293801,126.564795 191.917778,126.564795 194.423041,126.564795 L198.895556,126.564795 Z" id="Fill-21"></path>
                        <path d="M194.422807,133.931287 L198.895322,133.931287 L198.895322,129.195614 L194.422807,129.195614 C191.612865,129.195614 189.47076,129.540058 188.150877,131.219006 C187.01462,132.66462 187.015205,134.447661 187.015763,136.703801 L187.015763,142.086842 L191.752047,142.086842 L191.752047,136.702047 C191.751462,136.481579 191.751462,136.25 191.753216,136.017836 C191.759649,134.886842 192.660819,133.971053 193.792398,133.940058 C193.984211,133.934795 194.193567,133.931287 194.422807,133.931287" id="Fill-23"></path>
                        <path d="M167.123567,137.614795 L162.852222,137.614795 C161.800175,137.614795 160.967427,136.659825 161.174444,135.570936 C161.329415,134.754561 162.095497,134.194912 162.926491,134.194912 L171.480877,134.194327 C171.503099,134.194327 171.520643,134.215965 171.514795,134.238187 C170.998421,136.179708 169.225906,137.614795 167.123567,137.614795 L167.123567,137.614795 Z M177.456316,128.506608 C177.438772,124.966842 174.555731,122.092573 171.011871,122.092573 L159.17269,122.092573 L159.17269,126.828246 L171.011871,126.828246 C171.955146,126.828246 172.721813,127.594912 172.721813,128.538187 L172.721813,129.45924 L162.849883,129.459825 C159.101345,129.459825 156.090234,132.678538 156.434094,136.497836 C156.735263,139.855146 159.699591,142.350468 163.070351,142.350468 L167.090234,142.350468 C169.209532,142.350468 171.156901,141.634094 172.721813,140.441696 L172.721813,142.086725 L177.457485,142.086725 L177.457485,128.506608 L177.456316,128.506608 Z" id="Fill-25"></path>
                        <polygon id="Fill-27" points="150.06345 122.092632 150.06345 134.293801 140.65117 122.093216 140.65117 122.092632 135.857018 122.092632 135.857018 142.086784 140.65117 142.086784 140.65117 129.890877 150.06345 142.086784 154.857602 142.086784 154.857602 122.092632"></polygon>
                    </g>
                </g>
                <g id="Group-11" transform="translate(88.000000, 42.000000)">
                    <polygon id="Rectangle" fill="#C81432" points="0 0 270.981132 0 334 41.90625 270.981132 87 0 87"></polygon>
                    <path d="M48.7,54 L48.7,31.8 L53.14,31.8 L53.14,41.43 L53.23,41.43 L60.58,31.8 L65.47,31.8 L58.69,40.53 L66.67,54 L61.78,54 L56.05,44.04 L53.14,47.76 L53.14,54 L48.7,54 Z M68.92,54 L68.92,37.2 L72.52,37.2 L72.82,39.42 L72.94,39.42 C74.41,37.98 76.12,36.78 78.4,36.78 C82.03,36.78 83.59,39.3 83.59,43.53 L83.59,54 L79.18,54 L79.18,44.07 C79.18,41.49 78.46,40.56 76.81,40.56 C75.43,40.56 74.56,41.22 73.3,42.45 L73.3,54 L68.92,54 Z M95.17,54.42 C90.97,54.42 87.1,51.18 87.1,45.63 C87.1,40.02 90.97,36.78 95.17,36.78 C99.37,36.78 103.24,40.02 103.24,45.63 C103.24,51.18 99.37,54.42 95.17,54.42 Z M95.17,50.82 C97.45,50.82 98.74,48.78 98.74,45.63 C98.74,42.45 97.45,40.38 95.17,40.38 C92.89,40.38 91.6,42.45 91.6,45.63 C91.6,48.78 92.89,50.82 95.17,50.82 Z M109.48,54 L105.13,37.2 L109.54,37.2 L111.37,45.51 C111.7,47.13 111.91,48.75 112.21,50.4 L112.33,50.4 C112.66,48.75 112.96,47.1 113.38,45.51 L115.39,37.2 L119.32,37.2 L121.42,45.51 C121.81,47.13 122.11,48.75 122.47,50.4 L122.62,50.4 C122.92,48.75 123.13,47.13 123.46,45.51 L125.29,37.2 L129.37,37.2 L125.23,54 L120.04,54 L118.27,46.68 C117.91,45.09 117.64,43.56 117.31,41.79 L117.16,41.79 C116.83,43.56 116.59,45.12 116.23,46.68 L114.52,54 L109.48,54 Z M132.58,54 L132.58,37.2 L136.18,37.2 L136.48,39.42 L136.6,39.42 C138.07,37.98 139.78,36.78 142.06,36.78 C145.69,36.78 147.25,39.3 147.25,43.53 L147.25,54 L142.84,54 L142.84,44.07 C142.84,41.49 142.12,40.56 140.47,40.56 C139.09,40.56 138.22,41.22 136.96,42.45 L136.96,54 L132.58,54 Z M164.77,54.42 C160.78,54.42 159.25,51.9 159.25,48.12 L159.25,40.68 L156.88,40.68 L156.88,37.41 L159.46,37.2 L159.97,32.7 L163.66,32.7 L163.66,37.2 L167.8,37.2 L167.8,40.68 L163.66,40.68 L163.66,48.12 C163.66,50.04 164.44,50.94 165.94,50.94 C166.48,50.94 167.14,50.76 167.59,50.58 L168.31,53.79 C167.41,54.09 166.24,54.42 164.77,54.42 Z M171.22,54 L171.22,30.06 L175.6,30.06 L175.6,36.09 L175.42,39.24 C176.77,37.98 178.42,36.78 180.7,36.78 C184.33,36.78 185.89,39.3 185.89,43.53 L185.89,54 L181.48,54 L181.48,44.07 C181.48,41.49 180.76,40.56 179.11,40.56 C177.73,40.56 176.86,41.22 175.6,42.45 L175.6,54 L171.22,54 Z M190.42,54 L190.42,37.2 L194.02,37.2 L194.32,40.17 L194.44,40.17 C195.67,37.98 197.47,36.78 199.21,36.78 C200.14,36.78 200.68,36.93 201.19,37.14 L200.41,40.95 C199.84,40.77 199.36,40.68 198.67,40.68 C197.35,40.68 195.76,41.55 194.8,43.98 L194.8,54 L190.42,54 Z M210.43,54.42 C205.75,54.42 202.09,51.15 202.09,45.63 C202.09,40.17 205.9,36.78 209.92,36.78 C214.54,36.78 216.94,40.17 216.94,44.82 C216.94,45.63 216.85,46.44 216.73,46.83 L206.38,46.83 C206.74,49.59 208.54,51.03 211.03,51.03 C212.41,51.03 213.61,50.61 214.81,49.86 L216.31,52.56 C214.66,53.7 212.53,54.42 210.43,54.42 Z M206.32,43.92 L213.16,43.92 C213.16,41.64 212.14,40.2 209.98,40.2 C208.21,40.2 206.65,41.46 206.32,43.92 Z M224.29,54.42 C221.29,54.42 219.31,52.29 219.31,49.44 C219.31,45.84 222.22,43.95 228.97,43.23 C228.91,41.58 228.19,40.32 226.12,40.32 C224.56,40.32 223.06,41.01 221.5,41.91 L219.91,39 C221.89,37.77 224.29,36.78 226.93,36.78 C231.19,36.78 233.38,39.33 233.38,44.19 L233.38,54 L229.78,54 L229.45,52.2 L229.36,52.2 C227.89,53.46 226.21,54.42 224.29,54.42 Z M225.73,50.97 C226.99,50.97 227.92,50.37 228.97,49.32 L228.97,45.93 C224.89,46.47 223.51,47.58 223.51,49.08 C223.51,50.4 224.44,50.97 225.73,50.97 Z M243.46,54.42 C239.47,54.42 237.94,51.9 237.94,48.12 L237.94,40.68 L235.57,40.68 L235.57,37.41 L238.15,37.2 L238.66,32.7 L242.35,32.7 L242.35,37.2 L246.49,37.2 L246.49,40.68 L242.35,40.68 L242.35,48.12 C242.35,50.04 243.13,50.94 244.63,50.94 C245.17,50.94 245.83,50.76 246.28,50.58 L247,53.79 C246.1,54.09 244.93,54.42 243.46,54.42 Z M254.35,54.42 C252.1,54.42 249.61,53.43 247.96,52.05 L249.97,49.29 C251.47,50.46 252.91,51.12 254.47,51.12 C256.15,51.12 256.9,50.4 256.9,49.35 C256.9,48.09 255.16,47.52 253.39,46.83 C251.26,46.02 248.8,44.73 248.8,41.94 C248.8,38.91 251.26,36.78 255.04,36.78 C257.5,36.78 259.36,37.8 260.77,38.85 L258.79,41.52 C257.59,40.68 256.42,40.08 255.16,40.08 C253.66,40.08 252.94,40.74 252.94,41.7 C252.94,42.93 254.59,43.38 256.36,44.04 C258.58,44.88 261.04,45.99 261.04,49.11 C261.04,52.05 258.73,54.42 254.35,54.42 Z" id="Knownthreats" fill="#FFFFFF" fill-rule="nonzero"></path>
                </g>
                <g id="Group-15" transform="translate(88.000000, 294.000000)">
                    <polygon id="Rectangle-Copy" fill="#C81432" points="0 -1.42108547e-14 270.981132 -1.42108547e-14 334 41.90625 270.981132 87 0 87"></polygon>
                    <path d="M37.6,54.42 C32.2,54.42 28.96,51.39 28.96,44.01 L28.96,31.8 L33.4,31.8 L33.4,44.4 C33.4,49.02 34.99,50.58 37.6,50.58 C40.24,50.58 41.92,49.02 41.92,44.4 L41.92,31.8 L46.18,31.8 L46.18,44.01 C46.18,51.39 43.03,54.42 37.6,54.42 Z M51.16,54 L51.16,37.2 L54.76,37.2 L55.06,39.42 L55.18,39.42 C56.65,37.98 58.36,36.78 60.64,36.78 C64.27,36.78 65.83,39.3 65.83,43.53 L65.83,54 L61.42,54 L61.42,44.07 C61.42,41.49 60.7,40.56 59.05,40.56 C57.67,40.56 56.8,41.22 55.54,42.45 L55.54,54 L51.16,54 Z M70.39,54 L70.39,30.06 L74.68,30.06 L74.68,44.46 L74.8,44.46 L80.62,37.2 L85.42,37.2 L79.6,44.07 L85.96,54 L81.19,54 L77.11,47.04 L74.68,49.8 L74.68,54 L70.39,54 Z M88.54,54 L88.54,37.2 L92.14,37.2 L92.44,39.42 L92.56,39.42 C94.03,37.98 95.74,36.78 98.02,36.78 C101.65,36.78 103.21,39.3 103.21,43.53 L103.21,54 L98.8,54 L98.8,44.07 C98.8,41.49 98.08,40.56 96.43,40.56 C95.05,40.56 94.18,41.22 92.92,42.45 L92.92,54 L88.54,54 Z M114.79,54.42 C110.59,54.42 106.72,51.18 106.72,45.63 C106.72,40.02 110.59,36.78 114.79,36.78 C118.99,36.78 122.86,40.02 122.86,45.63 C122.86,51.18 118.99,54.42 114.79,54.42 Z M114.79,50.82 C117.07,50.82 118.36,48.78 118.36,45.63 C118.36,42.45 117.07,40.38 114.79,40.38 C112.51,40.38 111.22,42.45 111.22,45.63 C111.22,48.78 112.51,50.82 114.79,50.82 Z M129.1,54 L124.75,37.2 L129.16,37.2 L130.99,45.51 C131.32,47.13 131.53,48.75 131.83,50.4 L131.95,50.4 C132.28,48.75 132.58,47.1 133,45.51 L135.01,37.2 L138.94,37.2 L141.04,45.51 C141.43,47.13 141.73,48.75 142.09,50.4 L142.24,50.4 C142.54,48.75 142.75,47.13 143.08,45.51 L144.91,37.2 L148.99,37.2 L144.85,54 L139.66,54 L137.89,46.68 C137.53,45.09 137.26,43.56 136.93,41.79 L136.78,41.79 C136.45,43.56 136.21,45.12 135.85,46.68 L134.14,54 L129.1,54 Z M152.2,54 L152.2,37.2 L155.8,37.2 L156.1,39.42 L156.22,39.42 C157.69,37.98 159.4,36.78 161.68,36.78 C165.31,36.78 166.87,39.3 166.87,43.53 L166.87,54 L162.46,54 L162.46,44.07 C162.46,41.49 161.74,40.56 160.09,40.56 C158.71,40.56 157.84,41.22 156.58,42.45 L156.58,54 L152.2,54 Z M184.39,54.42 C180.4,54.42 178.87,51.9 178.87,48.12 L178.87,40.68 L176.5,40.68 L176.5,37.41 L179.08,37.2 L179.59,32.7 L183.28,32.7 L183.28,37.2 L187.42,37.2 L187.42,40.68 L183.28,40.68 L183.28,48.12 C183.28,50.04 184.06,50.94 185.56,50.94 C186.1,50.94 186.76,50.76 187.21,50.58 L187.93,53.79 C187.03,54.09 185.86,54.42 184.39,54.42 Z M190.84,54 L190.84,30.06 L195.22,30.06 L195.22,36.09 L195.04,39.24 C196.39,37.98 198.04,36.78 200.32,36.78 C203.95,36.78 205.51,39.3 205.51,43.53 L205.51,54 L201.1,54 L201.1,44.07 C201.1,41.49 200.38,40.56 198.73,40.56 C197.35,40.56 196.48,41.22 195.22,42.45 L195.22,54 L190.84,54 Z M210.04,54 L210.04,37.2 L213.64,37.2 L213.94,40.17 L214.06,40.17 C215.29,37.98 217.09,36.78 218.83,36.78 C219.76,36.78 220.3,36.93 220.81,37.14 L220.03,40.95 C219.46,40.77 218.98,40.68 218.29,40.68 C216.97,40.68 215.38,41.55 214.42,43.98 L214.42,54 L210.04,54 Z M230.05,54.42 C225.37,54.42 221.71,51.15 221.71,45.63 C221.71,40.17 225.52,36.78 229.54,36.78 C234.16,36.78 236.56,40.17 236.56,44.82 C236.56,45.63 236.47,46.44 236.35,46.83 L226,46.83 C226.36,49.59 228.16,51.03 230.65,51.03 C232.03,51.03 233.23,50.61 234.43,49.86 L235.93,52.56 C234.28,53.7 232.15,54.42 230.05,54.42 Z M225.94,43.92 L232.78,43.92 C232.78,41.64 231.76,40.2 229.6,40.2 C227.83,40.2 226.27,41.46 225.94,43.92 Z M243.91,54.42 C240.91,54.42 238.93,52.29 238.93,49.44 C238.93,45.84 241.84,43.95 248.59,43.23 C248.53,41.58 247.81,40.32 245.74,40.32 C244.18,40.32 242.68,41.01 241.12,41.91 L239.53,39 C241.51,37.77 243.91,36.78 246.55,36.78 C250.81,36.78 253,39.33 253,44.19 L253,54 L249.4,54 L249.07,52.2 L248.98,52.2 C247.51,53.46 245.83,54.42 243.91,54.42 Z M245.35,50.97 C246.61,50.97 247.54,50.37 248.59,49.32 L248.59,45.93 C244.51,46.47 243.13,47.58 243.13,49.08 C243.13,50.4 244.06,50.97 245.35,50.97 Z M263.08,54.42 C259.09,54.42 257.56,51.9 257.56,48.12 L257.56,40.68 L255.19,40.68 L255.19,37.41 L257.77,37.2 L258.28,32.7 L261.97,32.7 L261.97,37.2 L266.11,37.2 L266.11,40.68 L261.97,40.68 L261.97,48.12 C261.97,50.04 262.75,50.94 264.25,50.94 C264.79,50.94 265.45,50.76 265.9,50.58 L266.62,53.79 C265.72,54.09 264.55,54.42 263.08,54.42 Z M273.97,54.42 C271.72,54.42 269.23,53.43 267.58,52.05 L269.59,49.29 C271.09,50.46 272.53,51.12 274.09,51.12 C275.77,51.12 276.52,50.4 276.52,49.35 C276.52,48.09 274.78,47.52 273.01,46.83 C270.88,46.02 268.42,44.73 268.42,41.94 C268.42,38.91 270.88,36.78 274.66,36.78 C277.12,36.78 278.98,37.8 280.39,38.85 L278.41,41.52 C277.21,40.68 276.04,40.08 274.78,40.08 C273.28,40.08 272.56,40.74 272.56,41.7 C272.56,42.93 274.21,43.38 275.98,44.04 C278.2,44.88 280.66,45.99 280.66,49.11 C280.66,52.05 278.35,54.42 273.97,54.42 Z" id="Unknownthreats" fill="#FFFFFF" fill-rule="nonzero"></path>
                </g>
            </g>
        </g>
    </g>
</svg>