<?xml version="1.0" encoding="UTF-8"?>
<svg width="146px" height="146px" viewBox="0 0 146 146" version="1.1" xmlns="http://www.w3.org/2000/svg" xmlns:xlink="http://www.w3.org/1999/xlink">
    <!-- Generator: Sketch 54.1 (76490) - https://sketchapp.com -->
    <title>icon/adversary</title>
    <desc>Created with Sketch.</desc>
    <g id="mockup" stroke="none" stroke-width="1" fill="none" fill-rule="evenodd">
        <g id="vision-1440" transform="translate(-499.000000, -699.000000)" fill="#F6AC19">
            <g id="block_A-cyber-threat-intelligence-platform" transform="translate(160.000000, 596.000000)">
                <g id="Know-the-adversary" transform="translate(297.000000, 103.000000)">
                    <g id="icon/adversary" transform="translate(42.000000, 0.000000)">
                        <g id="Combined-Shape">
                            <path d="M73,146 C32.6832133,146 0,113.316787 0,73 C0,32.6832133 32.6832133,0 73,0 C113.316787,0 146,32.6832133 146,73 C146,113.316787 113.316787,146 73,146 Z M73,140 C110.003078,140 140,110.003078 140,73 C140,35.9969218 110.003078,6 73,6 C35.9969218,6 6,35.9969218 6,73 C6,110.003078 35.9969218,140 73,140 Z M39.636329,83.2129979 L36.4782609,83.2129979 C34.5572704,83.2129979 33,81.65077 33,79.7236643 L33,71.436497 C33,69.5093913 34.5572704,67.9471634 36.4782609,67.9471634 L39.6827484,67.9471634 L44.9909931,39.840305 C45.342927,37.9768347 47.1141656,36.7366109 48.9791465,37.0477943 L72.9998606,41.0557964 L97.0201064,37.047805 C98.88509,36.7366159 100.656334,37.9768402 101.008269,39.8403141 L106.316512,67.9471634 L109.521739,67.9471634 C111.44273,67.9471634 113,69.5093913 113,71.436497 L113,79.7236643 C113,81.65077 111.44273,83.2129979 109.521739,83.2129979 L106.363671,83.2129979 C104.946004,99.3324904 90.5500402,112 73,112 C55.4499598,112 41.0539964,99.3324904 39.636329,83.2129979 Z M73.183093,84.0853313 L72.7946719,84.0853313 C71.2468713,91.0779164 65.1466909,96.2979988 57.8571863,96.2979988 C51.3672692,96.2979988 45.8200717,92.1602927 43.58892,86.3178561 C46.4274157,98.9501039 58.473613,108.510666 73,108.510666 C87.5814645,108.510666 99.663896,98.8774679 102.442969,86.1740368 C100.248448,92.0922732 94.6636219,96.2979988 88.1205786,96.2979988 C80.8310741,96.2979988 74.7308936,91.0779164 73.183093,84.0853313 Z M44.8703693,59.2238294 L101.128891,59.2238294 L97.590803,40.4898505 L72.9998654,44.5930669 L48.4084592,40.4898414 L44.8703693,59.2238294 Z M36.4782609,71.436497 L36.4782609,79.7236643 L109.521739,79.7236643 L109.521739,71.436497 L36.4782609,71.436497 Z" fill-rule="nonzero"></path>
                        </g>
                    </g>
                </g>
            </g>
        </g>
    </g>
</svg>