<?xml version="1.0" encoding="UTF-8"?>
<svg width="146px" height="146px" viewBox="0 0 146 146" version="1.1" xmlns="http://www.w3.org/2000/svg" xmlns:xlink="http://www.w3.org/1999/xlink">
    <!-- Generator: Sketch 54.1 (76490) - https://sketchapp.com -->
    <title>icon/awareness</title>
    <desc>Created with Sketch.</desc>
    <g id="mockup" stroke="none" stroke-width="1" fill="none" fill-rule="evenodd">
        <g id="vision-1440" transform="translate(-795.000000, -699.000000)" fill="#F6AC19">
            <g id="block_A-cyber-threat-intelligence-platform" transform="translate(160.000000, 596.000000)">
                <g id="Increase-situational-awareness" transform="translate(593.000000, 103.000000)">
                    <g id="icon/awareness" transform="translate(42.000000, 0.000000)">
                        <g id="Combined-Shape">
                            <path d="M73,146 C32.6832133,146 0,113.316787 0,73 C0,32.6832133 32.6832133,0 73,0 C113.316787,0 146,32.6832133 146,73 C146,113.316787 113.316787,146 73,146 Z M73,140 C110.003078,140 140,110.003078 140,73 C140,35.9969218 110.003078,6 73,6 C35.9969218,6 6,35.9969218 6,73 C6,110.003078 35.9969218,140 73,140 Z M79.989937,87.1227865 C80.7387296,87.1236462 81.481193,87.1206634 82.3591363,87.1126773 C89.1985775,80.0793069 96.7384615,65.198712 96.7384615,58.1977619 C96.7384615,46.4240305 86.2032101,36.2820513 73.5,36.2820513 C60.7967899,36.2820513 50.2615385,46.4240305 50.2615385,58.1977619 C50.2615385,65.2209247 57.8210141,80.1221237 64.6797453,87.1519052 C65.5480563,87.1490959 66.3340101,87.1430819 67.350656,87.1328678 L62.2253737,57.8831337 C62.1475863,57.4392045 62.4438512,57.0160916 62.8876125,56.9373524 C62.8881852,56.9372507 62.8887581,56.9371497 62.889331,56.9370493 C63.3320315,56.8594772 63.7537957,57.1554721 63.8313679,57.5981726 L69.0037272,87.1165696 C70.4631309,87.103604 71.6839453,87.0982428 73.5,87.0982428 C75.0019582,87.0982428 76.1239309,87.1022378 77.5052932,87.1106593 C77.6442874,87.1115067 78.1178437,87.1144859 78.3352289,87.1158334 L83.5074592,57.5981726 C83.5850313,57.1554721 84.0067956,56.8594772 84.449496,56.9370493 C84.450069,56.9371497 84.4506418,56.9372507 84.4512146,56.9373524 C84.8949759,57.0160916 85.1912408,57.4392045 85.1134533,57.8831337 L79.989937,87.1227868 Z M73.5,90.380294 C68.2680612,90.380294 67.5367037,90.4358974 63.3589043,90.4358974 C55.9749239,83.5630931 47,66.8481042 47,58.1977619 C47,44.734579 58.8644541,33 73.5,33 C88.1355459,33 100,44.734579 100,58.1977619 C100,66.8248152 91.051414,83.5030254 83.7006806,90.380294 C79.2202767,90.4358974 78.7572559,90.380294 73.5,90.380294 Z M68.9769557,69.3186773 C68.7630514,70.1079257 67.6587679,70.130596 67.4130532,69.3507832 L64.5691237,60.3251421 C64.4330147,59.8931796 64.6706628,59.4319728 65.0999255,59.2950078 C65.5291883,59.1580427 65.9875126,59.3971854 66.1236216,59.8291479 L68.1314806,66.2013928 L69.8498024,59.8612538 C70.0598816,59.0861187 71.1372864,59.0452682 71.4047347,59.8022976 L73.7338792,66.3950876 L75.5591368,59.8552839 C75.7844689,59.0479305 76.9261745,59.060559 77.1338164,59.8727016 L78.8004017,66.3911562 L81.2861301,59.7865366 C81.4456256,59.3627546 81.9163183,59.1493212 82.3374517,59.3098198 C82.7585851,59.4703184 82.9706845,59.9439714 82.811189,60.3677535 L79.4142799,69.3933945 C79.1323873,70.1423877 78.0603942,70.0828796 77.8620823,69.3072295 L76.3096514,63.2352625 L74.6101057,69.3246472 C74.3950701,70.0951085 73.3232072,70.1316722 73.0568154,69.3776335 L70.7390464,62.8170427 L68.9769557,69.3186773 Z M64.1333333,92.0769231 L83.274359,92.0769231 C84.1806724,92.0769231 84.9153846,92.8116353 84.9153846,93.7179487 C84.9153846,94.6242622 84.1806724,95.3589744 83.274359,95.3589744 L64.1333333,95.3589744 C63.2270199,95.3589744 62.4923077,94.6242622 62.4923077,93.7179487 C62.4923077,92.8116353 63.2270199,92.0769231 64.1333333,92.0769231 Z M64.1333333,97 L83.274359,97 C84.1806724,97 84.9153846,97.7347122 84.9153846,98.6410256 C84.9153846,99.5473391 84.1806724,100.282051 83.274359,100.282051 L64.1333333,100.282051 C63.2270199,100.282051 62.4923077,99.5473391 62.4923077,98.6410256 C62.4923077,97.7347122 63.2270199,97 64.1333333,97 Z M65.7538462,105.205128 L65.7538462,108.076923 C65.7538462,108.983237 66.4839664,109.717949 67.3846154,109.717949 L80.0230769,109.717949 C80.9237259,109.717949 81.6538462,108.983237 81.6538462,108.076923 L81.6538462,105.205128 L65.7538462,105.205128 Z M64.1230769,101.923077 L83.2846154,101.923077 C84.1852644,101.923077 84.9153846,102.657789 84.9153846,103.564103 L84.9153846,108.076923 C84.9153846,110.795863 82.7250239,113 80.0230769,113 L67.3846154,113 C64.6826685,113 62.4923077,110.795863 62.4923077,108.076923 L62.4923077,103.564103 C62.4923077,102.657789 63.2224279,101.923077 64.1230769,101.923077 Z M114.491789,77.0134747 L116.515327,77.957066 L122.77136,80.874302 C123.2719,81.1077076 123.488455,81.7026881 123.255049,82.203228 C123.173287,82.3785677 123.042419,82.5264256 122.878307,82.6288786 L108.780651,91.4299087 C108.312165,91.7223799 107.695287,91.5796917 107.402816,91.1112058 C107.183619,90.7600917 107.203391,90.3102237 107.452548,89.9796944 L112.822839,82.8554981 L110.799301,81.9119068 L104.543268,78.9946708 C104.042728,78.7612652 103.826173,78.1662847 104.059579,77.6657447 C104.141341,77.4904051 104.272209,77.3425472 104.43632,77.2400942 L118.533977,68.4390641 C119.002463,68.1465929 119.619341,68.289281 119.911812,68.7577669 C120.131009,69.108881 120.111237,69.558749 119.86208,69.8892783 L114.491789,77.0134747 Z M35.4917888,77.0134747 L37.5153269,77.957066 L43.7713598,80.874302 C44.2718998,81.1077076 44.4884549,81.7026881 44.2550493,82.203228 C44.1732871,82.3785677 44.0424186,82.5264256 43.8783075,82.6288786 L29.7806507,91.4299087 C29.3121648,91.7223799 28.6952872,91.5796917 28.402816,91.1112058 C28.1836189,90.7600917 28.2033912,90.3102237 28.4525476,89.9796944 L33.8228391,82.8554981 L31.799301,81.9119068 L25.5432681,78.9946708 C25.0427281,78.7612652 24.826173,78.1662847 25.0595786,77.6657447 C25.1413408,77.4904051 25.2722093,77.3425472 25.4363204,77.2400942 L39.5339772,68.4390641 C40.0024631,68.1465929 40.6193407,68.289281 40.9118119,68.7577669 C41.131009,69.108881 41.1112367,69.558749 40.8620803,69.8892783 L35.4917888,77.0134747 Z" fill-rule="nonzero"></path>
                        </g>
                    </g>
                </g>
            </g>
        </g>
    </g>
</svg>