<?xml version="1.0" encoding="UTF-8"?>
<svg width="146px" height="146px" viewBox="0 0 146 146" version="1.1" xmlns="http://www.w3.org/2000/svg" xmlns:xlink="http://www.w3.org/1999/xlink">
    <!-- Generator: Sketch 54.1 (76490) - https://sketchapp.com -->
    <title>icon/discover&amp;identify</title>
    <desc>Created with Sketch.</desc>
    <g id="mockup" stroke="none" stroke-width="1" fill="none" fill-rule="evenodd">
        <g id="vision-1440" transform="translate(-202.000000, -699.000000)" fill="#F6AC19">
            <g id="block_A-cyber-threat-intelligence-platform" transform="translate(160.000000, 596.000000)">
                <g id="Discover-and-Identify-potential-threats" transform="translate(0.000000, 103.000000)">
                    <g id="icon/discover&amp;identify" transform="translate(42.000000, 0.000000)">
                        <g id="Combined-Shape">
                            <path d="M95.6558629,87.9147578 L111.170614,100.948637 C113.337388,102.768936 113.6201,106.00035 111.802335,108.169251 C109.987314,110.334877 106.760361,110.619099 104.594735,108.804078 C104.593207,108.802797 104.591681,108.801516 104.590155,108.800234 L88.8115081,95.5446573 C82.9156035,100.408863 75.3608513,103.330216 67.1245898,103.330216 C48.2780993,103.330216 33,88.0339759 33,69.1651079 C33,50.2962398 48.2780993,35 67.1245898,35 C85.9710804,35 101.24918,50.2962398 101.24918,69.1651079 C101.24918,76.0891744 99.191868,82.5321595 95.6558629,87.9147578 Z M68.404262,49.9726195 L68.404262,51.6871189 C76.9006937,52.1925545 83.7839633,58.6978153 84.8859071,67.0297886 L86.6093421,67.0297886 C85.4928562,57.7508138 77.8456761,50.4843961 68.404262,49.9726195 Z M68.404262,48.2654725 C78.7867263,48.7825372 87.1949553,56.8078614 88.323592,67.0297886 L91.4368407,67.0297886 C92.1444232,67.0297886 92.7180322,67.6033976 92.7180322,68.3109802 C92.7180322,69.0185627 92.1444232,69.5921717 91.4368407,69.5921717 L88.4514036,69.5921717 C88.3405082,80.8117356 79.499738,89.9392331 68.404262,90.4918071 L68.404262,93.5092666 C68.404262,94.21601 67.8313332,94.7889388 67.1245898,94.7889388 C66.4178464,94.7889388 65.8449177,94.21601 65.8449177,93.5092666 L65.8449177,90.4662743 C55.2316916,89.7240173 46.7804933,81.1289407 46.2497403,70.4462994 L42.812339,70.4462994 C42.1047565,70.4462994 41.5311475,69.8726904 41.5311475,69.1651079 C41.5311475,68.4575253 42.1047565,67.8839163 42.812339,67.8839163 L46.2752428,67.8839163 C47.0067139,57.4000613 55.373496,49.0233449 65.8449177,48.2910052 L65.8449177,44.8209491 C65.8449177,44.1142057 66.4178464,43.541277 67.1245898,43.541277 C67.8313332,43.541277 68.404262,44.1142057 68.404262,44.8209491 L68.404262,48.2654725 Z M65.8449177,50.000415 C56.3143985,50.726145 48.7074946,58.342081 47.9826253,67.8839163 L49.6978039,67.8839163 C50.4147678,59.2879871 57.2591828,52.4354453 65.8449177,51.7176301 L65.8449177,50.000415 Z M47.9548628,70.4462994 C48.4816162,80.1871013 56.1726329,88.0203395 65.8449177,88.7568645 L65.8449177,87.0396495 C57.1174649,86.3099859 50.1892915,79.2414021 49.6673289,70.4462994 L47.9548628,70.4462994 Z M68.404262,88.7846601 C78.5589165,88.2342219 86.638011,79.8700521 86.7485215,69.5921717 L85.0387411,69.5921717 C84.928692,78.9245346 77.6142188,86.5222789 68.404262,87.0701606 L68.404262,88.7846601 Z M68.404262,53.0530903 L68.404262,59.3441588 C68.404262,60.0509022 67.8313332,60.6238309 67.1245898,60.6238309 C66.4178464,60.6238309 65.8449177,60.0509022 65.8449177,59.3441588 L65.8449177,53.0861769 C58.0117476,53.796504 51.7742123,60.0414455 51.0647277,67.8839163 L57.3122508,67.8839163 C58.0198334,67.8839163 58.5934424,68.4575253 58.5934424,69.1651079 C58.5934424,69.8726904 58.0198334,70.4462994 57.3122508,70.4462994 L51.0316803,70.4462994 C51.5491088,78.4881303 57.870076,84.9479285 65.8449177,85.6711026 L65.8449177,78.9860569 C65.8449177,78.2793135 66.4178464,77.7063848 67.1245898,77.7063848 C67.8313332,77.7063848 68.404262,78.2793135 68.404262,78.9860569 L68.404262,85.7041893 C76.8617253,85.1587251 83.5673215,78.1714298 83.6769337,69.5921717 L76.9369288,69.5921717 C76.2293463,69.5921717 75.6557373,69.0185627 75.6557373,68.3109802 C75.6557373,67.6033976 76.2293463,67.0297886 76.9369288,67.0297886 L83.5111374,67.0297886 C82.4229447,59.4522884 76.1479197,53.5525176 68.404262,53.0530903 Z M67.1245898,98.8887517 C83.5210366,98.8887517 96.812983,85.5810231 96.812983,69.1651079 C96.812983,52.7491927 83.5210366,39.441464 67.1245898,39.441464 C50.7281431,39.441464 37.4361967,52.7491927 37.4361967,69.1651079 C37.4361967,85.5810231 50.7281431,98.8887517 67.1245898,98.8887517 Z M67.1245898,74.289874 C64.2976163,74.289874 62.0059014,71.9954381 62.0059014,69.1651079 C62.0059014,66.3347777 64.2976163,64.0403417 67.1245898,64.0403417 C69.9515634,64.0403417 72.2432783,66.3347777 72.2432783,69.1651079 C72.2432783,71.9954381 69.9515634,74.289874 67.1245898,74.289874 Z M73,146 C32.6832133,146 0,113.316787 0,73 C0,32.6832133 32.6832133,0 73,0 C113.316787,0 146,32.6832133 146,73 C146,113.316787 113.316787,146 73,146 Z M73,140 C110.003078,140 140,110.003078 140,73 C140,35.9969218 110.003078,6 73,6 C35.9969218,6 6,35.9969218 6,73 C6,110.003078 35.9969218,140 73,140 Z" fill-rule="nonzero"></path>
                        </g>
                    </g>
                </g>
            </g>
        </g>
    </g>
</svg>