<?xml version="1.0" encoding="UTF-8"?>
<svg width="1281px" height="227px" viewBox="0 0 1281 227" version="1.1" xmlns="http://www.w3.org/2000/svg" xmlns:xlink="http://www.w3.org/1999/xlink">
    <!-- Generator: Sketch 54.1 (76490) - https://sketchapp.com -->
    <title>vision_bg_circle</title>
    <desc>Created with Sketch.</desc>
    <g id="mockup" stroke="none" stroke-width="1" fill="none" fill-rule="evenodd" stroke-opacity="0.3">
        <g id="vision-1440" transform="translate(-80.000000, -319.000000)" stroke="#FFFFFF" stroke-width="3">
            <g id="hero" transform="translate(80.000000, 96.000000)">
                <g id="hero_bg">
                    <g id="vision_bg_circle" transform="translate(-77.000000, 225.000000)">
                        <circle id="Oval" cx="103" cy="61" r="61"></circle>
                        <circle id="Oval-Copy-10" cx="132.5" cy="118.5" r="38.5"></circle>
                        <circle id="Oval-Copy-11" cx="160" cy="190" r="27"></circle>
                        <circle id="Oval-Copy-12" cx="222" cy="210" r="75"></circle>
                        <circle id="Oval-Copy-13" cx="286" cy="177" r="83"></circle>
                        <circle id="Oval-Copy-14" cx="297" cy="190" r="61"></circle>
                        <circle id="Oval-Copy-15" cx="384" cy="251" r="75"></circle>
                        <circle id="Oval-Copy-18" cx="369.5" cy="172.5" r="37.5"></circle>
                        <circle id="Oval-Copy-19" cx="61" cy="202" r="61"></circle>
                        <circle id="Oval-Copy-20" cx="445" cy="155" r="61"></circle>
                        <circle id="Oval-Copy-21" cx="445.5" cy="228.5" r="38.5"></circle>
                        <circle id="Oval-Copy-22" cx="531" cy="191" r="72"></circle>
                        <circle id="Oval-Copy-23" cx="546.5" cy="213.5" r="40.5"></circle>
                        <circle id="Oval-Copy-24" cx="474.5" cy="135.5" r="49.5"></circle>
                        <circle id="Oval-Copy-36" cx="660.5" cy="242.5" r="49.5"></circle>
                        <circle id="Oval-Copy-25" cx="601" cy="202" r="70"></circle>
                        <circle id="Oval-Copy-26" cx="621" cy="229" r="69"></circle>
                        <circle id="Oval-Copy-27" cx="907" cy="237" r="61"></circle>
                        <circle id="Oval-Copy-28" cx="856.5" cy="227.5" r="71.5"></circle>
                        <circle id="Oval-Copy-29" cx="778" cy="198" r="45"></circle>
                        <circle id="Oval-Copy-48" cx="690" cy="228" r="69"></circle>
                        <circle id="Oval-Copy-31" cx="1082" cy="231" r="61"></circle>
                        <circle id="Oval-Copy-38" cx="1167" cy="210" r="61"></circle>
                        <circle id="Oval-Copy-40" cx="1281" cy="168" r="46"></circle>
                        <circle id="Oval-Copy-42" cx="1364" cy="87" r="83"></circle>
                        <circle id="Oval-Copy-43" cx="1364" cy="180" r="61"></circle>
                        <circle id="Oval-Copy-44" cx="1309.5" cy="210.5" r="37.5"></circle>
                        <circle id="Oval-Copy-45" cx="1242" cy="234" r="61"></circle>
                        <circle id="Oval-Copy-32" cx="1021" cy="155" r="61"></circle>
                        <circle id="Oval-Copy-46" cx="1103" cy="163" r="46"></circle>
                        <circle id="Oval-Copy-49" cx="1272" cy="107" r="31"></circle>
                        <circle id="Oval-Copy-50" cx="1158" cy="157" r="31"></circle>
                        <circle id="Oval-Copy-47" cx="1224" cy="141" r="52"></circle>
                        <circle id="Oval-Copy-33" cx="939" cy="182" r="72"></circle>
                        <circle id="Oval-Copy-34" cx="1000" cy="259" r="61"></circle>
                        <circle id="Oval-Copy-35" cx="778" cy="182" r="61"></circle>
                        <circle id="Oval-Copy-16" cx="248" cy="132" r="61"></circle>
                        <circle id="Oval-Copy-17" cx="83.5" cy="211.5" r="80.5"></circle>
                    </g>
                </g>
            </g>
        </g>
    </g>
</svg>