<?xml version="1.0" encoding="UTF-8"?>
<svg width="200px" height="200px" viewBox="0 0 200 200" version="1.1" xmlns="http://www.w3.org/2000/svg" xmlns:xlink="http://www.w3.org/1999/xlink">
    <!-- Generator: Sketch 52.6 (67491) - http://www.bohemiancoding.com/sketch -->
    <title>vision_logo_circle</title>
    <desc>Created with Sketch.</desc>
    <defs>
        <polygon id="path-1" points="0.000233009709 1.09961538 118.889709 1.09961538 118.889709 118.846154 0.000233009709 118.846154"></polygon>
    </defs>
    <g id="mockup" stroke="none" stroke-width="1" fill="none" fill-rule="evenodd">
        <g id="index-1440" transform="translate(-921.000000, -1439.000000)">
            <g id="TeamT5-Product" transform="translate(140.000000, 1163.000000)">
                <g id="vision" transform="translate(602.000000, 158.000000)">
                    <g id="vision_logo_circle" transform="translate(179.000000, 118.000000)">
                        <circle id="logo_bg" fill="#F6AC19" cx="100" cy="100" r="100"></circle>
                        <path d="M100.444971,110.459154 C97.4368155,110.459154 94.9890485,108.034923 94.9890485,105.056846 C94.9890485,102.077615 97.4368155,99.6545385 100.444971,99.6545385 C103.453126,99.6545385 105.899728,102.077615 105.899728,105.056846 C105.899728,108.034923 103.453126,110.459154 100.444971,110.459154 M100.444971,95.2583846 C94.9634175,95.2583846 90.5024466,99.6753077 90.5024466,105.104154 C90.5024466,110.534154 94.9634175,114.951077 100.444971,114.951077 C105.926524,114.951077 110.38633,110.534154 110.38633,105.104154 C110.38633,99.6753077 105.926524,95.2583846 100.444971,95.2583846" id="Fill-1" fill="#FEFEFE"></path>
                        <path d="M86.7465631,96.5313077 C82.3438447,99.1297692 78.7426796,102.351308 76.4976311,104.596692 L76.0374369,105.057077 L76.4976311,105.517462 C78.7426796,107.761692 82.3438447,110.983231 86.7465631,113.581692 L87.6483107,112.681692 C86.2502524,110.397077 85.5116117,107.760538 85.5116117,105.057077 C85.5116117,102.352462 86.2502524,99.7159231 87.6483107,97.4324615 L86.7465631,96.5313077 Z" id="Fill-3" fill="#FEFEFE"></path>
                        <path d="M114.143379,96.5318846 L113.241631,97.4330385 C114.638524,99.7165 115.377165,102.353038 115.377165,105.0565 C115.377165,107.759962 114.638524,110.3965 113.240466,112.681115 L114.143379,113.582269 C118.543767,110.982654 122.146097,107.762269 124.392311,105.516885 L124.852505,105.0565 L124.392311,104.596115 C122.146097,102.350731 118.543767,99.1291923 114.143379,96.5318846" id="Fill-5" fill="#FEFEFE"></path>
                        <path d="M129.033049,108.331692 C123.739068,113.849385 112.984505,123.104385 100.445087,123.104385 C87.9045049,123.104385 77.1499417,113.849385 71.8559612,108.331692 C70.1223689,106.525923 70.1223689,103.587077 71.8559612,101.781308 C77.1499417,96.2647692 87.9045049,87.0086154 100.445087,87.0086154 C112.984505,87.0086154 123.739068,96.2647692 129.033049,101.781308 C130.766641,103.587077 130.766641,106.525923 129.033049,108.331692 M126.390718,81.3570769 L74.4971262,81.3570769 C70.556932,81.3570769 67.3495534,84.5324615 67.3495534,88.4359231 L67.3495534,121.369 C67.3495534,125.273615 70.556932,128.449 74.4971262,128.449 L126.390718,128.449 C130.332078,128.449 133.539456,125.273615 133.539456,121.369 L133.539456,88.4359231 C133.539456,84.5324615 130.332078,81.3570769 126.390718,81.3570769" id="Fill-7" fill="#FEFEFE"></path>
                        <g id="Group-11" transform="translate(41.000000, 40.054231)">
                            <mask id="mask-2" fill="white">
                                <use xlink:href="#path-1"></use>
                            </mask>
                            <g id="Clip-10"></g>
                            <path d="M98.639068,81.3151154 C98.639068,88.5497308 92.6961553,94.4355 85.391301,94.4355 L33.4977087,94.4355 C26.1928544,94.4355 20.2511068,88.5497308 20.2511068,81.3151154 L20.2511068,48.3820385 C20.2511068,41.1474231 26.1928544,35.2616538 33.4977087,35.2616538 L51.1796505,35.2616538 L47.9058641,29.6481923 C47.1380971,28.3305 47.5947961,26.6389615 48.9252816,25.8785769 C49.3458641,25.6385769 49.8258641,25.5105 50.3116893,25.5105 C51.3078058,25.5105 52.2363495,26.0389615 52.7314951,26.8893462 L57.6130485,35.2616538 L61.2759612,35.2616538 L66.1575146,26.8893462 C66.6526602,26.0389615 67.5812039,25.5105 68.5773204,25.5105 C69.0643107,25.5105 69.5431456,25.6385769 69.9648932,25.8785769 C70.6056699,26.2455 71.0670291,26.8420385 71.2592621,27.5551154 C71.4526602,28.2693462 71.3547961,29.0124231 70.9831456,29.6481923 L67.7116893,35.2616538 L85.391301,35.2616538 C92.6961553,35.2616538 98.639068,41.1474231 98.639068,48.3820385 L98.639068,81.3151154 Z M59.4445049,1.09857692 C26.6146019,1.09857692 0.000233009709,27.4581923 0.000233009709,59.9724231 C0.000233009709,92.4878077 26.6146019,118.846269 59.4445049,118.846269 C92.2755728,118.846269 118.889942,92.4878077 118.889942,59.9724231 C118.889942,27.4581923 92.2755728,1.09857692 59.4445049,1.09857692 Z" id="Fill-9" fill="#FEFEFE" mask="url(#mask-2)"></path>
                        </g>
                    </g>
                </g>
            </g>
        </g>
    </g>
</svg>