<?xml version="1.0" encoding="UTF-8"?>
<svg width="146px" height="146px" viewBox="0 0 146 146" version="1.1" xmlns="http://www.w3.org/2000/svg" xmlns:xlink="http://www.w3.org/1999/xlink">
    <!-- Generator: Sketch 54.1 (76490) - https://sketchapp.com -->
    <title>icon/proactive</title>
    <desc>Created with Sketch.</desc>
    <g id="mockup" stroke="none" stroke-width="1" fill="none" fill-rule="evenodd">
        <g id="vision-1440" transform="translate(-1092.000000, -699.000000)" fill="#F6AC19">
            <g id="block_A-cyber-threat-intelligence-platform" transform="translate(160.000000, 596.000000)">
                <g id="Turn-passive-to-proactive" transform="translate(890.000000, 103.000000)">
                    <g id="icon/proactive" transform="translate(42.000000, 0.000000)">
                        <g id="Combined-Shape">
                            <path d="M73,146 C32.6832133,146 0,113.316787 0,73 C0,32.6832133 32.6832133,0 73,0 C113.316787,0 146,32.6832133 146,73 C146,113.316787 113.316787,146 73,146 Z M73,140 C110.003078,140 140,110.003078 140,73 C140,35.9969218 110.003078,6 73,6 C35.9969218,6 6,35.9969218 6,73 C6,110.003078 35.9969218,140 73,140 Z M73,100.087582 C91.0676397,89.8587766 100.171839,75.6651801 100.440673,57.3833351 L73,45.7612187 L45.5593268,57.3833351 C45.8281611,75.6651801 54.9323603,89.8587766 73,100.087582 Z M73.6217034,102.655045 L73,103 L72.3782966,102.655045 C52.8389584,91.8135398 43,76.3993338 43,56.5460087 L43,55.7060837 L73,43 L103,55.7060837 L103,56.5460087 C103,76.3993338 93.1610416,91.8135398 73.6217034,102.655045 Z M56.527495,60.6774927 L72.8670559,63.837997 L89.3891453,60.6421868 L73,53.7007918 L56.527495,60.6774927 Z M92.4390031,62.6404796 L74.2765957,66.1535708 L74.2765957,91.3961517 C85.9560406,84.3223086 91.9749558,74.7710369 92.4390029,62.6404848 Z M71.7234043,91.3961517 L71.7234043,66.2050006 L53.5630136,62.6922996 C54.0422026,74.7982418 60.0605958,84.3323847 71.7234043,91.3961517 Z M73.6217034,94.7154716 L73,95.060427 L72.3782966,94.7154716 C58.1581074,86.8253246 50.9787234,75.5777414 50.9787234,61.1063041 L50.9787234,60.2663792 L73,50.939573 L95.0212766,60.2663792 L95.0212766,61.1063041 C95.0212766,75.5777414 87.8418926,86.8253246 73.6217034,94.7154716 Z M19.1,71.9 L25.15,71.9 C25.7575132,71.9 26.25,72.3924868 26.25,73 C26.25,73.6075132 25.7575132,74.1 25.15,74.1 L19.1,74.1 C18.4924868,74.1 18,73.6075132 18,73 C18,72.3924868 18.4924868,71.9 19.1,71.9 Z M120.85,71.9 L126.9,71.9 C127.507513,71.9 128,72.3924868 128,73 C128,73.6075132 127.507513,74.1 126.9,74.1 L120.85,74.1 C120.242487,74.1 119.75,73.6075132 119.75,73 C119.75,72.3924868 120.242487,71.9 120.85,71.9 Z M122.376155,51.3570955 C122.937424,51.1246103 123.580889,51.3911422 123.813374,51.9524112 C124.04586,52.5136803 123.779328,53.1571452 123.218059,53.3896305 L110.006581,58.8620036 C109.445312,59.0944888 108.801847,58.8279569 108.569362,58.2666879 C108.336877,57.7054188 108.603409,57.0619538 109.164678,56.8294686 L122.376155,51.3570955 Z M35.9934187,87.1379964 C36.5546878,86.9055112 37.1981528,87.1720431 37.430638,87.7333121 C37.6631232,88.2945812 37.3965913,88.9380462 36.8353223,89.1705314 L23.623845,94.6429045 C23.0625759,94.8753897 22.419111,94.6088578 22.1866257,94.0475888 C21.9541405,93.4863197 22.2206724,92.8428548 22.7819414,92.6103695 L35.9934187,87.1379964 Z M23.623845,51.3570955 L36.8353223,56.8294686 C37.3965913,57.0619538 37.6631232,57.7054188 37.430638,58.2666879 C37.1981528,58.8279569 36.5546878,59.0944888 35.9934187,58.8620036 L22.7819414,53.3896305 C22.2206724,53.1571452 21.9541405,52.5136803 22.1866257,51.9524112 C22.419111,51.3911422 23.0625759,51.1246103 23.623845,51.3570955 Z M110.006581,87.1379964 L123.218059,92.6103695 C123.779328,92.8428548 124.04586,93.4863197 123.813374,94.0475888 C123.580889,94.6088578 122.937424,94.8753897 122.376155,94.6429045 L109.164678,89.1705314 C108.603409,88.9380462 108.336877,88.2945812 108.569362,87.7333121 C108.801847,87.1720431 109.445312,86.9055112 110.006581,87.1379964 Z M53.3896305,22.7819414 L58.8620036,35.9934187 C59.0944888,36.5546878 58.8279569,37.1981528 58.2666879,37.430638 C57.7054188,37.6631232 57.0619538,37.3965913 56.8294686,36.8353223 L51.3570955,23.623845 C51.1246103,23.0625759 51.3911422,22.419111 51.9524112,22.1866257 C52.5136803,21.9541405 53.1571452,22.2206724 53.3896305,22.7819414 Z M89.1705314,109.164678 L94.6429045,122.376155 C94.8753897,122.937424 94.6088578,123.580889 94.0475888,123.813374 C93.4863197,124.04586 92.8428548,123.779328 92.6103695,123.218059 L87.1379964,110.006581 C86.9055112,109.445312 87.1720431,108.801847 87.7333121,108.569362 C88.2945812,108.336877 88.9380462,108.603409 89.1705314,109.164678 Z M92.6103695,22.7819414 C92.8428548,22.2206724 93.4863197,21.9541405 94.0475888,22.1866257 C94.6088578,22.419111 94.8753897,23.0625759 94.6429045,23.623845 L89.1705314,36.8353223 C88.9380462,37.3965913 88.2945812,37.6631232 87.7333121,37.430638 C87.1720431,37.1981528 86.9055112,36.5546878 87.1379964,35.9934187 L92.6103695,22.7819414 Z M56.8294686,109.164678 C57.0619538,108.603409 57.7054188,108.336877 58.2666879,108.569362 C58.8279569,108.801847 59.0944888,109.445312 58.8620036,110.006581 L53.3896305,123.218059 C53.1571452,123.779328 52.5136803,124.04586 51.9524112,123.813374 C51.3911422,123.580889 51.1246103,122.937424 51.3570955,122.376155 L56.8294686,109.164678 Z M74.1,19.1 L74.1,25.15 C74.1,25.7575132 73.6075132,26.25 73,26.25 C72.3924868,26.25 71.9,25.7575132 71.9,25.15 L71.9,19.1 C71.9,18.4924868 72.3924868,18 73,18 C73.6075132,18 74.1,18.4924868 74.1,19.1 Z M74.1,120.85 L74.1,126.9 C74.1,127.507513 73.6075132,128 73,128 C72.3924868,128 71.9,127.507513 71.9,126.9 L71.9,120.85 C71.9,120.242487 72.3924868,119.75 73,119.75 C73.6075132,119.75 74.1,120.242487 74.1,120.85 Z M34.109127,35.664762 C33.6795503,35.2351852 33.6795503,34.5387038 34.109127,34.109127 C34.5387038,33.6795503 35.2351852,33.6795503 35.664762,34.109127 L39.942758,38.3871231 C40.3723347,38.8166998 40.3723347,39.5131813 39.942758,39.942758 C39.5131813,40.3723347 38.8166998,40.3723347 38.3871231,39.942758 L34.109127,35.664762 Z M106.057242,107.612877 C105.627665,107.1833 105.627665,106.486819 106.057242,106.057242 C106.486819,105.627665 107.1833,105.627665 107.612877,106.057242 L111.890873,110.335238 C112.32045,110.764815 112.32045,111.461296 111.890873,111.890873 C111.461296,112.32045 110.764815,112.32045 110.335238,111.890873 L106.057242,107.612877 Z M111.890873,35.664762 L107.612877,39.942758 C107.1833,40.3723347 106.486819,40.3723347 106.057242,39.942758 C105.627665,39.5131813 105.627665,38.8166998 106.057242,38.3871231 L110.335238,34.109127 C110.764815,33.6795503 111.461296,33.6795503 111.890873,34.109127 C112.32045,34.5387038 112.32045,35.2351852 111.890873,35.664762 Z M39.942758,107.612877 L35.664762,111.890873 C35.2351852,112.32045 34.5387038,112.32045 34.109127,111.890873 C33.6795503,111.461296 33.6795503,110.764815 34.109127,110.335238 L38.3871231,106.057242 C38.8166998,105.627665 39.5131813,105.627665 39.942758,106.057242 C40.3723347,106.486819 40.3723347,107.1833 39.942758,107.612877 Z" fill-rule="nonzero"></path>
                        </g>
                    </g>
                </g>
            </g>
        </g>
    </g>
</svg>