<?xml version="1.0" encoding="utf-8"?>
<!-- Generator: Adobe Illustrator 23.0.1, SVG Export Plug-In . SVG Version: 6.00 Build 0)  -->
<svg version="1.1" id="圖層_1" xmlns="http://www.w3.org/2000/svg" xmlns:xlink="http://www.w3.org/1999/xlink" x="0px" y="0px"
	 viewBox="0 0 170.08 37.35" style="enable-background:new 0 0 170.08 37.35;" xml:space="preserve">
<style type="text/css">
	.st0{fill:#D93751;}
	.st1{fill:#FFFFFF;}
	.st2{fill:#762D3B;}
	.st3{fill:#4C433F;}
</style>
<g>
	<g>
		<path class="st0" d="M30.41,5.96L31.37,5c-3.17-2.95-7.37-4.8-12-4.97v5.15C21.5,7.67,27.54,6.72,30.41,5.96z"/>
		<path class="st0" d="M8.31,30.01l-2.33,2.33c3.17,2.95,7.37,4.8,12,4.97v-2.04C13.02,30.24,9.51,29.93,8.31,30.01z"/>
		<path class="st0" d="M31.12,31.69c-7.48-2.78-11.02,2.23-11.75,3.44v2.19c4.83-0.18,9.2-2.17,12.41-5.34l-0.09-0.07L31.12,31.69z"
			/>
		<path class="st0" d="M30.93,22.49c-1.08,2.66-0.02,6.01,0.58,7.53l1.2,0.93c2.73-3.12,4.43-7.15,4.59-11.59h-2.93
			C32.69,20.01,31.52,21.05,30.93,22.49z"/>
		<path class="st0" d="M17.98,4.97V0.04C13.35,0.21,9.16,2.06,5.98,5l0.69,0.69C11.43,6.96,16.49,5.48,17.98,4.97z"/>
		<path class="st0" d="M5.53,6.51L5,5.98c-2.95,3.17-4.8,7.37-4.97,12h4.52C7.95,13.38,5.73,7.05,5.53,6.51z"/>
		<path class="st0" d="M4.51,19.37H0.03C0.21,24,2.06,28.19,5,31.37l2.06-2.06C7.12,25.02,5.14,20.65,4.51,19.37z"/>
		<path class="st0" d="M11.58,12.55l-4.3-4.3c0.52,2.43,0.81,6.34-1.26,9.73h2.6C11.82,16.33,11.8,13.72,11.58,12.55z"/>
		<path class="st0" d="M8.23,7.25l3.98,3.98c3.41,0.94,5.11-0.35,5.78-1.14V6.26C16.27,6.81,12.36,7.82,8.23,7.25z"/>
		<path class="st0" d="M28.87,13.81c-0.43-1.42-0.36-2.93,0.17-4.52l-3.28,3.28c-0.06,0.17-0.13,0.34-0.14,0.54
			c-0.14,1.71,1.29,3.89,2.03,4.88h4.4C30.83,17.1,29.46,15.75,28.87,13.81z"/>
		<path class="st0" d="M8.31,19.37H5.86c0.76,1.64,2.15,5.1,2.38,8.76l3.65-3.65C11.87,20.9,8.91,19.59,8.31,19.37z"/>
		<path class="st0" d="M27.86,19.39c-2.99,1.4-3.14,4.48-3.12,5.38l5.04,3.9c-0.52-1.87-0.88-4.41,0.03-6.64
			c0.43-1.07,1.12-1.96,2.04-2.67h-3.94L27.86,19.39z"/>
		<path class="st0" d="M31.7,6.73c-1.7,2.48-2.26,4.74-1.66,6.72c0.81,2.67,3.51,4.13,4.36,4.53h2.92c-0.17-4.63-2.02-8.83-4.97-12
			l-0.43,0.43L31.7,6.73z"/>
		<path class="st0" d="M19.41,30.32l-0.04,0.32v2.5c1.57-1.78,4.75-4.16,9.77-3.22l-5.44-4.21C20.07,25.99,19.43,30.14,19.41,30.32z
			"/>
		<path class="st0" d="M21.39,11.82c1.6,0.5,3.48-0.54,4.06-0.9l3.35-3.35c-2.72,0.51-6.93,0.91-9.43-0.76V9.6l0.01,0.02
			C19.82,10.8,20.5,11.54,21.39,11.82z"/>
		<path class="st0" d="M12.63,25.69l-3.14,3.14c1.81,0.22,4.76,1.24,8.49,4.75v-4.14C16.58,25.59,13.16,25.65,12.63,25.69z"/>
		<path class="st1" d="M37.31,17.98h-2.92c-0.84-0.4-3.55-1.86-4.36-4.53c-0.6-1.98-0.04-4.24,1.66-6.72l0.22-0.32l0.43-0.43
			C32.03,5.64,31.7,5.32,31.37,5l-0.96,0.96c-2.86,0.76-8.91,1.71-11.04-0.77V0.04C19.13,0.03,18.91,0,18.67,0
			c-0.23,0-0.46,0.03-0.69,0.03v4.94c-1.49,0.51-6.55,1.99-11.31,0.72L5.98,5C5.64,5.32,5.32,5.64,5,5.98l0.52,0.52
			c0.2,0.54,2.42,6.88-0.97,11.48H0.03C0.03,18.21,0,18.44,0,18.67c0,0.23,0.03,0.46,0.03,0.69h4.47c0.63,1.28,2.61,5.66,2.56,9.94
			L5,31.37c0.31,0.34,0.64,0.66,0.98,0.98l2.33-2.33c1.2-0.08,4.71,0.23,9.67,5.26v2.04c0.23,0.01,0.46,0.03,0.69,0.03
			c0.23,0,0.46-0.03,0.69-0.03v-2.19c0.73-1.21,4.27-6.22,11.75-3.44l0.57,0.21l0.09,0.07c0.33-0.32,0.64-0.67,0.94-1.02l-1.2-0.93
			c-0.6-1.52-1.66-4.88-0.58-7.53c0.58-1.43,1.75-2.47,3.44-3.12h2.93c0.01-0.23,0.03-0.46,0.03-0.69
			C37.35,18.44,37.32,18.21,37.31,17.98z M7.28,8.26l4.3,4.3c0.22,1.17,0.24,3.77-2.96,5.43h-2.6C8.09,14.6,7.8,10.69,7.28,8.26z
			 M8.24,28.13C8.01,24.47,6.62,21,5.86,19.37h2.45c0.6,0.22,3.57,1.54,3.58,5.11L8.24,28.13z M17.98,33.59
			c-3.74-3.51-6.69-4.53-8.49-4.75l3.14-3.14c0.53-0.04,3.95-0.1,5.35,3.75V33.59z M17.98,10.09c-0.67,0.79-2.36,2.08-5.78,1.14
			L8.23,7.25c4.13,0.57,8.04-0.44,9.76-0.99V10.09z M19.36,6.81c2.51,1.67,6.71,1.28,9.43,0.76l-3.35,3.35
			c-0.58,0.36-2.46,1.39-4.06,0.9c-0.89-0.28-1.56-1.01-2.01-2.2L19.36,9.6V6.81z M19.36,33.14v-2.5l0.04-0.32
			c0.02-0.19,0.66-4.33,4.28-4.62l5.44,4.21C24.11,28.98,20.94,31.36,19.36,33.14z M29.8,22.03c-0.91,2.23-0.55,4.77-0.03,6.64
			l-5.04-3.9c-0.02-0.9,0.13-3.98,3.12-5.38l0.05-0.02h3.94C30.93,20.08,30.24,20.96,29.8,22.03z M27.64,17.98
			c-0.73-0.99-2.17-3.16-2.03-4.88c0.02-0.2,0.08-0.36,0.14-0.54l3.28-3.28c-0.53,1.59-0.6,3.11-0.17,4.52
			c0.59,1.94,1.95,3.29,3.16,4.17H27.64z"/>
		<g>
			
				<rect x="14.62" y="14.63" transform="matrix(0.7071 -0.7071 0.7071 0.7071 -7.7355 18.6741)" class="st0" width="8.1" height="8.1"/>
			<polygon class="st2" points="18.67,12.95 18.67,24.4 24.4,18.67 			"/>
		</g>
	</g>
	<g>
		<g>
			<g>
				<path class="st0" d="M141.88,30.44c-0.55,0-1.02-0.19-1.39-0.58c-0.38-0.39-0.56-0.85-0.56-1.38V11.27
					c0-0.15-0.09-0.23-0.26-0.23h-5.43c-0.44,0-0.82-0.16-1.14-0.48c-0.32-0.32-0.48-0.71-0.48-1.18c0-0.46,0.16-0.86,0.48-1.18
					c0.32-0.32,0.7-0.48,1.14-0.48h15.34c0.46,0,0.86,0.16,1.18,0.48c0.32,0.32,0.48,0.71,0.48,1.18c0,0.46-0.16,0.86-0.48,1.18
					c-0.32,0.32-0.71,0.48-1.18,0.48h-5.47c-0.15,0-0.23,0.08-0.23,0.23v17.22c0,0.53-0.19,0.99-0.58,1.38
					c-0.39,0.39-0.84,0.58-1.38,0.58H141.88z"/>
				<path class="st0" d="M167.44,17.55c-1.26-1.06-2.88-1.73-4.64-1.74c-0.01,0-6.67,0-6.67,0l0-4.74c0,0,9.97,0,10.02,0
					c0.92,0,1.67-0.75,1.67-1.67s-0.75-1.67-1.67-1.67c-0.02,0-13.35,0-13.35,0l-0.01,11.47c0,0,10.11,0,10.14,0
					c1.92,0.1,3.46,2.1,3.46,3.89c0,1.74-1.46,3.87-3.31,4.02c-0.06,0.01-10.17,0-10.21,0c-0.87,0.05-1.64,0.78-1.64,1.67
					c0,0.03,0,0.04,0,0.07c0.05,0.88,0.9,1.6,1.79,1.6c0.1,0,9.76-0.01,9.76-0.01c1.71,0,3.28-0.56,4.53-1.48
					c1.69-1.25,2.79-3.74,2.79-5.88C170.08,21.01,169.05,18.91,167.44,17.55z"/>
			</g>
		</g>
		<g>
			<path class="st3" d="M82.66,9.99c0.38,0,0.7-0.31,0.7-0.7c0-0.38-0.31-0.7-0.7-0.7H67.92c-0.1,0-0.19,0.02-0.27,0.05
				C67.4,8.76,67.23,9,67.23,9.29v20.45c0,0.1,0.02,0.19,0.06,0.27c0.11,0.25,0.35,0.43,0.64,0.43h14.74c0.38,0,0.7-0.31,0.7-0.7
				c0-0.38-0.31-0.7-0.7-0.7H68.62v-9.68h13.19c0.35,0,0.64-0.29,0.64-0.64v-0.12c0-0.35-0.29-0.64-0.64-0.64H68.62V9.99H82.66z"/>
			<path class="st3" d="M63.25,8.6H43.79c-0.38,0-0.7,0.31-0.7,0.7c0,0.38,0.31,0.7,0.7,0.7h9.03v19.76c0,0.38,0.31,0.7,0.7,0.7
				c0.38,0,0.7-0.31,0.7-0.7V9.99h9.03c0.38,0,0.7-0.31,0.7-0.7C63.95,8.91,63.63,8.6,63.25,8.6z"/>
			<path class="st3" d="M97.85,8.72c-0.13-0.28-0.42-0.42-0.71-0.39c-0.29-0.03-0.58,0.11-0.71,0.39l-9.66,20.71
				c-0.16,0.35-0.01,0.76,0.34,0.93s0.76,0.01,0.93-0.34l3.15-6.75h11.91l3.15,6.75c0.16,0.35,0.58,0.5,0.93,0.34
				c0.35-0.16,0.5-0.58,0.34-0.93L97.85,8.72z M91.83,21.87l5.31-11.38l5.3,11.38H91.83z"/>
			<path class="st3" d="M128.3,8.06L128.3,8.06c-0.22,0-0.41,0.11-0.54,0.27c-0.04,0.04-0.08,0.08-0.11,0.13l-7.73,13.39l-7.68-13.3
				c-0.08-0.29-0.34-0.5-0.65-0.5h-0.01c-0.38,0-0.69,0.31-0.69,0.69v21c0,0.38,0.31,0.69,0.69,0.69h0.01
				c0.38,0,0.69-0.31,0.69-0.69V11.4l7.03,12.18c0.01,0.02,0.03,0.03,0.04,0.05c0.02,0.03,0.04,0.05,0.06,0.07
				c0.04,0.04,0.08,0.08,0.13,0.12c0.01,0.01,0.02,0.02,0.03,0.02c0.02,0.01,0.05,0.01,0.07,0.02c0.05,0.02,0.09,0.04,0.15,0.05
				c0.04,0.01,0.09,0.01,0.13,0.01s0.09,0,0.13-0.01c0.05-0.01,0.1-0.03,0.15-0.05c0.02-0.01,0.05-0.01,0.07-0.02
				c0.01-0.01,0.02-0.02,0.03-0.02c0.05-0.03,0.09-0.07,0.13-0.12c0.02-0.02,0.04-0.04,0.06-0.07c0.01-0.02,0.03-0.03,0.04-0.05
				l7.08-12.26v18.42c0,0.38,0.31,0.69,0.69,0.69h0.01c0.38,0,0.69-0.31,0.69-0.69v-21C129,8.37,128.69,8.06,128.3,8.06z"/>
		</g>
	</g>
</g>
</svg>
