<?xml version="1.0" encoding="UTF-8"?>
<svg width="206px" height="193px" viewBox="0 0 206 193" version="1.1" xmlns="http://www.w3.org/2000/svg" xmlns:xlink="http://www.w3.org/1999/xlink">
    <!-- Generator: Sketch 53.2 (72643) - https://sketchapp.com -->
    <title>Group 67</title>
    <desc>Created with Sketch.</desc>
    <defs>
        <polygon id="path-1" points="0.0616085502 0.208676482 191.741928 0.208676482 191.741928 167.063241 0.0616085502 167.063241"></polygon>
        <polygon id="path-3" points="0.38222193 0.191071295 0.573332895 0.191071295 0.573332895 0.382142591 0.38222193 0.382142591"></polygon>
    </defs>
    <g id="light" stroke="none" stroke-width="1" fill="none" fill-rule="evenodd">
        <g id="index-1440_one-page" transform="translate(-312.000000, -897.000000)">
            <g id="Group-9" transform="translate(140.000000, 817.000000)">
                <g id="Group-67" transform="translate(172.000000, 80.000000)">
                    <path d="M68.9341859,60.7141002 C67.7253717,61.133284 66.4514647,61.479616 65.1025093,61.479616 C63.7539368,61.479616 62.5014721,61.133284 61.2930409,60.7141002 C56.6990112,59.1174638 53.3451933,54.8825251 53.3451933,49.7699322 C53.3451933,44.6645864 56.6817807,40.4285034 61.2536022,38.81928 C62.475052,38.3959006 63.749342,38.042703 65.1025093,38.042703 C66.4514647,38.042703 67.6859331,38.3959006 68.8943643,38.7998275 C73.5052416,40.3937939 76.895052,44.6447524 76.895052,49.7699322 C76.895052,54.8825251 73.5274498,59.1132682 68.9341859,60.7141002 M69.673948,33.7204184 C68.2200781,33.3012346 66.7007323,33.0216516 65.1025093,33.0216516 C64.0778699,33.0216516 63.0792677,33.1398927 62.0982788,33.314203 C54.269513,34.7342405 48.3008736,41.5586595 48.3008736,49.7699322 C48.3008736,57.9880706 54.2909554,64.8121081 62.1465242,66.2187958 C63.1144944,66.3824263 64.0954833,66.5071516 65.1025093,66.5071516 C66.7225576,66.5071516 68.2376914,66.2187958 69.7133866,65.7935093 C76.7327026,63.7872247 81.9213755,57.3926694 81.9213755,49.7699322 C81.9213755,42.1212583 76.7150892,35.7137346 69.673948,33.7204184" id="Fill-1" fill="#2F2725"></path>
                    <polygon id="Fill-3" fill="#2F2725" points="111.929832 97.664446 106.657687 92.2707445 134.104315 65.525369 139.372248 70.9190706"></polygon>
                    <path d="M197.887429,8.64281462 L177.503767,28.5031249" id="Fill-5" fill="#2F2725"></path>
                    <path d="M177.503806,32.2828354 C176.518222,32.2828354 175.537616,31.8968354 174.793259,31.1374223 C173.335177,29.6460587 173.38304,27.2728453 174.858735,25.8226753 L195.242397,5.94062391 C196.739917,4.49693814 199.121553,4.51677213 200.601843,6.00622866 C202.055713,7.49835514 202.038099,9.87080573 200.540579,11.3408097 L180.148493,31.1965429 C179.408731,31.9143808 178.471393,32.2828354 177.503806,32.2828354" id="Fill-7" fill="#2F2725"></path>
                    <path d="M17.184229,84.6286692 C10.6994409,84.6286692 5.43189071,89.8781929 5.43189071,96.358187 C5.43189071,102.816058 10.6994409,108.065582 17.184229,108.065582 C23.6870134,108.065582 28.9767717,102.816058 28.9767717,96.358187 C28.9767717,89.8781929 23.6870134,84.6286692 17.184229,84.6286692 M17.184229,113.092736 C7.93184238,113.092736 0.382976208,105.594725 0.382976208,96.358187 C0.382976208,87.1258451 7.93184238,79.6011336 17.184229,79.6011336 C26.4588238,79.6011336 34.0034781,87.1258451 34.0034781,96.358187 C34.0034781,105.594725 26.4588238,113.092736 17.184229,113.092736" id="Fill-9" fill="#2F2725"></path>
                    <path d="M95.3342729,117.893287 C88.8533138,117.893287 83.5639383,123.166841 83.5639383,129.620516 C83.5639383,136.080676 88.8533138,141.349653 95.3342729,141.349653 C101.832462,141.349653 107.108819,136.080676 107.108819,129.620516 C107.108819,123.166841 101.832462,117.893287 95.3342729,117.893287 M95.3342729,146.376807 C86.0642729,146.376807 78.5150238,138.858961 78.5150238,129.620516 C78.5150238,120.390463 86.0642729,112.865752 95.3342729,112.865752 C104.60389,112.865752 112.14931,120.390463 112.14931,129.620516 C112.14931,138.858961 104.60389,146.376807 95.3342729,146.376807" id="Fill-11" fill="#2F2725"></path>
                    <polygon id="Fill-13" fill="#2F2725" points="111.929832 97.664446 106.657687 92.2707445 134.104315 65.525369 139.372248 70.9190706"></polygon>
                    <path d="M197.887429,8.64281462 L177.503767,28.5031249" id="Fill-15" fill="#2F2725"></path>
                    <path d="M177.503806,32.2828354 C176.518222,32.2828354 175.537616,31.8968354 174.793259,31.1374223 C173.335177,29.6460587 173.38304,27.2728453 174.858735,25.8226753 L195.242397,5.94062391 C196.739917,4.49693814 199.121553,4.51677213 200.601843,6.00622866 C202.055713,7.49835514 202.038099,9.87080573 200.540579,11.3408097 L180.148493,31.1965429 C179.408731,31.9143808 178.471393,32.2828354 177.503806,32.2828354" id="Fill-17" fill="#2F2725"></path>
                    <path d="M57.6977283,64.8516617 C57.7547803,64.8840826 57.8114494,64.8909482 57.8596948,64.9104008" id="Fill-19" fill="#2F2725"></path>
                    <path d="M21.7606836,80.305965 C29.3183565,38.9826053 65.6455758,7.51788399 109.302643,7.51788399 L109.302643,3.81422925e-05 C61.6082822,3.81422925e-05 22.0011446,34.6099729 14.1938212,79.9020381 C15.1617914,79.7258208 16.1596279,79.6010955 17.1842673,79.6010955 C18.7870851,79.6010955 20.302219,79.8894512 21.7606836,80.305965" id="Fill-21" fill="#2F2725"></path>
                    <path d="M20.9763903,85.3877771 C19.772171,84.9754589 18.5373197,84.6287455 17.1841524,84.6287455 C15.831368,84.6287455 14.5616729,84.9754589 13.3398401,85.4072296 C8.76380669,87.0080617 5.43181413,91.2521545 5.43181413,96.3582632 C5.43181413,101.470093 8.78601487,105.706176 13.3792788,107.30205 C14.5923048,107.721234 15.8397918,108.065658 17.1841524,108.065658 C18.5373197,108.065658 19.8073978,107.721234 21.015829,107.30205 C25.6098587,105.692445 28.9766952,101.470093 28.9766952,96.3582632 C28.9766952,91.2323206 25.5918625,86.9821249 20.9763903,85.3877771" id="Fill-23" fill="#C71532"></path>
                    <path d="M21.015829,107.299838 C19.8073978,107.720928 18.5373197,108.065735 17.1841524,108.065735 C15.8397918,108.065735 14.5923048,107.720928 13.3792788,107.299838 C8.78601487,105.705871 5.43181413,101.47017 5.43181413,96.3579581 C5.43181413,91.2522308 8.76380669,87.0081379 13.3398401,85.4073059 C14.5616729,84.9755352 15.831368,84.6288217 17.1841524,84.6288217 C18.5373197,84.6288217 19.772171,84.9755352 20.9763903,85.3878534 C25.5918625,86.9818198 28.9766952,91.2323968 28.9766952,96.3579581 C28.9766952,101.47017 25.6098587,105.692521 21.015829,107.299838 M21.7605688,80.3061557 C20.302487,79.8896419 18.7873532,79.6012862 17.1841524,79.6012862 C16.159513,79.6012862 15.1616766,79.7260115 14.1940892,79.9022289 C6.35536803,81.3226478 0.382899628,88.146304 0.382899628,96.3579581 C0.382899628,104.575715 6.37298141,111.39365 14.2289331,112.806822 C15.1965204,112.968545 16.1817212,113.092889 17.1841524,113.092889 C18.8049665,113.092889 20.3239294,112.806822 21.7996245,112.375051 C28.8147286,110.373343 34.0034015,103.980314 34.0034015,96.3579581 C34.0034015,88.7092842 28.80171,82.3013791 21.7605688,80.3061557" id="Fill-25" fill="#2F2725"></path>
                    <path d="M80.3013271,43.3228549 C80.3059219,43.3579458 80.3189405,43.3754913 80.3407658,43.3949439 C80.3978178,43.3579458 80.4502751,43.3163708 80.5161338,43.2992067 C80.5027323,43.2641158 80.5027323,43.2316949 80.485119,43.2141494 C80.4196431,43.2465704 80.3583792,43.2992067 80.3013271,43.3228549" id="Fill-27" fill="#2F2725"></path>
                    <path d="M57.8160825,64.6903579 C57.7766439,64.7487156 57.7372052,64.7990634 57.6977665,64.8516998 C57.7548186,64.8841208 57.8114877,64.8906049 57.8597331,64.9104389 C57.9037665,64.858184 57.9298037,64.8120318 57.9604357,64.7487156 C57.920997,64.7273559 57.8597331,64.7075219 57.8160825,64.6903579" id="Fill-29" fill="#2F2725"></path>
                    <path d="M81.7596387,49.7697796 C81.7596387,57.3925168 76.566371,63.7870721 69.5516498,65.7937381 C68.0759546,66.2186433 66.556226,66.506999 64.9361777,66.506999 C63.9329807,66.506999 62.9481628,66.3826551 61.9847874,66.2186433 C60.544319,65.9573686 59.2524156,65.3421334 57.9605123,64.7486393 C57.9298803,64.812337 57.9034602,64.8584891 57.8598097,64.9103626 C60.0538245,65.9764397 62.4967242,66.6309615 65.102739,66.6309615 C74.3681442,66.6309615 81.8951851,59.1329496 81.8951851,49.8945049 C81.8951851,47.5476097 81.3828654,45.3181927 80.5159807,43.2989397 C80.4505048,43.3164852 80.3976647,43.3576789 80.3406126,43.3950583 C81.1814602,45.3769318 81.7596387,47.4820049 81.7596387,49.7697796" id="Fill-31" fill="#2F2725"></path>
                    <path d="M75.765077,37.2707411 C75.7869022,37.2577727 75.8045156,37.2509071 75.8217461,37.2245889 C75.8569729,37.2184862 75.8918167,37.1990336 75.9094301,37.1853024" id="Fill-33" fill="#2F2725"></path>
                    <path d="M80.3013271,43.3228549 C80.3583792,43.2992067 80.4196431,43.2465704 80.485119,43.2141494 C80.5027323,43.2316949 80.5027323,43.2641158 80.5161338,43.2992067 C89.0762379,38.6229617 98.8589405,35.9163846 109.302911,35.9163846 L109.302911,28.3985387 C97.1079405,28.3985387 85.7005948,31.6871672 75.7869405,37.3097225 C77.7221152,38.9502225 79.267881,40.9648984 80.3013271,43.3228549" id="Fill-35" fill="#2F2725"></path>
                    <path d="M84.9342595,116.564639 C80.2533115,111.027141 77.3455717,104.000186 77.3455717,96.2141998 C77.3455717,78.6878164 91.6820996,64.4020022 109.302758,64.4020022 C111.373862,64.4020022 113.077382,62.7100101 113.077382,60.6423164 C113.077382,58.5570773 111.373862,56.8643223 109.302758,56.8643223 C87.5004528,56.8643223 69.7748803,74.5158125 69.7748803,96.2141998 C69.7748803,106.392852 73.7765643,115.566073 80.1349955,122.560607 C81.2515309,120.200362 82.9071888,118.17882 84.9342595,116.564639" id="Fill-37" fill="#2F2725"></path>
                    <g id="Group-41" transform="translate(14.167286, 25.411158)">
                        <mask id="mask-2" fill="white">
                            <use xlink:href="#path-1"></use>
                        </mask>
                        <g id="Clip-40"></g>
                        <path d="M163.520311,2.86261719 L160.875241,0.208676482 L135.070486,25.3661883 L119.937144,40.1142872 L122.026244,42.2712338 C121.728348,42.0770895 121.452278,41.8325974 121.124133,41.7475401 L121.106519,41.7475401 C120.795222,41.6453188 120.467077,41.6060322 120.138932,41.6060322 C120.121319,41.6060322 120.138932,41.5861982 120.138932,41.5861982 L120.121319,41.5861982 C119.153348,41.6235777 118.172742,41.9332931 117.428386,42.6724907 L92.4905156,66.9840065 C91.7285454,67.71672 91.3433483,68.6981211 91.3433483,69.6776152 C91.3433483,70.6201113 91.6891067,71.5793899 92.4250398,72.2926508 C93.8831216,73.8103326 96.2651401,73.8301666 97.7626606,72.3773267 L119.937144,50.776965 C124.548404,56.4193543 127.070564,63.4268563 127.070564,70.8028128 C127.070564,87.4481093 114.148467,100.980995 97.7975045,102.359457 C97.8721699,102.974692 97.9816792,103.574671 97.9816792,104.209358 C97.9816792,106.257218 97.5788688,108.184929 96.8999877,109.995163 C117.843832,109.054955 134.615218,91.913046 134.615218,70.8028128 C134.615218,61.1409887 131.007155,52.1313978 124.631493,44.9404314 L125.205077,45.5079887 L140.176452,30.927716 C141.244742,32.125384 142.256363,33.3425045 143.215144,34.5962417 C144.178902,35.8656172 145.203542,37.0888405 146.044006,38.4081824 C147.296471,40.3366567 148.303497,42.3890935 149.305928,44.4499215 C149.976386,45.7955816 150.729549,47.0889868 151.294326,48.4823247 C152.218263,50.8029018 152.844304,53.2237931 153.470728,55.6427773 C153.803467,56.8900302 154.267542,58.0945638 154.517575,59.3616508 C155.230917,63.0999769 155.642534,66.9180204 155.642534,70.8028128 C155.642534,104.067088 128.489207,131.09853 95.1355862,131.09853 C61.7639691,131.09853 34.5846048,104.067088 34.5846048,70.8028128 C34.5846048,59.3029117 38.0303186,48.6528208 43.6922554,39.4994334 C43.6443929,39.4795994 43.5873409,39.4727338 43.5302888,39.4403128 C43.5697275,39.3880579 43.6091662,39.3377101 43.6489877,39.2793524 C41.2930063,38.1667417 39.2391327,36.6441014 37.6409097,34.6156943 C30.9543335,45.1086389 27.0399506,57.5052654 27.0399506,70.8028128 C27.0399506,108.217732 57.5999357,138.642694 95.1355862,138.642694 C132.671237,138.642694 163.213609,108.217732 163.213609,70.8028128 C163.213609,53.9092101 157.03514,37.9504749 145.772913,25.4844294 L160.770326,10.87822 C175.890649,27.2614789 184.175066,48.4106172 184.175066,70.8028128 C184.175066,119.718396 144.218341,159.525599 95.1355862,159.525599 C51.5700323,159.525599 15.2822517,128.176068 7.6323,86.9637022 C6.15660483,87.3958543 4.63764201,87.6815401 3.01682788,87.6815401 C2.01439665,87.6815401 1.02919591,87.5575777 0.0616085502,87.3958543 C7.97844126,132.570441 47.5415454,167.063279 95.1355862,167.063279 C148.408794,167.063279 191.741928,123.888111 191.741928,70.8028128 C191.741928,45.1608939 181.714553,21.030554 163.520311,2.86261719" id="Fill-39" fill="#2F2725" mask="url(#mask-2)"></path>
                    </g>
                    <path d="M57.8160825,64.6903579 C57.8597331,64.7075219 57.920997,64.7273559 57.9604357,64.7487156" id="Fill-42" fill="#2F2725"></path>
                    <path d="M75.7869405,37.3098751 C75.7869405,37.288134 75.7651152,37.288134 75.7651152,37.2705885" id="Fill-44" fill="#2F2725"></path>
                    <g id="Group-48" transform="translate(0.000000, 192.092976)">
                        <mask id="mask-4" fill="white">
                            <use xlink:href="#path-3"></use>
                        </mask>
                        <g id="Clip-47"></g>
                        <path d="" id="Fill-46" fill="#2F2725" mask="url(#mask-4)"></path>
                    </g>
                    <path d="M95.2729323,117.92567 C96.6215048,117.92567 97.856739,118.270476 99.0647874,118.682794 C100.956694,119.338842 102.642219,120.446875 103.973561,121.875304 C101.876036,119.446022 98.8239435,117.893249 95.3341963,117.893249 C93.7229546,117.893249 92.2296461,118.283445 90.8634602,118.922709 C91.0518468,118.848713 91.2356387,118.77014 91.4240253,118.704154 C92.6454751,118.270476 93.9197651,117.92567 95.2729323,117.92567" id="Fill-49" fill="#2F2725"></path>
                    <path d="M106.916412,131.496011 C107.034345,130.88993 107.108628,130.267829 107.108628,129.620555 C107.108628,129.41306 107.078379,129.215102 107.03894,129.020576 C107.051959,129.231885 107.06536,129.441286 107.06536,129.655264 C107.06536,130.283086 107.012137,130.896033 106.916412,131.496011" id="Fill-51" fill="#2F2725"></path>
                    <path d="M106.859399,131.781697 C106.850592,131.805345 106.845997,131.829756 106.842168,131.853404 C106.845997,131.829756 106.850592,131.805345 106.859399,131.781697" id="Fill-53" fill="#2F2725"></path>
                    <path d="M85.5826617,136.176642 C85.5780669,136.172065 85.5780669,136.169777 85.573855,136.16787 C85.5780669,136.169777 85.5780669,136.172065 85.5826617,136.176642" id="Fill-55" fill="#2F2725"></path>
                    <path d="M99.1043792,140.597258 C98.0314944,140.968001 96.9057695,141.268944 95.7237584,141.334167 C98.4209033,141.244914 100.833937,140.208969 102.738862,138.571139 C101.661766,139.436588 100.435721,140.130396 99.1043792,140.597258" id="Fill-57" fill="#2F2725"></path>
                    <path d="M86.0291227,136.769603 C87.973487,139.273263 90.8984572,140.980893 94.2262379,141.292897 C93.2716691,141.17313 92.356539,140.906897 91.4632342,140.597182 C89.3002342,139.846541 87.4213457,138.507747 86.0291227,136.769603" id="Fill-59" fill="#2F2725"></path>
                    <path d="M95.2508773,141.41747 C94.8963123,141.41747 94.5459591,141.397636 94.2044126,141.347288 C91.1913755,140.920094 87.9516617,139.327654 86.0072974,136.826663 C85.8537546,136.632138 85.7048067,136.434179 85.5604535,136.230881 C85.5604535,136.230881 85.5604535,136.224397 85.5562416,136.222108 C84.2643383,134.374495 83.4935613,132.143934 83.4935613,129.709693 C83.4935613,124.815656 86.5632677,120.721843 90.846,118.979503 C89.8079591,119.315537 93.337145,117.803958 95.3167361,117.947754 C99.1438178,118.228863 101.770892,119.620675 103.951506,121.93248 C105.729309,123.834254 106.868052,126.311596 107.017,129.076912 C107.060651,129.271438 107.091283,129.46749 107.091283,129.677272 C107.091283,130.32264 107.017,130.944359 106.894472,131.55044 C106.876859,131.648847 106.855033,131.742677 106.83742,131.838796 C106.833208,131.862063 106.828613,131.886474 106.824401,131.908215 C106.289874,134.612885 104.796948,136.952914 102.716654,138.628124 C100.8079,140.104612 98.5874647,141.13598 95.7019331,141.391152 C95.553368,141.404501 95.4040372,141.41747 95.2508773,141.41747 M111.947216,127.797239 C111.014472,119.444076 103.947677,112.892375 95.3167361,112.892375 C91.380145,112.892375 87.7893123,114.323092 84.9167993,116.591033 C82.8893457,118.207122 81.2340706,120.226756 80.1175353,122.58662 C79.1147212,124.743567 78.497487,127.118687 78.497487,129.648665 C78.497487,138.884822 86.0421413,146.403049 95.3167361,146.403049 C102.537457,146.403049 108.668063,141.814531 111.049699,135.43447 C111.723985,133.622329 112.131773,131.694237 112.131773,129.648665 C112.131773,129.013596 112.021881,128.412092 111.947216,127.797239" id="Fill-61" fill="#2F2725"></path>
                    <path d="M99.1139134,118.589079 C97.8924636,118.174472 96.6488056,117.824326 95.2810881,117.824326 C93.9137535,117.824326 92.630274,118.174472 91.3954227,118.611201 C86.770761,120.229197 83.4023929,124.519061 83.4023929,129.677043 C83.4023929,134.846468 86.7925862,139.127178 91.4352442,140.73869 C92.6612888,141.161688 93.9225602,141.512597 95.2810881,141.512597 C96.6488056,141.512597 97.9368799,141.161688 99.1583297,140.73869 C103.796393,139.114209 107.2042,134.846468 107.2042,129.677043 C107.2042,124.496557 103.77878,120.202498 99.1139134,118.589079" id="Fill-63" fill="#C71532"></path>
                    <path d="M68.8986911,38.7647747 C67.6818361,38.350168 66.44239,38.0015474 65.080416,38.0015474 C63.7188249,38.0015474 62.4399401,38.350168 61.2096836,38.7865158 C56.6072301,40.3980277 53.2534123,44.6684387 53.2534123,49.806587 C53.2534123,54.9500751 56.6248435,59.2136206 61.2491223,60.8190296 C62.470955,61.2397391 63.7272487,61.5887411 65.080416,61.5887411 C66.44239,61.5887411 67.7212747,61.2397391 68.9381297,60.8190296 C73.5624086,59.2006522 76.9514532,54.9500751 76.9514532,49.806587 C76.9514532,44.6470791 73.5405833,40.3720909 68.8986911,38.7647747" id="Fill-65" fill="#C71532"></path>
                </g>
            </g>
        </g>
    </g>
</svg>