<?xml version="1.0" encoding="UTF-8"?>
<svg width="200px" height="199px" viewBox="0 0 200 199" version="1.1" xmlns="http://www.w3.org/2000/svg" xmlns:xlink="http://www.w3.org/1999/xlink">
    <!-- Generator: Sketch 53.2 (72643) - https://sketchapp.com -->
    <title>threatVision</title>
    <desc>Created with Sketch.</desc>
    <defs>
        <polygon id="path-1" points="0.0008 0.584158416 199.41 0.584158416 199.41 198.019802 0.0008 198.019802"></polygon>
    </defs>
    <g id="light" stroke="none" stroke-width="1" fill="none" fill-rule="evenodd">
        <g id="index-1440_one-page" transform="translate(-925.000000, -891.000000)">
            <g id="Group-9-Copy" transform="translate(750.000000, 816.000000)">
                <g id="threatVision" transform="translate(175.000000, 74.000000)">
                    <g id="Group-3" transform="translate(0.000000, 1.396040)">
                        <mask id="mask-2" fill="white">
                            <use xlink:href="#path-1"></use>
                        </mask>
                        <g id="Clip-2"></g>
                        <path d="M199.4108,99.3019802 C199.4108,153.822772 154.7708,198.020792 99.7048,198.020792 C44.6388,198.020792 0.0008,153.822772 0.0008,99.3019802 C0.0008,44.7811881 44.6388,0.583168317 99.7048,0.583168317 C154.7708,0.583168317 199.4108,44.7811881 199.4108,99.3019802" id="Fill-1" fill="#FAC82C" mask="url(#mask-2)"></path>
                    </g>
                    <path d="M144.2466,54.8613861 L55.1626,54.8613861 C42.8106,54.8613861 32.7046,64.8673267 32.7046,77.0970297 L32.7046,133.615842 C32.7046,145.845545 42.8106,155.851485 55.1626,155.851485 L144.2466,155.851485 C156.5986,155.851485 166.7046,145.845545 166.7046,133.615842 L166.7046,77.0970297 C166.7046,64.8673267 156.5986,54.8613861 144.2466,54.8613861 M144.2466,64.6673267 C151.1706,64.6673267 156.8006,70.2435644 156.8006,77.0970297 L156.8006,133.615842 C156.8006,140.469307 151.1706,146.045545 144.2466,146.045545 L55.1626,146.045545 C48.2406,146.045545 42.6086,140.469307 42.6086,133.615842 L42.6086,77.0970297 C42.6086,70.2435644 48.2406,64.6673267 55.1626,64.6673267 L144.2466,64.6673267" id="Fill-4" fill="#FEFEFE"></path>
                    <path d="M84.026,38.1263366 C83.264,38.1263366 82.492,38.3184158 81.79,38.720396 C79.646,39.9461386 78.904,42.6847525 80.142,44.8055446 L88.312,58.8154455 C89.144,60.2411881 90.662,61.0392079 92.222,61.0392079 C92.984,61.0392079 93.754,60.8491089 94.458,60.4451485 C96.602,59.2213861 97.342,56.4827723 96.106,54.36 L87.936,40.350099 C87.106,38.9243564 85.584,38.1263366 84.026,38.1263366" id="Fill-6" fill="#FEFEFE"></path>
                    <path d="M115.3834,38.1263366 C113.8254,38.1263366 112.3054,38.9243564 111.4734,40.350099 L103.3054,54.36 C102.0674,56.4827723 102.8074,59.2213861 104.9514,60.4451485 C105.6554,60.8491089 106.4254,61.0392079 107.1874,61.0392079 C108.7474,61.0392079 110.2674,60.2411881 111.0974,58.8154455 L119.2674,44.8055446 C120.5074,42.6847525 119.7634,39.9461386 117.6214,38.720396 C116.9174,38.3184158 116.1454,38.1263366 115.3834,38.1263366" id="Fill-8" fill="#FEFEFE"></path>
                    <path d="M99.7056,74.9283168 C77.9956,74.9283168 59.2936,91.379802 50.8316,100.193663 C47.9636,103.181782 47.9636,108.05901 50.8316,111.047129 C59.2936,119.86099 77.9956,136.314455 99.7056,136.314455 C121.4136,136.314455 140.1156,119.86099 148.5776,111.047129 C151.4456,108.05901 151.4456,103.181782 148.5776,100.193663 C140.1156,91.379802 121.4136,74.9283168 99.7056,74.9283168 M99.7056,83.3916832 C118.2476,83.3916832 135.1816,98.6154455 141.9916,105.621386 C135.1816,112.627327 118.2476,127.851089 99.7056,127.851089 C81.1616,127.851089 64.2276,112.627327 57.4196,105.621386 C64.2276,98.6154455 81.1616,83.3916832 99.7056,83.3916832" id="Fill-10" fill="#FEFEFE"></path>
                    <path d="M125.0552,105.621386 C125.0552,119.482772 113.7052,130.720396 99.7052,130.720396 C85.7032,130.720396 74.3532,119.482772 74.3532,105.621386 C74.3532,91.7580198 85.7032,80.520396 99.7052,80.520396 C113.7052,80.520396 125.0552,91.7580198 125.0552,105.621386" id="Fill-12" fill="#FEFEFE"></path>
                    <path d="M117.0552,105.702574 C117.0552,115.189703 109.2872,122.880792 99.7052,122.880792 C90.1232,122.880792 82.3532,115.189703 82.3532,105.702574 C82.3532,96.2154455 90.1232,88.5243564 99.7052,88.5243564 C109.2872,88.5243564 117.0552,96.2154455 117.0552,105.702574" id="Fill-14" fill="#FAC82C"></path>
                    <path d="M108.7858,105.621386 C108.7858,110.585743 104.7198,114.611485 99.7058,114.611485 C94.6898,114.611485 90.6238,110.585743 90.6238,105.621386 C90.6238,100.65505 94.6898,96.6293069 99.7058,96.6293069 C104.7198,96.6293069 108.7858,100.65505 108.7858,105.621386" id="Fill-16" fill="#FEFEFE"></path>
                </g>
            </g>
        </g>
    </g>
</svg>