<?xml version="1.0" encoding="utf-8"?>
<!-- Generator: Adobe Illustrator 23.0.1, SVG Export Plug-In . SVG Version: 6.00 Build 0)  -->
<svg version="1.1" id="圖層_1" xmlns="http://www.w3.org/2000/svg" xmlns:xlink="http://www.w3.org/1999/xlink" x="0px" y="0px"
	 viewBox="0 0 170.08 55.05" style="enable-background:new 0 0 170.08 55.05;" xml:space="preserve">
<style type="text/css">
	.st0{fill:#D93751;}
	.st1{fill:#FFFFFF;}
	.st2{fill:#762D3B;}
	.st3{fill:#4C433F;}
</style>
<g>
	<g>
		<path class="st0" d="M30.41,5.96L31.37,5c-3.17-2.95-7.37-4.8-12-4.97v5.15C21.5,7.67,27.54,6.72,30.41,5.96z"/>
		<path class="st0" d="M8.31,30.01l-2.33,2.33c3.17,2.95,7.37,4.8,12,4.97v-2.04C13.02,30.24,9.51,29.93,8.31,30.01z"/>
		<path class="st0" d="M31.12,31.69c-7.48-2.78-11.02,2.23-11.75,3.44v2.19c4.83-0.18,9.2-2.17,12.41-5.34l-0.09-0.07L31.12,31.69z"
			/>
		<path class="st0" d="M30.93,22.49c-1.08,2.66-0.02,6.01,0.58,7.53l1.2,0.93c2.73-3.12,4.43-7.15,4.59-11.59h-2.93
			C32.69,20.01,31.52,21.05,30.93,22.49z"/>
		<path class="st0" d="M17.98,4.97V0.03C13.35,0.21,9.16,2.06,5.98,5l0.69,0.69C11.43,6.96,16.49,5.48,17.98,4.97z"/>
		<path class="st0" d="M5.53,6.5L5,5.98c-2.95,3.17-4.8,7.37-4.97,12h4.52C7.95,13.38,5.73,7.05,5.53,6.5z"/>
		<path class="st0" d="M4.51,19.37H0.03C0.21,24,2.06,28.19,5,31.37l2.06-2.06C7.12,25.02,5.14,20.64,4.51,19.37z"/>
		<path class="st0" d="M11.58,12.55l-4.3-4.3c0.52,2.43,0.81,6.34-1.26,9.73h2.6C11.82,16.33,11.8,13.72,11.58,12.55z"/>
		<path class="st0" d="M8.23,7.25l3.98,3.98c3.41,0.94,5.11-0.35,5.78-1.14V6.26C16.27,6.81,12.36,7.82,8.23,7.25z"/>
		<path class="st0" d="M28.87,13.81c-0.43-1.42-0.36-2.93,0.17-4.52l-3.28,3.28c-0.06,0.17-0.13,0.34-0.14,0.54
			c-0.14,1.71,1.29,3.89,2.03,4.88h4.4C30.83,17.1,29.46,15.75,28.87,13.81z"/>
		<path class="st0" d="M8.31,19.37H5.86c0.76,1.64,2.15,5.1,2.38,8.76l3.65-3.65C11.87,20.9,8.91,19.59,8.31,19.37z"/>
		<path class="st0" d="M27.86,19.39c-2.99,1.4-3.14,4.48-3.12,5.38l5.04,3.9c-0.52-1.87-0.88-4.41,0.03-6.64
			c0.43-1.07,1.12-1.96,2.04-2.67h-3.94L27.86,19.39z"/>
		<path class="st0" d="M31.7,6.73c-1.7,2.48-2.26,4.74-1.66,6.72c0.81,2.67,3.51,4.13,4.36,4.53h2.92c-0.17-4.63-2.02-8.83-4.97-12
			l-0.43,0.43L31.7,6.73z"/>
		<path class="st0" d="M19.41,30.32l-0.04,0.32v2.5c1.57-1.78,4.75-4.16,9.77-3.22l-5.44-4.21C20.07,25.99,19.43,30.14,19.41,30.32z
			"/>
		<path class="st0" d="M21.39,11.82c1.6,0.5,3.48-0.54,4.06-0.9l3.35-3.35c-2.72,0.51-6.93,0.91-9.43-0.76V9.6l0.01,0.02
			C19.82,10.8,20.5,11.54,21.39,11.82z"/>
		<path class="st0" d="M12.63,25.69l-3.14,3.14c1.81,0.22,4.76,1.24,8.49,4.75v-4.14C16.58,25.59,13.16,25.65,12.63,25.69z"/>
		<path class="st1" d="M37.31,17.98h-2.92c-0.84-0.4-3.55-1.86-4.36-4.53c-0.6-1.98-0.04-4.24,1.66-6.72l0.22-0.32l0.43-0.43
			C32.03,5.64,31.7,5.32,31.37,5l-0.96,0.96c-2.86,0.76-8.91,1.71-11.04-0.77V0.03C19.13,0.03,18.91,0,18.67,0
			c-0.23,0-0.46,0.03-0.69,0.03v4.94c-1.49,0.51-6.55,1.99-11.31,0.72L5.98,5C5.64,5.32,5.32,5.64,5,5.98L5.53,6.5
			c0.2,0.54,2.42,6.88-0.97,11.48H0.03C0.03,18.21,0,18.44,0,18.67c0,0.23,0.03,0.46,0.03,0.69h4.47c0.63,1.28,2.61,5.66,2.56,9.94
			L5,31.37c0.31,0.34,0.64,0.66,0.98,0.98l2.33-2.33c1.2-0.08,4.71,0.23,9.67,5.26v2.04c0.23,0.01,0.46,0.03,0.69,0.03
			c0.23,0,0.46-0.03,0.69-0.03v-2.19c0.73-1.21,4.27-6.22,11.75-3.44l0.57,0.21l0.09,0.07c0.33-0.32,0.64-0.67,0.94-1.02l-1.2-0.93
			c-0.6-1.52-1.66-4.88-0.58-7.53c0.58-1.43,1.75-2.47,3.44-3.12h2.93c0.01-0.23,0.03-0.46,0.03-0.69
			C37.35,18.44,37.32,18.21,37.31,17.98z M7.28,8.26l4.3,4.3c0.22,1.17,0.24,3.77-2.96,5.43h-2.6C8.09,14.6,7.8,10.69,7.28,8.26z
			 M8.24,28.13C8.01,24.47,6.62,21,5.86,19.37h2.45c0.6,0.22,3.57,1.54,3.58,5.11L8.24,28.13z M17.98,33.59
			c-3.74-3.51-6.69-4.53-8.49-4.75l3.14-3.14c0.53-0.04,3.95-0.1,5.35,3.75V33.59z M17.98,10.09c-0.67,0.79-2.36,2.08-5.78,1.14
			L8.23,7.25c4.13,0.57,8.04-0.44,9.76-0.99V10.09z M19.36,6.81c2.51,1.67,6.71,1.28,9.43,0.76l-3.35,3.35
			c-0.58,0.36-2.46,1.39-4.06,0.9c-0.89-0.28-1.56-1.01-2.01-2.2L19.36,9.6V6.81z M19.36,33.14v-2.5l0.04-0.32
			c0.02-0.19,0.66-4.33,4.28-4.62l5.44,4.21C24.11,28.98,20.94,31.36,19.36,33.14z M29.8,22.03c-0.91,2.23-0.55,4.77-0.03,6.64
			l-5.04-3.9c-0.02-0.9,0.13-3.98,3.12-5.38l0.05-0.02h3.94C30.93,20.08,30.24,20.96,29.8,22.03z M27.64,17.98
			c-0.73-0.99-2.17-3.16-2.03-4.88c0.02-0.2,0.08-0.36,0.14-0.54l3.28-3.28c-0.53,1.59-0.6,3.11-0.17,4.52
			c0.59,1.94,1.95,3.29,3.16,4.17H27.64z"/>
		<g>
			
				<rect x="14.62" y="14.63" transform="matrix(0.7071 -0.7071 0.7071 0.7071 -7.7352 18.674)" class="st0" width="8.1" height="8.1"/>
			<polygon class="st2" points="18.67,12.95 18.67,24.4 24.4,18.67 			"/>
		</g>
	</g>
	<g>
		<g>
			<g>
				<path class="st0" d="M141.88,30.44c-0.55,0-1.02-0.19-1.39-0.58c-0.38-0.39-0.56-0.85-0.56-1.38V11.27
					c0-0.15-0.09-0.23-0.26-0.23h-5.43c-0.44,0-0.82-0.16-1.14-0.48c-0.32-0.32-0.48-0.71-0.48-1.18c0-0.46,0.16-0.86,0.48-1.18
					c0.32-0.32,0.7-0.48,1.14-0.48h15.34c0.46,0,0.86,0.16,1.18,0.48c0.32,0.32,0.48,0.71,0.48,1.18c0,0.46-0.16,0.86-0.48,1.18
					c-0.32,0.32-0.71,0.48-1.18,0.48h-5.47c-0.15,0-0.23,0.08-0.23,0.23v17.22c0,0.53-0.19,0.99-0.58,1.38
					c-0.39,0.39-0.84,0.58-1.38,0.58H141.88z"/>
				<path class="st0" d="M167.44,17.55c-1.26-1.06-2.88-1.73-4.64-1.74c-0.01,0-6.67,0-6.67,0l0-4.74c0,0,9.97,0,10.02,0
					c0.92,0,1.67-0.75,1.67-1.67s-0.75-1.67-1.67-1.67c-0.02,0-13.35,0-13.35,0l-0.01,11.47c0,0,10.11,0,10.14,0
					c1.92,0.1,3.46,2.1,3.46,3.89c0,1.74-1.46,3.87-3.31,4.02c-0.06,0.01-10.17,0-10.21,0c-0.87,0.05-1.64,0.78-1.64,1.67
					c0,0.03,0,0.04,0,0.07c0.05,0.88,0.9,1.6,1.79,1.6c0.1,0,9.76-0.01,9.76-0.01c1.71,0,3.28-0.56,4.53-1.48
					c1.69-1.25,2.79-3.74,2.79-5.88C170.08,21.01,169.05,18.91,167.44,17.55z"/>
			</g>
		</g>
		<g>
			<path class="st3" d="M82.66,9.99c0.38,0,0.7-0.31,0.7-0.7c0-0.38-0.31-0.7-0.7-0.7H67.92c-0.1,0-0.19,0.02-0.27,0.05
				C67.4,8.76,67.23,9,67.23,9.29v20.45c0,0.1,0.02,0.19,0.06,0.27c0.11,0.25,0.35,0.43,0.64,0.43h14.74c0.38,0,0.7-0.31,0.7-0.7
				c0-0.38-0.31-0.7-0.7-0.7H68.62v-9.68h13.19c0.35,0,0.64-0.29,0.64-0.64v-0.12c0-0.35-0.29-0.64-0.64-0.64H68.62V9.99H82.66z"/>
			<path class="st3" d="M63.25,8.59H43.79c-0.38,0-0.7,0.31-0.7,0.7c0,0.38,0.31,0.7,0.7,0.7h9.03v19.76c0,0.38,0.31,0.7,0.7,0.7
				c0.38,0,0.7-0.31,0.7-0.7V9.99h9.03c0.38,0,0.7-0.31,0.7-0.7C63.95,8.91,63.63,8.59,63.25,8.59z"/>
			<path class="st3" d="M97.85,8.72c-0.13-0.28-0.42-0.42-0.71-0.39c-0.29-0.03-0.58,0.11-0.71,0.39l-9.66,20.71
				c-0.16,0.35-0.01,0.76,0.34,0.93c0.35,0.16,0.76,0.01,0.93-0.34l3.15-6.75h11.91l3.15,6.75c0.16,0.35,0.58,0.5,0.93,0.34
				c0.35-0.16,0.5-0.58,0.34-0.93L97.85,8.72z M91.83,21.87l5.31-11.38l5.3,11.38H91.83z"/>
			<path class="st3" d="M128.3,8.06L128.3,8.06c-0.22,0-0.41,0.11-0.54,0.27c-0.04,0.04-0.08,0.08-0.11,0.13l-7.73,13.39l-7.68-13.3
				c-0.08-0.29-0.34-0.5-0.65-0.5h-0.01c-0.38,0-0.69,0.31-0.69,0.69v21c0,0.38,0.31,0.69,0.69,0.69h0.01
				c0.38,0,0.69-0.31,0.69-0.69V11.4l7.03,12.18c0.01,0.02,0.03,0.03,0.04,0.05c0.02,0.03,0.04,0.05,0.06,0.07
				c0.04,0.04,0.08,0.08,0.13,0.12c0.01,0.01,0.02,0.02,0.03,0.02c0.02,0.01,0.05,0.01,0.07,0.02c0.05,0.02,0.1,0.04,0.15,0.05
				c0.04,0.01,0.09,0.01,0.13,0.01c0.04,0,0.09,0,0.13-0.01c0.05-0.01,0.1-0.03,0.15-0.05c0.02-0.01,0.05-0.01,0.07-0.02
				c0.01-0.01,0.02-0.02,0.03-0.02c0.05-0.03,0.09-0.07,0.13-0.12c0.02-0.02,0.04-0.04,0.06-0.07c0.01-0.02,0.03-0.03,0.04-0.05
				l7.08-12.26v18.42c0,0.38,0.31,0.69,0.69,0.69h0.01c0.38,0,0.69-0.31,0.69-0.69v-21C129,8.37,128.69,8.06,128.3,8.06z"/>
		</g>
	</g>
	<g>
		<path class="st3" d="M26.9,51.78L26.9,51.78c-0.24,0-0.43-0.19-0.43-0.43v-4.99c0-0.24,0.19-0.43,0.43-0.43l0,0
			c0.24,0,0.43,0.19,0.43,0.43v4.99C27.33,51.59,27.14,51.78,26.9,51.78z"/>
		<path class="st3" d="M26.25,44.43L26.25,44.43c0-0.33,0.27-0.6,0.6-0.6h0.09c0.33,0,0.6,0.27,0.6,0.6l0,0c0,0.33-0.27,0.6-0.6,0.6
			h-0.09C26.52,45.03,26.25,44.76,26.25,44.43z"/>
		<path class="st3" d="M36.62,46.72c0.24,0,0.43-0.19,0.43-0.43s-0.19-0.43-0.43-0.43h-1.18v-1.19c0-0.24-0.2-0.43-0.43-0.43
			c-0.24,0-0.43,0.2-0.43,0.43v1.19h-0.46c-0.24,0-0.43,0.2-0.43,0.43s0.2,0.43,0.43,0.43h0.46v4.63c0,0.24,0.2,0.43,0.43,0.43h1.21
			c0.24,0,0.43-0.19,0.43-0.43c0-0.24-0.2-0.43-0.43-0.43h-0.78v-4.2H36.62z"/>
		<path class="st3" d="M51.9,46.72c0.24,0,0.43-0.19,0.43-0.43s-0.2-0.43-0.43-0.43h-1.18v-1.19c0-0.24-0.2-0.43-0.43-0.43
			c-0.24,0-0.43,0.2-0.43,0.43v1.19h-0.46c-0.24,0-0.43,0.2-0.43,0.43s0.19,0.43,0.43,0.43h0.46v4.63c0,0.24,0.2,0.43,0.43,0.43
			h1.21c0.24,0,0.43-0.19,0.43-0.43c0-0.24-0.19-0.43-0.43-0.43h-0.78v-4.2H51.9z"/>
		<path class="st0" d="M123.82,46.72c0.37,0,0.66-0.3,0.66-0.66s-0.3-0.66-0.66-0.66h-0.95v-0.96c0-0.37-0.3-0.66-0.66-0.66
			s-0.66,0.3-0.66,0.66v0.96h-0.23c-0.37,0-0.66,0.3-0.66,0.66s0.3,0.66,0.66,0.66h0.23v4.4c0,0.37,0.3,0.66,0.66,0.66h1.21
			c0.37,0,0.66-0.3,0.66-0.66c0-0.37-0.3-0.66-0.66-0.66h-0.55v-3.74H123.82z"/>
		<path class="st0" d="M150.64,46.72c0.37,0,0.66-0.3,0.66-0.66s-0.3-0.66-0.66-0.66h-0.95v-0.96c0-0.37-0.3-0.66-0.66-0.66
			s-0.66,0.3-0.66,0.66v0.96h-0.23c-0.37,0-0.66,0.3-0.66,0.66s0.3,0.66,0.66,0.66h0.23v4.4c0,0.37,0.3,0.66,0.66,0.66h1.21
			c0.37,0,0.66-0.3,0.66-0.66c0-0.37-0.3-0.66-0.66-0.66h-0.55v-3.74H150.64z"/>
		<path class="st3" d="M8.59,43.82H6.16c-0.24,0-0.43,0.2-0.43,0.43v7.09c0,0.24,0.2,0.43,0.43,0.43c0.24,0,0.43-0.19,0.43-0.43
			v-2.79h2c1.23,0,2.23-1.01,2.23-2.23v-0.26C10.83,44.83,9.82,43.82,8.59,43.82z M9.95,46.38c0,0.79-0.65,1.43-1.45,1.43H6.87
			c-0.12,0-0.19-0.02-0.28-0.03v-3.17c0.09-0.01,0.17-0.02,0.28-0.02H8.5c0.8,0,1.45,0.64,1.45,1.43V46.38z"/>
		<path class="st3" d="M14.01,45.66h-0.27c-1.38,0-2.51,1.12-2.51,2.51v1.1c0,1.38,1.13,2.51,2.51,2.51h0.27
			c0.83,0,1.61-0.41,2.08-1.11c0.12-0.17,0.07-0.41-0.1-0.53c-0.17-0.12-0.41-0.07-0.53,0.1c-0.33,0.48-0.87,0.77-1.45,0.77h-0.27
			c-0.93,0-1.68-0.74-1.73-1.66h4.07c0.13,0,0.24-0.07,0.32-0.16c0.07-0.07,0.11-0.16,0.11-0.27v-0.76
			C16.52,46.79,15.4,45.66,14.01,45.66z M13.74,46.43h0.27c0.96,0,1.74,0.78,1.74,1.74v0.33H12v-0.33
			C12,47.21,12.78,46.43,13.74,46.43z"/>
		<path class="st3" d="M40.47,45.66H40.2c-1.38,0-2.51,1.12-2.51,2.51v1.1c0,1.38,1.13,2.51,2.51,2.51h0.27
			c0.83,0,1.61-0.41,2.08-1.11c0.12-0.17,0.07-0.41-0.1-0.53c-0.17-0.12-0.41-0.07-0.53,0.1c-0.33,0.48-0.87,0.77-1.45,0.77H40.2
			c-0.93,0-1.68-0.74-1.73-1.66h4.07c0.13,0,0.24-0.07,0.32-0.16c0.07-0.07,0.11-0.16,0.11-0.27v-0.76
			C42.98,46.79,41.86,45.66,40.47,45.66z M40.2,46.43h0.27c0.96,0,1.74,0.78,1.74,1.74v0.33h-3.76v-0.33
			C38.46,47.21,39.24,46.43,40.2,46.43z"/>
		<path class="st0" d="M80.62,45.25h-0.27c-1.5,0-2.71,1.22-2.71,2.71v1.1c0,1.5,1.22,2.71,2.71,2.71h0.27
			c0.9,0,2.11-0.35,2.61-1.09c0.09-0.13,0.12-0.28,0.09-0.44c-0.03-0.15-0.12-0.29-0.24-0.38c-0.13-0.09-0.24-0.08-0.39-0.05
			c-0.15,0.03-0.29,0.12-0.37,0.25c-0.29,0.43-1.18,0.54-1.69,0.54h-0.27c-0.74,0-1.36-0.53-1.5-1.25h3.84
			c0.18,0,0.35-0.08,0.46-0.22c0.11-0.11,0.17-0.26,0.17-0.42v-0.76C83.33,46.47,82.11,45.25,80.62,45.25z M82.15,48.09v0.2H78.8
			v-0.2c0-0.85,0.69-1.66,1.54-1.66h0.27C81.46,46.43,82.15,47.24,82.15,48.09z"/>
		<path class="st0" d="M110.36,45.25h-0.27c-1.5,0-2.71,1.22-2.71,2.71v1.1c0,1.5,1.22,2.71,2.71,2.71h0.27
			c0.9,0,2.11-0.35,2.61-1.09c0.09-0.13,0.12-0.28,0.09-0.44c-0.03-0.15-0.12-0.29-0.24-0.38c-0.13-0.09-0.24-0.08-0.39-0.05
			c-0.15,0.03-0.29,0.12-0.37,0.25c-0.29,0.43-1.18,0.54-1.69,0.54h-0.27c-0.74,0-1.36-0.53-1.5-1.25h3.84
			c0.18,0,0.35-0.08,0.46-0.22c0.11-0.11,0.17-0.26,0.17-0.42v-0.76C113.08,46.47,111.86,45.25,110.36,45.25z M111.9,48.09v0.2
			h-3.35v-0.2c0-0.85,0.69-1.66,1.54-1.66h0.27C111.21,46.43,111.9,47.24,111.9,48.09z"/>
		<path class="st0" d="M154.9,45.25h-0.27c-1.5,0-2.71,1.22-2.71,2.71v1.1c0,1.5,1.22,2.71,2.71,2.71h0.27
			c0.9,0,2.11-0.35,2.61-1.09c0.09-0.13,0.12-0.28,0.09-0.44c-0.03-0.15-0.12-0.29-0.24-0.38c-0.13-0.09-0.24-0.08-0.39-0.05
			c-0.15,0.03-0.29,0.12-0.37,0.25c-0.29,0.43-1.18,0.54-1.69,0.54h-0.27c-0.74,0-1.36-0.53-1.5-1.25h3.84
			c0.18,0,0.35-0.08,0.46-0.22c0.11-0.11,0.17-0.26,0.17-0.42v-0.76C157.61,46.47,156.39,45.25,154.9,45.25z M156.43,48.09v0.2
			h-3.35v-0.2c0-0.85,0.69-1.66,1.54-1.66h0.27C155.74,46.43,156.43,47.24,156.43,48.09z"/>
		<path class="st3" d="M19.95,45.86c-0.66,0-1.25,0.27-1.7,0.69V46.1c0-0.24-0.2-0.43-0.43-0.43c-0.24,0-0.43,0.2-0.43,0.43v5.25
			c0,0.24,0.2,0.43,0.43,0.43c0.24,0,0.43-0.19,0.43-0.43v-3.22c0.12-0.85,0.82-1.51,1.7-1.51c0.21,0,0.38-0.17,0.38-0.38
			S20.16,45.86,19.95,45.86z"/>
		<path class="st0" d="M87.23,45.28c-0.57,0-1.07,0.22-1.5,0.53c-0.03-0.33-0.29-0.6-0.63-0.6c-0.36,0-0.65,0.29-0.65,0.65v5.28
			c0,0.36,0.29,0.65,0.65,0.65s0.65-0.29,0.65-0.65v-3.86c0.25-0.57,0.82-0.98,1.48-0.98c0.28,0,0.51-0.23,0.51-0.51
			S87.51,45.28,87.23,45.28z"/>
		<path class="st0" d="M106.58,45.28c-0.57,0-1.07,0.22-1.5,0.53c-0.03-0.33-0.29-0.6-0.63-0.6c-0.36,0-0.65,0.29-0.65,0.65v5.28
			c0,0.36,0.29,0.65,0.65,0.65c0.36,0,0.65-0.29,0.65-0.65v-3.86c0.25-0.57,0.82-0.98,1.48-0.98c0.28,0,0.51-0.23,0.51-0.51
			S106.86,45.28,106.58,45.28z"/>
		<path class="st0" d="M161.39,45.28c-0.57,0-1.07,0.22-1.5,0.53c-0.03-0.33-0.29-0.6-0.63-0.6c-0.36,0-0.65,0.29-0.65,0.65v5.28
			c0,0.36,0.29,0.65,0.65,0.65c0.36,0,0.65-0.29,0.65-0.65v-3.86c0.25-0.57,0.82-0.98,1.48-0.98c0.28,0,0.51-0.23,0.51-0.51
			S161.67,45.28,161.39,45.28z"/>
		<path class="st3" d="M23.9,48.32h-0.41h-0.52h-0.42c-0.53,0-0.97-0.43-0.97-0.97s0.43-0.97,0.97-0.97h1.43
			c0.21,0,0.38-0.17,0.38-0.38s-0.17-0.38-0.38-0.38h-1.43c-0.96,0-1.73,0.78-1.73,1.73s0.78,1.73,1.73,1.73h0.42h0.52h0.41
			c0.53,0,0.97,0.43,0.97,0.97c0,0.53-0.43,0.97-0.97,0.97h-2.7c-0.21,0-0.38,0.17-0.38,0.38c0,0.21,0.17,0.38,0.38,0.38h2.7
			c0.96,0,1.73-0.78,1.73-1.73C25.63,49.09,24.85,48.32,23.9,48.32z"/>
		<path class="st3" d="M31.54,48.32h-0.41h-0.52h-0.42c-0.53,0-0.97-0.43-0.97-0.97s0.43-0.97,0.97-0.97h1.43
			c0.21,0,0.38-0.17,0.38-0.38s-0.17-0.38-0.38-0.38h-1.43c-0.96,0-1.73,0.78-1.73,1.73s0.78,1.73,1.73,1.73h0.42h0.52h0.41
			c0.53,0,0.97,0.43,0.97,0.97c0,0.53-0.43,0.97-0.97,0.97h-2.7c-0.21,0-0.38,0.17-0.38,0.38c0,0.21,0.17,0.38,0.38,0.38h2.7
			c0.96,0,1.73-0.78,1.73-1.73C33.28,49.09,32.5,48.32,31.54,48.32z"/>
		<path class="st0" d="M165.89,47.86h-1.35c-0.41,0-0.74-0.33-0.74-0.74s0.33-0.74,0.74-0.74h1.43c0.34,0,0.61-0.27,0.61-0.61
			c0-0.34-0.27-0.61-0.61-0.61h-1.43c-1.08,0-1.96,0.88-1.96,1.96s0.88,1.96,1.96,1.96h1.35c0.41,0,0.74,0.33,0.74,0.74
			s-0.33,0.74-0.74,0.74h-2.7c-0.34,0-0.61,0.27-0.61,0.61c0,0.34,0.27,0.61,0.61,0.61h2.7c1.08,0,1.96-0.88,1.96-1.96
			S166.98,47.86,165.89,47.86z"/>
		<path class="st3" d="M48.39,47.61c-0.04-1.23-1.06-1.98-2.26-1.98c-0.59,0-1.12,0.23-1.52,0.57c-0.05-0.19-0.19-0.34-0.39-0.34
			c-0.24,0-0.43,0.19-0.43,0.43v5.01c0,0.24,0.2,0.43,0.43,0.43c0.24,0,0.43-0.2,0.43-0.43v-3.74c0.12-0.66,0.72-1.18,1.48-1.18
			c0.85,0,1.54,0.63,1.54,1.41h0v3.61c0,0.2,0.16,0.36,0.36,0.36h0.04c0.2,0,0.32-0.16,0.32-0.36L48.39,47.61z"/>
		<path class="st0" d="M146.75,47.38c-0.04-1.27-1.09-2.2-2.49-2.2c-0.52,0-1.02,0.16-1.45,0.45c-0.12-0.14-0.28-0.22-0.47-0.22
			c-0.37,0-0.66,0.3-0.66,0.66v5.01c0,0.37,0.3,0.66,0.66,0.66c0.37,0,0.66-0.3,0.66-0.66l0-3.7c0.11-0.57,0.63-0.99,1.26-0.99
			c0.72,0,1.31,0.53,1.31,1.18v3.61c0,0.33,0.27,0.59,0.63,0.59c0.31,0,0.55-0.25,0.55-0.59L146.75,47.38z"/>
		<path class="st0" d="M139.82,45.21c-0.37,0-0.66,0.3-0.66,0.66l0,3.7c-0.1,0.57-0.63,0.99-1.25,0.99c-0.72,0-1.31-0.53-1.31-1.18
			l0-3.61c0-0.33-0.26-0.59-0.63-0.59c-0.31,0-0.55,0.25-0.55,0.59v3.82c0.05,1.27,1.09,2.2,2.49,2.2c0.51,0,1.02-0.16,1.45-0.46
			c0,0.3,0.31,0.46,0.58,0.46c0.34,0,0.55-0.16,0.55-0.66v-5.24C140.48,45.51,140.18,45.21,139.82,45.21z"/>
		<path class="st0" d="M61,51.78c-2.22,0-4.03-1.93-4.03-4.31c0-2.38,1.81-4.31,4.03-4.31c1.08,0,2.1,0.46,2.86,1.28
			c0.24,0.26,0.22,0.66-0.04,0.9c-0.26,0.24-0.66,0.22-0.9-0.04c-0.52-0.56-1.2-0.87-1.93-0.87c-1.52,0-2.75,1.36-2.75,3.04
			c0,1.67,1.23,3.03,2.75,3.03c0.73,0,1.41-0.31,1.93-0.87c0.24-0.26,0.64-0.27,0.9-0.04c0.26,0.24,0.28,0.64,0.04,0.9
			C63.11,51.33,62.09,51.78,61,51.78z"/>
		<path class="st0" d="M69.58,45.83c-0.32-0.15-0.71-0.01-0.86,0.31l-1.52,3.26l-1.45-3.11c-0.15-0.32-0.54-0.47-0.86-0.31
			c-0.32,0.15-0.47,0.54-0.31,0.86l1.91,4.1l-1.48,3.18c-0.15,0.32-0.01,0.71,0.31,0.86c0.32,0.15,0.71,0.01,0.86-0.31l3.72-7.99
			C70.04,46.37,69.9,45.98,69.58,45.83z"/>
		<path class="st0" d="M96.12,43.19h-4.92c-0.36,0-0.65,0.29-0.65,0.65v0c0,0.36,0.29,0.65,0.65,0.65h1.81v6.65
			c0,0.36,0.29,0.65,0.65,0.65c0.36,0,0.65-0.29,0.65-0.65v-6.65h1.81c0.36,0,0.65-0.29,0.65-0.65v0
			C96.77,43.48,96.48,43.19,96.12,43.19z"/>
		<path class="st0" d="M102.57,47.72c-0.05-1.27-1.09-2.2-2.49-2.2c-0.46,0-0.89,0.14-1.28,0.37v-2.2c0-0.36-0.29-0.65-0.65-0.65
			s-0.65,0.29-0.65,0.65v2.73v4.67v0.05c0,0.36,0.29,0.65,0.65,0.65c0.19,0,0.35-0.09,0.47-0.22c0.12-0.12,0.2-0.29,0.2-0.47l0-3.35
			c0.11-0.57,0.63-0.99,1.26-0.99c0.72,0,1.31,0.53,1.31,1.18v3.27c0,0.33,0.26,0.59,0.63,0.59c0.32,0,0.55-0.25,0.55-0.59
			L102.57,47.72z"/>
		<path class="st0" d="M133.72,43.04c-0.36,0-0.65,0.29-0.65,0.65v3.07h-3.36v-3.07c0-0.36-0.29-0.65-0.65-0.65
			c-0.36,0-0.65,0.29-0.65,0.65v7.44c0,0.36,0.29,0.65,0.65,0.65c0.36,0,0.65-0.29,0.65-0.65v-3.07h3.36v3.07
			c0,0.36,0.29,0.65,0.65,0.65c0.36,0,0.65-0.29,0.65-0.65v-7.44C134.37,43.33,134.07,43.04,133.72,43.04z"/>
		<path class="st0" d="M74.07,45.25c-0.63,0-1.18,0.27-1.65,0.65v-2.14c0-0.35-0.29-0.64-0.64-0.64h-0.01
			c-0.35,0-0.64,0.29-0.64,0.64v7.34c0,0.35,0.29,0.64,0.64,0.64h0.01c0.34,0,0.62-0.28,0.63-0.62c0.47,0.38,1.03,0.65,1.66,0.65
			c1.55,0,2.81-1.37,2.81-3.48C76.89,46.62,75.62,45.25,74.07,45.25z M74.07,50.63c-0.74,0-1.38-0.38-1.65-1.1v-2.01
			c0.27-0.73,0.91-1.09,1.65-1.09c0.99,0,1.75,0.76,1.75,1.87C75.82,49.61,75.06,50.63,74.07,50.63z"/>
		<path class="st0" d="M119.2,45.06c-0.36,0-0.65,0.29-0.65,0.65v0.14c-0.42-0.35-1.24-0.61-1.78-0.62c-0.02,0-0.05,0-0.07,0
			c-1.47,0-2.7,1.41-2.76,3.19c-0.07,2.16,0.78,3.26,2.6,3.37c0.04,0,0.09,0,0.13,0c0.56,0,1.45-0.22,1.91-0.62
			c0.05,0.31,0.29,0.56,0.61,0.56c0.36,0,0.65-0.29,0.65-0.65v-5.36C119.85,45.35,119.56,45.06,119.2,45.06z M116.61,50.71
			c-1.03-0.06-1.65-0.46-1.6-2.26c0.04-1.2,0.79-2.16,1.68-2.16c0.01,0,0.03,0,0.04,0c0.42,0.01,1.16,0.24,1.45,0.64
			c0.16,0.21,0.36,0.46,0.44,0.73v1.42c-0.11,0.49-0.38,0.95-0.71,1.25C117.72,50.52,117.01,50.72,116.61,50.71z"/>
	</g>
</g>
</svg>
