<?xml version="1.0" encoding="UTF-8"?>
<svg width="81px" height="80px" viewBox="0 0 81 80" version="1.1" xmlns="http://www.w3.org/2000/svg" xmlns:xlink="http://www.w3.org/1999/xlink">
    <!-- Generator: Sketch 54.1 (76490) - https://sketchapp.com -->
    <title>icon/flexible</title>
    <desc>Created with Sketch.</desc>
    <defs>
        <polygon id="path-1" points="4.69667319e-05 0.119375 79.8803914 0.119375 79.8803914 79.84375 4.69667319e-05 79.84375"></polygon>
        <path d="M17.1948337,3.15125 C17.1948337,3.92296875 17.4857143,4.626875 17.9638356,5.16015625 L17.9638356,5.16015625 L12.7666536,5.16015625 C12.4330333,5.16015625 12.162818,5.42984375 12.162818,5.7628125 L12.162818,5.7628125 C12.162818,5.42984375 11.8924462,5.16015625 11.5588258,5.16015625 L11.5588258,5.16015625 L7.86771037,5.16015625 C8.03898239,5.455625 8.1369863,5.79875 8.1369863,6.1646875 L8.1369863,6.1646875 C8.1369863,7.2740625 7.23585127,8.17359375 6.12414873,8.17359375 L6.12414873,8.17359375 C5.01260274,8.17359375 4.11131115,7.2740625 4.11131115,6.1646875 L4.11131115,6.1646875 C4.11131115,5.79875 4.20931507,5.455625 4.38058708,5.16015625 L4.38058708,5.16015625 L0.689471624,5.16015625 C0.355851272,5.16015625 0.0856360078,5.42984375 0.0856360078,5.7628125 L0.0856360078,5.7628125 L0.0856360078,22.6378125 C0.0856360078,22.970625 0.355851272,23.2404687 0.689471624,23.2404687 L0.689471624,23.2404687 L11.5588258,23.2404687 C11.8924462,23.2404687 12.162818,22.970625 12.162818,22.6378125 L12.162818,22.6378125 C12.162818,22.970625 12.4330333,23.2404687 12.7666536,23.2404687 L12.7666536,23.2404687 L17.9638356,23.2404687 C17.4857143,23.7735937 17.1948337,24.4775 17.1948337,25.249375 L17.1948337,25.249375 C17.1948337,26.91375 18.5466928,28.2628125 20.2141683,28.2628125 L20.2141683,28.2628125 C21.8818004,28.2628125 23.2335029,26.91375 23.2335029,25.249375 L23.2335029,25.249375 C23.2335029,24.4775 22.9427789,23.7735937 22.4646575,23.2404687 L22.4646575,23.2404687 L27.6618395,23.2404687 C27.9951468,23.2404687 28.2656751,22.970625 28.2656751,22.6378125 L28.2656751,22.6378125 C28.2656751,22.970625 28.5358904,23.2404687 28.8695108,23.2404687 L28.8695108,23.2404687 L32.5606262,23.2404687 C32.3893542,22.945 32.2913503,22.6020312 32.2913503,22.2360937 L32.2913503,22.2360937 C32.2913503,21.1264062 33.1924853,20.2271875 34.3041879,20.2271875 L34.3041879,20.2271875 C35.4158904,20.2271875 36.3170254,21.1264062 36.3170254,22.2360937 L36.3170254,22.2360937 C36.3170254,22.6020312 36.2190215,22.945 36.0477495,23.2404687 L36.0477495,23.2404687 L39.738865,23.2404687 C40.0724853,23.2404687 40.3428571,22.970625 40.3428571,22.6378125 L40.3428571,22.6378125 L40.3428571,5.7628125 C40.3428571,5.42984375 40.0724853,5.16015625 39.738865,5.16015625 L39.738865,5.16015625 L28.8695108,5.16015625 C28.5358904,5.16015625 28.2656751,5.42984375 28.2656751,5.7628125 L28.2656751,5.7628125 C28.2656751,5.42984375 27.9951468,5.16015625 27.6618395,5.16015625 L27.6618395,5.16015625 L22.4646575,5.16015625 C22.9427789,4.626875 23.2335029,3.92296875 23.2335029,3.15125 L23.2335029,3.15125 C23.2335029,1.486875 21.8818004,0.1378125 20.2141683,0.1378125 L20.2141683,0.1378125 C18.5466928,0.1378125 17.1948337,1.486875 17.1948337,3.15125 L17.1948337,3.15125 Z M29.0708415,5.96375 L39.5376908,5.96375 L39.5376908,22.436875 L37.1151468,22.436875 C37.1196869,22.3704688 37.1221918,22.3032812 37.1221918,22.2360938 L37.1221918,22.2360938 C37.1221918,20.6828125 35.8605088,19.4235938 34.3041879,19.4235938 L34.3041879,19.4235938 C32.7478669,19.4235938 31.486184,20.6828125 31.486184,22.2360938 L31.486184,22.2360938 C31.486184,22.3032812 31.4885323,22.3704688 31.493229,22.436875 L31.493229,22.436875 L29.0708415,22.436875 L29.0708415,15.9060938 L27.9974951,16.2845313 C27.762818,16.3673438 27.5145205,16.4101562 27.2591781,16.4101562 L27.2591781,16.4101562 C26.0361644,16.4101562 25.0450098,15.4207812 25.0450098,14.2003125 L25.0450098,14.2003125 C25.0450098,12.9796875 26.0361644,11.9904687 27.2591781,11.9904687 L27.2591781,11.9904687 C27.5145205,11.9904687 27.762818,12.0332812 27.9974951,12.1160938 L27.9974951,12.1160938 L29.0708415,12.4946875 L29.0708415,5.96375 Z M8.94215264,6.1646875 C8.94215264,6.09734375 8.93964775,6.0303125 8.93510763,5.96375 L8.93510763,5.96375 L11.3576517,5.96375 L11.3576517,12.4946875 L12.430998,12.1160938 C12.6656751,12.0332812 12.9139726,11.9904687 13.1691585,11.9904687 L13.1691585,11.9904687 C14.3920157,11.9904687 15.3833268,12.9796875 15.3833268,14.2003125 L15.3833268,14.2003125 C15.3833268,15.4207812 14.3920157,16.4101562 13.1691585,16.4101562 L13.1691585,16.4101562 C12.9139726,16.4101562 12.6656751,16.3673438 12.430998,16.2845313 L12.430998,16.2845313 L11.3576517,15.9060938 L11.3576517,22.436875 L0.890802348,22.436875 L0.890802348,5.96375 L3.31318982,5.96375 C3.30849315,6.0303125 3.30614481,6.09734375 3.30614481,6.1646875 L3.30614481,6.1646875 C3.30614481,7.71796875 4.56782779,8.9771875 6.12414873,8.9771875 L6.12414873,8.9771875 C7.68046967,8.9771875 8.94215264,7.71796875 8.94215264,6.1646875 L8.94215264,6.1646875 Z M28.2656751,10.5170312 C28.3560078,10.5415625 28.4457143,10.569375 28.5340117,10.6007812 L28.5340117,10.6007812 L28.2656751,11.3582812 L28.2656751,10.5170312 Z M11.8944814,10.6007812 C11.9827789,10.569375 12.0721722,10.5415625 12.162818,10.5170312 L12.162818,10.5170312 L12.162818,11.3582812 L11.8944814,10.6007812 Z M28.2656751,17.0421875 L28.5340117,17.8 C28.4457143,17.8310937 28.3560078,17.8589062 28.2656751,17.8834375 L28.2656751,17.8834375 L28.2656751,17.0421875 Z M11.8944814,17.8 L12.162818,17.0421875 L12.162818,17.8834375 C12.0721722,17.8589062 11.9827789,17.8310937 11.8944814,17.8 L11.8944814,17.8 Z" id="path-3"></path>
    </defs>
    <g id="mockup" stroke="none" stroke-width="1" fill="none" fill-rule="evenodd">
        <g id="sonar-1440" transform="translate(-952.000000, -772.000000)">
            <g id="簡易" transform="translate(952.207909, 772.000000)">
                <g id="icon/flexible">
                    <g>
                        <g id="Group-6" transform="translate(0.000000, 0.036875)">
                            <path d="M39.9402427,77.6804063 C29.8508493,77.6804063 20.3652916,73.759 13.231045,66.6386875 C6.09664188,59.518375 2.1677182,50.0513438 2.1677182,39.9816563 C2.1677182,29.9118125 6.09664188,20.4447813 13.231045,13.3244688 C20.3652916,6.20415625 29.8508493,2.28275 39.9402427,2.28275 C50.029636,2.28275 59.5151937,6.20415625 66.6494403,13.3244688 C73.7838434,20.4447813 77.7127671,29.9118125 77.7127671,39.9816563 C77.7127671,50.0513438 73.7838434,59.5182188 66.6494403,66.6386875 C59.5150372,73.759 50.029636,77.6804063 39.9402427,77.6804063" id="Fill-1" fill="#FEFEFE"></path>
                            <g id="Group-5">
                                <mask id="mask-2" fill="white">
                                    <use xlink:href="#path-1"></use>
                                </mask>
                                <g id="Clip-4"></g>
                                <path d="M39.9402427,0.119375 C17.8818474,0.119375 4.69667319e-05,17.96625 4.69667319e-05,39.9815625 C4.69667319e-05,61.996875 17.8818474,79.84375 39.9402427,79.84375 C61.9984814,79.84375 79.8804384,61.996875 79.8804384,39.9815625 C79.8804384,17.96625 61.9984814,0.119375 39.9402427,0.119375 M39.9402427,4.44625 C44.7486967,4.44625 49.4110841,5.38515625 53.7979335,7.23703125 C58.0371507,9.0265625 61.8453699,11.589375 65.1166027,14.854375 C68.3878356,18.1192188 70.9556634,21.9198438 72.7486967,26.1510938 C74.6041957,30.5290625 75.5450959,35.1823438 75.5450959,39.9815625 C75.5450959,44.780625 74.6041957,49.4339063 72.7486967,53.8121875 C70.9556634,58.043125 68.3878356,61.8439063 65.1166027,65.1089063 C61.8453699,68.3735938 58.0371507,70.9364063 53.7979335,72.7260938 C49.4110841,74.5778125 44.7486967,75.516875 39.9402427,75.516875 C35.1316321,75.516875 30.4692446,74.5778125 26.0825519,72.7260938 C21.8431781,70.9364063 18.0351155,68.3735938 14.7638826,65.1089063 C11.4924932,61.8439063 8.92466536,58.043125 7.13163209,53.8121875 C5.27613307,49.4339063 4.33538943,44.780625 4.33538943,39.9815625 C4.33538943,35.1823438 5.27613307,30.5290625 7.13163209,26.1510938 C8.92466536,21.9198438 11.4924932,18.1192188 14.7638826,14.854375 C18.0351155,11.589375 21.8431781,9.0265625 26.0825519,7.23703125 C30.4692446,5.38515625 35.1316321,4.44625 39.9402427,4.44625" id="Fill-3" fill="#C71532" mask="url(#mask-2)"></path>
                            </g>
                        </g>
                        <g id="Group-9" transform="translate(19.726027, 25.818125)">
                            <mask id="mask-4" fill="white">
                                <use xlink:href="#path-3"></use>
                            </mask>
                            <g id="Clip-8"></g>
                            <polygon id="Fill-7" fill="#C71532" mask="url(#mask-4)" points="-0.920861057 29.2673438 41.3491977 29.2673438 41.3491977 -0.8665625 -0.920861057 -0.8665625"></polygon>
                        </g>
                    </g>
                </g>
            </g>
        </g>
    </g>
</svg>