<?xml version="1.0" encoding="UTF-8"?>
<svg width="81px" height="79px" viewBox="0 0 81 79" version="1.1" xmlns="http://www.w3.org/2000/svg" xmlns:xlink="http://www.w3.org/1999/xlink">
    <!-- Generator: Sketch 54.1 (76490) - https://sketchapp.com -->
    <title>icon/powerful</title>
    <desc>Created with Sketch.</desc>
    <defs>
        <path d="M19.8115068,0.444753086 L19.8115068,2.62731481 C19.8115068,2.8462963 19.9918591,3.02407407 20.2141683,3.02407407 L20.2141683,3.02407407 C20.4366341,3.02407407 20.6168297,2.8462963 20.6168297,2.62731481 L20.6168297,2.62731481 L20.6168297,0.444753086 C20.6168297,0.225462963 20.4366341,0.0479938272 20.2141683,0.0479938272 L20.2141683,0.0479938272 C19.9918591,0.0479938272 19.8115068,0.225462963 19.8115068,0.444753086 L19.8115068,0.444753086 Z M27.3911546,1.77283951 L25.38818,6.53919753 C25.3033268,6.74151235 25.4007045,6.97361111 25.6062622,7.05740741 L25.6062622,7.05740741 C25.8116634,7.14135802 26.0471233,7.04521605 26.1321331,6.84274691 L26.1321331,6.84274691 L28.1349511,2.07669753 C28.2201174,1.8742284 28.1224266,1.64212963 27.9170254,1.55817901 L27.9170254,1.55817901 C27.8666145,1.53765432 27.8144814,1.5279321 27.7632877,1.5279321 L27.7632877,1.5279321 C27.6053229,1.5279321 27.4553425,1.62006173 27.3911546,1.77283951 L27.3911546,1.77283951 Z M12.5111546,1.55817901 C12.30591,1.64212963 12.2082192,1.8742284 12.2933855,2.07669753 L12.2933855,2.07669753 L14.2962035,6.84274691 C14.3812133,7.04521605 14.6166732,7.14135802 14.8220744,7.05740741 L14.8220744,7.05740741 C15.0276321,6.97361111 15.1250098,6.74151235 15.04,6.53919753 L15.04,6.53919753 L13.0373386,1.77283951 C12.9731507,1.62006173 12.8231703,1.5279321 12.6650489,1.5279321 L12.6650489,1.5279321 C12.6138552,1.5279321 12.5615656,1.53765432 12.5111546,1.55817901 L12.5111546,1.55817901 Z M33.8778865,5.85925926 L32.3123288,7.40262346 C32.1551468,7.55756173 32.1551468,7.8087963 32.3123288,7.96373457 L32.3123288,7.96373457 C32.4695108,8.11882716 32.7243836,8.11882716 32.8815656,7.96373457 L32.8815656,7.96373457 L34.4472798,6.42052469 C34.6043053,6.2654321 34.6043053,6.01419753 34.4472798,5.85925926 L34.4472798,5.85925926 C34.3686888,5.78194444 34.2656751,5.74320988 34.1625049,5.74320988 L34.1625049,5.74320988 C34.0594912,5.74320988 33.9564775,5.78194444 33.8778865,5.85925926 L33.8778865,5.85925926 Z M5.98105675,5.85925926 C5.82387476,6.01419753 5.82387476,6.2654321 5.98105675,6.42052469 L5.98105675,6.42052469 L7.54677104,7.96373457 C7.70395303,8.11882716 7.95882583,8.11882716 8.11616438,7.96373457 L8.11616438,7.96373457 C8.27318982,7.8087963 8.27318982,7.55756173 8.11616438,7.40262346 L8.11616438,7.40262346 L6.5504501,5.85925926 C6.4718591,5.78194444 6.3688454,5.74320988 6.26567515,5.74320988 L6.26567515,5.74320988 C6.16266145,5.74320988 6.05964775,5.78194444 5.98105675,5.85925926 L5.98105675,5.85925926 Z M21.6355382,6.1183642 L11.3545205,21.9648148 C11.3336986,21.9966049 11.3225832,22.0337963 11.3225832,22.0717593 L11.3225832,22.0717593 C11.3225832,22.1813272 11.4127593,22.270216 11.5239139,22.270216 L11.5239139,22.270216 L18.6038356,22.270216 L20.8133072,22.270216 L18.4261448,33.5125 C18.4092368,33.5932099 18.4444618,33.6759259 18.5149119,33.720216 L18.5149119,33.720216 C18.6083757,33.779321 18.7329941,33.7523148 18.7927984,33.6600309 L18.7927984,33.6600309 L29.0739726,17.8135802 C29.094638,17.7816358 29.1055969,17.7445988 29.1055969,17.7066358 L29.1055969,17.7066358 C29.1055969,17.5970679 29.0155773,17.5083333 28.9044227,17.5083333 L28.9044227,17.5083333 L21.824501,17.5083333 L19.6150294,17.5083333 L22.0021918,6.26589506 C22.0192564,6.18518519 21.9838748,6.10246914 21.9135812,6.05802469 L21.9135812,6.05802469 C21.8799217,6.03688272 21.8425049,6.02669753 21.8052446,6.02669753 L21.8052446,6.02669753 C21.738865,6.02669753 21.6740509,6.05910494 21.6355382,6.1183642 L21.6355382,6.1183642 Z M38.2846184,12.0814815 L33.4495499,14.0557099 C33.2441487,14.1395062 33.1466145,14.3716049 33.2317808,14.5740741 L33.2317808,14.5740741 C33.3166341,14.7766975 33.5520939,14.8726852 33.7576517,14.7890432 L33.7576517,14.7890432 L38.5927202,12.8146605 C38.7981213,12.7308642 38.8956556,12.4987654 38.8104892,12.2962963 L38.8104892,12.2962963 C38.7464579,12.1433642 38.5964775,12.0512346 38.4385127,12.0512346 L38.4385127,12.0512346 C38.3871624,12.0512346 38.3350294,12.0609568 38.2846184,12.0814815 L38.2846184,12.0814815 Z M1.61784736,12.2962963 C1.53268102,12.4987654 1.63021526,12.7308642 1.83561644,12.8146605 L1.83561644,12.8146605 L6.67084149,14.7890432 C6.87608611,14.8726852 7.11170254,14.7766975 7.19671233,14.5740741 L7.19671233,14.5740741 C7.28187867,14.3716049 7.18418787,14.1395062 6.97878669,14.0557099 L6.97878669,14.0557099 L2.1437182,12.0814815 C2.09330724,12.0609568 2.04117417,12.0512346 1.98982387,12.0512346 L1.98982387,12.0512346 C1.8318591,12.0512346 1.68203523,12.1433642 1.61784736,12.2962963 L1.61784736,12.2962963 Z M37.7260274,19.4924383 C37.5037182,19.4924383 37.3235225,19.6699074 37.3235225,19.8891975 L37.3235225,19.8891975 C37.3235225,20.1083333 37.5037182,20.2861111 37.7260274,20.2861111 L37.7260274,20.2861111 L39.9401957,20.2861111 C40.1626614,20.2861111 40.3428571,20.1083333 40.3428571,19.8891975 L40.3428571,19.8891975 C40.3428571,19.6699074 40.1626614,19.4924383 39.9401957,19.4924383 L39.9401957,19.4924383 L37.7260274,19.4924383 Z M0.4881409,19.4924383 C0.265831703,19.4924383 0.0854794521,19.6699074 0.0854794521,19.8891975 L0.0854794521,19.8891975 C0.0854794521,20.1083333 0.265831703,20.2861111 0.4881409,20.2861111 L0.4881409,20.2861111 L2.7023092,20.2861111 C2.9246184,20.2861111 3.10481409,20.1083333 3.10481409,19.8891975 L3.10481409,19.8891975 C3.10481409,19.6699074 2.9246184,19.4924383 2.7023092,19.4924383 L2.7023092,19.4924383 L0.4881409,19.4924383 Z M33.2317808,25.204321 C33.1466145,25.4066358 33.2441487,25.6388889 33.4495499,25.7226852 L33.4495499,25.7226852 L38.2846184,27.6969136 C38.4900196,27.7807099 38.725636,27.6845679 38.8104892,27.4822531 L38.8104892,27.4822531 C38.8956556,27.2794753 38.7981213,27.0475309 38.5927202,26.9635802 L38.5927202,26.9635802 L33.7576517,24.9895062 C33.7072407,24.9689815 33.6549511,24.9591049 33.6036008,24.9591049 L33.6036008,24.9591049 C33.445636,24.9591049 33.2958121,25.0515432 33.2317808,25.204321 L33.2317808,25.204321 Z M6.67084149,24.9895062 L1.83561644,26.9635802 C1.63021526,27.0475309 1.53268102,27.2794753 1.61784736,27.4822531 L1.61784736,27.4822531 C1.70285714,27.6845679 1.93831703,27.7807099 2.1437182,27.6969136 L2.1437182,27.6969136 L6.97878669,25.7226852 C7.18418787,25.6388889 7.28187867,25.4066358 7.19671233,25.204321 L7.19671233,25.204321 C7.13252446,25.0515432 6.98254403,24.9591049 6.82473581,24.9591049 L6.82473581,24.9591049 C6.77338552,24.9591049 6.72109589,24.9689815 6.67084149,24.9895062 L6.67084149,24.9895062 Z M32.3123288,31.8145062 C32.1551468,31.9695988 32.1551468,32.2209877 32.3123288,32.3757716 L32.3123288,32.3757716 L33.8778865,33.9189815 C34.035225,34.0740741 34.2900978,34.0740741 34.4472798,33.9189815 L34.4472798,33.9189815 C34.6043053,33.7641975 34.6043053,33.5128086 34.4472798,33.3580247 L34.4472798,33.3580247 L32.8815656,31.8145062 C32.8029746,31.7371914 32.6999609,31.6984568 32.5969472,31.6984568 L32.5969472,31.6984568 C32.4937769,31.6984568 32.3907632,31.7371914 32.3123288,31.8145062 L32.3123288,31.8145062 Z M7.54677104,31.8145062 L5.98105675,33.3580247 C5.82387476,33.5128086 5.82387476,33.7641975 5.98105675,33.9189815 L5.98105675,33.9189815 C6.13823875,34.0740741 6.3932681,34.0740741 6.5504501,33.9189815 L6.5504501,33.9189815 L8.11616438,32.3757716 C8.27318982,32.2209877 8.27318982,31.9695988 8.11616438,31.8145062 L8.11616438,31.8145062 C8.03757339,31.7371914 7.93455969,31.6984568 7.83138943,31.6984568 L7.83138943,31.6984568 C7.72837573,31.6984568 7.62536204,31.7371914 7.54677104,31.8145062 L7.54677104,31.8145062 Z M25.6062622,32.7208333 C25.4007045,32.8046296 25.3033268,33.0367284 25.38818,33.2393519 L25.38818,33.2393519 L27.3911546,38.0054012 C27.4761644,38.2078704 27.7116243,38.3041667 27.9170254,38.2200617 L27.9170254,38.2200617 C28.1224266,38.1364198 28.2201174,37.9041667 28.1349511,37.7016975 L28.1349511,37.7016975 L26.1321331,32.9356481 C26.0679452,32.782716 25.9179648,32.6905864 25.76,32.6905864 L25.76,32.6905864 C25.7086497,32.6905864 25.6565166,32.7003086 25.6062622,32.7208333 L25.6062622,32.7208333 Z M14.2962035,32.9356481 L12.2933855,37.7016975 C12.2082192,37.9041667 12.30591,38.1364198 12.5111546,38.2200617 L12.5111546,38.2200617 C12.7167123,38.3041667 12.9521722,38.2078704 13.0373386,38.0054012 L13.0373386,38.0054012 L15.04,33.2393519 C15.1250098,33.0367284 15.0276321,32.8046296 14.8220744,32.7208333 L14.8220744,32.7208333 C14.77182,32.7003086 14.7196869,32.6905864 14.6683366,32.6905864 L14.6683366,32.6905864 C14.5103718,32.6905864 14.3603914,32.782716 14.2962035,32.9356481 L14.2962035,32.9356481 Z M19.8115068,37.1510802 L19.8115068,39.333642 C19.8115068,39.5527778 19.9918591,39.7305556 20.2141683,39.7305556 L20.2141683,39.7305556 C20.4366341,39.7305556 20.6168297,39.5527778 20.6168297,39.333642 L20.6168297,39.333642 L20.6168297,37.1510802 C20.6168297,36.9319444 20.4366341,36.754321 20.2141683,36.754321 L20.2141683,36.754321 C19.9918591,36.754321 19.8115068,36.9319444 19.8115068,37.1510802 L19.8115068,37.1510802 Z" id="path-1"></path>
    </defs>
    <g id="mockup" stroke="none" stroke-width="1" fill="none" fill-rule="evenodd">
        <g id="sonar-1440" transform="translate(-952.000000, -576.000000)">
            <g id="強大" transform="translate(952.207909, 576.000000)">
                <g id="icon/powerful">
                    <g>
                        <g id="Group-5" transform="translate(0.000000, 0.036420)">
                            <path d="M39.9401957,76.7213889 C29.8508023,76.7213889 20.3652446,72.8483951 13.230998,65.8159877 C6.09675147,58.7834259 2.16767123,49.4334259 2.16767123,39.4880556 C2.16767123,29.5425309 6.09675147,20.1923765 13.230998,13.1599691 C20.3652446,6.12756173 29.8508023,2.2545679 39.9401957,2.2545679 C50.029589,2.2545679 59.5151468,6.12756173 66.6493933,13.1599691 C73.7836399,20.1923765 77.7127202,29.5425309 77.7127202,39.4880556 C77.7127202,49.4334259 73.7836399,58.7834259 66.6493933,65.8159877 C59.5151468,72.8483951 50.029589,76.7213889 39.9401957,76.7213889" id="Fill-1" fill="#FEFEFE"></path>
                            <path d="M39.9401957,0.117901235 C17.8818004,0.117901235 0,17.7444444 0,39.487963 C0,61.2314815 17.8818004,78.8580247 39.9401957,78.8580247 C61.998591,78.8580247 79.8803914,61.2314815 79.8803914,39.487963 C79.8803914,17.7444444 61.998591,0.117901235 39.9401957,0.117901235 M39.9401957,4.39135802 C44.7488063,4.39135802 49.4111937,5.31867284 53.7978865,7.14768519 C58.0371037,8.91512346 61.8453229,11.4462963 65.1165558,14.6709877 C68.3879452,17.8955247 70.955773,21.6492284 72.7488063,25.8282407 C74.6043053,30.1521605 75.5450489,34.7479938 75.5450489,39.487963 C75.5450489,44.2277778 74.6043053,48.8236111 72.7488063,53.1478395 C70.955773,57.3265432 68.3879452,61.0804012 65.1165558,64.3050926 C61.8453229,67.5294753 58.0371037,70.0606481 53.7978865,71.8282407 C49.4111937,73.6570988 44.7488063,74.5845679 39.9401957,74.5845679 C35.1317417,74.5845679 30.4691977,73.6570988 26.0825049,71.8282407 C21.8432877,70.0606481 18.0350685,67.5294753 14.7638356,64.3050926 C11.4926027,61.0804012 8.9246184,57.3265432 7.13158513,53.1478395 C5.27608611,48.8236111 4.33534247,44.2277778 4.33534247,39.487963 C4.33534247,34.7479938 5.27608611,30.1521605 7.13158513,25.8282407 C8.9246184,21.6492284 11.4926027,17.8955247 14.7638356,14.6709877 C18.0350685,11.4462963 21.8432877,8.91512346 26.0825049,7.14768519 C30.4691977,5.31867284 35.1317417,4.39135802 39.9401957,4.39135802" id="Fill-3" fill="#C71532"></path>
                        </g>
                        <g id="Group-8" transform="translate(19.726027, 19.635185)">
                            <mask id="mask-2" fill="white">
                                <use xlink:href="#path-1"></use>
                            </mask>
                            <g id="Clip-7"></g>
                            <polygon id="Fill-6" fill="#C71532" mask="url(#mask-2)" points="-0.920861057 40.7225309 41.3491977 40.7225309 41.3491977 -0.944135802 -0.920861057 -0.944135802"></polygon>
                        </g>
                    </g>
                </g>
            </g>
        </g>
    </g>
</svg>