<?xml version="1.0" encoding="UTF-8"?>
<svg width="1281px" height="235px" viewBox="0 0 1281 235" version="1.1" xmlns="http://www.w3.org/2000/svg" xmlns:xlink="http://www.w3.org/1999/xlink">
    <!-- Generator: Sketch 54.1 (76490) - https://sketchapp.com -->
    <title>sonar_bg_triangle</title>
    <desc>Created with Sketch.</desc>
    <g id="mockup" stroke="none" stroke-width="1" fill="none" fill-rule="evenodd" stroke-opacity="0.3">
        <g id="sonar-1440" transform="translate(-79.000000, -311.000000)" stroke="#FFFFFF" stroke-width="2">
            <g id="hero" transform="translate(79.000000, 96.000000)">
                <g id="hero_bg">
                    <g id="sonar_bg_triangle" transform="translate(-87.000000, 123.941786)">
                        <polygon id="Path-3" points="33.2079089 200.650272 163.394074 187.058214 176.207909 285.058214"></polygon>
                        <polygon id="Path-3-Copy-12" transform="translate(82.707909, 183.058214) rotate(128.000000) translate(-82.707909, -183.058214) " points="11.2079089 147.650272 141.394074 134.058214 154.207909 232.058214"></polygon>
                        <polygon id="Path-3-Copy" transform="translate(129.799284, 244.221128) rotate(-143.000000) translate(-129.799284, -244.221128) " points="58.299284 208.813186 188.485449 195.221128 201.299284 293.221128"></polygon>
                        <polygon id="Path-3-Copy-2" transform="translate(119.327549, 264.010715) rotate(-243.000000) translate(-119.327549, -264.010715) " points="47.8275494 228.602773 178.013715 215.010715 190.827549 313.010715"></polygon>
                        <polygon id="Path-3-Copy-3" transform="translate(213.703401, 304.326985) rotate(-310.000000) translate(-213.703401, -304.326985) " points="142.203401 268.919043 272.389566 255.326985 285.203401 353.326985"></polygon>
                        <polygon id="Path-3-Copy-4" transform="translate(392.327549, 281.010715) rotate(-243.000000) translate(-392.327549, -281.010715) " points="320.827549 245.602773 451.013715 232.010715 463.827549 330.010715"></polygon>
                        <polygon id="Path-3-Copy-5" transform="translate(241.971419, 290.760218) rotate(-73.000000) translate(-241.971419, -290.760218) " points="170.471419 255.352276 300.657584 241.760218 313.471419 339.760218"></polygon>
                        <polygon id="Path-3-Copy-13" transform="translate(169.971419, 327.760218) rotate(-73.000000) translate(-169.971419, -327.760218) " points="98.4714189 292.352276 228.657584 278.760218 241.471419 376.760218"></polygon>
                        <polygon id="Path-3-Copy-31" transform="translate(173.940169, 237.018030) rotate(-18.000000) translate(-173.940169, -237.018030) " points="102.440169 201.610088 232.626334 188.01803 245.440169 286.01803"></polygon>
                        <polygon id="Path-3-Copy-6" transform="translate(385.909913, 281.821724) rotate(-163.000000) translate(-385.909913, -281.821724) " points="314.409913 246.413782 444.596078 232.821724 457.409913 330.821724"></polygon>
                        <polygon id="Path-3-Copy-7" transform="translate(249.765327, 307.666747) rotate(-379.000000) translate(-249.765327, -307.666747) " points="178.265327 272.258805 308.451492 258.666747 321.265327 356.666747"></polygon>
                        <polygon id="Path-3-Copy-8" transform="translate(443.296299, 332.514621) rotate(-364.000000) translate(-443.296299, -332.514621) " points="371.796299 297.106679 501.982465 283.514621 514.796299 381.514621"></polygon>
                        <polygon id="Path-3-Copy-9" transform="translate(495.327549, 297.010715) rotate(-243.000000) translate(-495.327549, -297.010715) " points="423.827549 261.602773 554.013715 248.010715 566.827549 346.010715"></polygon>
                        <polygon id="Path-3-Copy-10" transform="translate(409.784581, 309.170871) scale(-1, 1) rotate(-66.000000) translate(-409.784581, -309.170871) " points="338.284581 273.762929 468.470746 260.170871 481.284581 358.170871"></polygon>
                        <polygon id="Path-3-Copy-33" transform="translate(272.291588, 262.369310) scale(-1, 1) rotate(-139.000000) translate(-272.291588, -262.369310) " points="200.791588 226.961368 330.977753 213.36931 343.791588 311.36931"></polygon>
                        <polygon id="Path-3-Copy-32" transform="translate(191.627525, 183.314622) scale(-1, 1) rotate(-48.000000) translate(-191.627525, -183.314622) " points="120.127525 147.90668 250.31369 134.314622 263.127525 232.314622"></polygon>
                        <polygon id="Path-3-Copy-34" transform="translate(67.500000, 78.000000) scale(-1, 1) rotate(-262.000000) translate(-67.500000, -78.000000) " points="-4 42.592058 126.186165 29 139 127"></polygon>
                        <polygon id="Path-3-Copy-11" transform="translate(511.315831, 327.354465) scale(-1, 1) rotate(-85.000000) translate(-511.315831, -327.354465) " points="439.815831 291.946523 570.001996 278.354465 582.815831 376.354465"></polygon>
                        <polygon id="Path-3-Copy-8" transform="translate(603.296299, 332.514621) rotate(-364.000000) translate(-603.296299, -332.514621) " points="531.796299 297.106679 661.982465 283.514621 674.796299 381.514621"></polygon>
                        <polygon id="Path-3-Copy-9" transform="translate(655.327549, 297.010715) rotate(-243.000000) translate(-655.327549, -297.010715) " points="583.827549 261.602773 714.013715 248.010715 726.827549 346.010715"></polygon>
                        <polygon id="Path-3-Copy-10" transform="translate(569.784581, 309.170871) scale(-1, 1) rotate(-66.000000) translate(-569.784581, -309.170871) " points="498.284581 273.762929 628.470746 260.170871 641.284581 358.170871"></polygon>
                        <polygon id="Path-3-Copy-11" transform="translate(658.253085, 297.556766) scale(-1, 1) rotate(-85.000000) translate(-658.253085, -297.556766) " points="586.753085 262.148824 716.93925 248.556766 729.753085 346.556766"></polygon>
                        <polygon id="Path-3-Copy-8" transform="translate(633.971419, 297.760218) scale(-1, 1) rotate(-287.000000) translate(-633.971419, -297.760218) " points="562.471419 262.352276 692.657584 248.760218 705.471419 346.760218"></polygon>
                        <polygon id="Path-3-Copy-9" transform="translate(795.732237, 308.884634) scale(-1, 1) rotate(-391.000000) translate(-795.732237, -308.884634) " points="724.232237 273.476692 854.418402 259.884634 867.232237 357.884634"></polygon>
                        <polygon id="Path-3-Copy-25" transform="translate(893.732237, 300.884634) scale(-1, 1) rotate(-251.000000) translate(-893.732237, -300.884634) " points="822.232237 265.476692 952.418402 251.884634 965.232237 349.884634"></polygon>
                        <polygon id="Path-3-Copy-26" transform="translate(870.279112, 303.677603) scale(-1, 1) rotate(-491.000000) translate(-870.279112, -303.677603) " points="798.779112 268.269661 928.965277 254.677603 941.779112 352.677603"></polygon>
                        <polygon id="Path-3-Copy-27" transform="translate(926.466612, 297.939322) scale(-1, 1) rotate(-444.000000) translate(-926.466612, -297.939322) " points="854.966612 262.53138 985.152777 248.939322 997.966612 346.939322"></polygon>
                        <polygon id="Path-3-Copy-28" transform="translate(1032.732237, 248.884634) scale(-1, 1) rotate(-391.000000) translate(-1032.732237, -248.884634) " points="961.232237 213.476692 1091.4184 199.884634 1104.23224 297.884634"></polygon>
                        <polygon id="Path-3-Copy-30" transform="translate(953.732237, 328.884634) scale(-1, 1) rotate(-391.000000) translate(-953.732237, -328.884634) " points="882.232237 293.476692 1012.4184 279.884634 1025.23224 377.884634"></polygon>
                        <polygon id="Path-3-Copy-29" transform="translate(792.587705, 293.708853) scale(-1, 1) rotate(-455.000000) translate(-792.587705, -293.708853) " points="721.087705 258.300911 851.273871 244.708853 864.087705 342.708853"></polygon>
                        <polygon id="Path-3-Copy-10" transform="translate(806.768956, 308.803684) scale(-1, 1) rotate(-308.000000) translate(-806.768956, -308.803684) " points="735.268956 273.395742 865.455121 259.803684 878.268956 357.803684"></polygon>
                        <polygon id="Path-3-Copy-11" transform="translate(709.253085, 320.556766) scale(-1, 1) rotate(-85.000000) translate(-709.253085, -320.556766) " points="637.753085 285.148824 767.93925 271.556766 780.753085 369.556766"></polygon>
                        <polygon id="Path-3-Copy-14" transform="translate(1355.971419, 300.760218) rotate(-73.000000) translate(-1355.971419, -300.760218) " points="1284.47142 265.352276 1414.65758 251.760218 1427.47142 349.760218"></polygon>
                        <polygon id="Path-3-Copy-15" transform="translate(1298.807123, 242.767923) rotate(47.000000) translate(-1298.807123, -242.767923) " points="1227.30712 207.359981 1357.49329 193.767923 1370.30712 291.767923"></polygon>
                        <polygon id="Path-3-Copy-16" transform="translate(1297.130164, 255.315149) rotate(-42.000000) translate(-1297.130164, -255.315149) " points="1225.63016 219.907207 1355.81633 206.315149 1368.63016 304.315149"></polygon>
                        <polygon id="Path-3-Copy-35" transform="translate(1323.667273, 208.447961) rotate(-24.000000) translate(-1323.667273, -208.447961) " points="1252.16727 173.040019 1382.35344 159.447961 1395.16727 257.447961"></polygon>
                        <polygon id="Path-3-Copy-36" transform="translate(1358.274864, 160.327440) scale(-1, 1) rotate(-79.000000) translate(-1358.274864, -160.327440) " points="1286.77486 124.919497 1416.96103 111.32744 1429.77486 209.32744"></polygon>
                        <polygon id="Path-3-Copy-37" transform="translate(1340.061812, 127.559042) scale(-1, 1) rotate(-189.000000) translate(-1340.061812, -127.559042) " points="1268.56181 92.1511001 1398.74798 78.5590422 1411.56181 176.559042"></polygon>
                        <polygon id="Path-3-Copy-17" transform="translate(1281.971419, 308.760218) rotate(-73.000000) translate(-1281.971419, -308.760218) " points="1210.47142 273.352276 1340.65758 259.760218 1353.47142 357.760218"></polygon>
                        <polygon id="Path-3-Copy-18" transform="translate(1215.284469, 278.460849) rotate(51.000000) translate(-1215.284469, -278.460849) " points="1143.78447 243.052907 1273.97063 229.460849 1286.78447 327.460849"></polygon>
                        <polygon id="Path-3-Copy-19" transform="translate(1186.971419, 274.760218) rotate(-73.000000) translate(-1186.971419, -274.760218) " points="1115.47142 239.352276 1245.65758 225.760218 1258.47142 323.760218"></polygon>
                        <polygon id="Path-3-Copy-20" transform="translate(1032.655013, 286.986780) rotate(67.000000) translate(-1032.655013, -286.986780) " points="961.155013 251.578838 1091.34118 237.98678 1104.15501 335.98678"></polygon>
                        <polygon id="Path-3-Copy-21" transform="translate(1008.971419, 344.760218) rotate(-73.000000) translate(-1008.971419, -344.760218) " points="937.471419 309.352276 1067.65758 295.760218 1080.47142 393.760218"></polygon>
                        <polygon id="Path-3-Copy-22" transform="translate(1060.678450, 306.471155) rotate(76.000000) translate(-1060.678450, -306.471155) " points="989.17845 271.063213 1119.36462 257.471155 1132.17845 355.471155"></polygon>
                        <polygon id="Path-3-Copy-23" transform="translate(1120.893294, 286.635218) rotate(-8.000000) translate(-1120.893294, -286.635218) " points="1049.39329 251.227276 1179.57946 237.635218 1192.39329 335.635218"></polygon>
                        <polygon id="Path-3-Copy-24" transform="translate(1180.707909, 271.058214) rotate(-180.000000) translate(-1180.707909, -271.058214) " points="1109.20791 235.650272 1239.39407 222.058214 1252.20791 320.058214"></polygon>
                    </g>
                </g>
            </g>
        </g>
    </g>
</svg>