<?xml version="1.0" encoding="UTF-8"?>
<svg width="561px" height="120px" viewBox="0 0 561 120" version="1.1" xmlns="http://www.w3.org/2000/svg" xmlns:xlink="http://www.w3.org/1999/xlink">
    <!-- Generator: Sketch 54.1 (76490) - https://sketchapp.com -->
    <title>sonar_logo_reverse</title>
    <desc>Created with Sketch.</desc>
    <defs>
        <polygon id="path-1" points="0.219463918 0.740659794 13.6738144 0.740659794 13.6738144 14.1967423 0.219463918 14.1967423"></polygon>
    </defs>
    <g id="mockup" stroke="none" stroke-width="1" fill="none" fill-rule="evenodd">
        <g id="sonar-1440" transform="translate(-439.000000, -196.000000)">
            <g id="hero" transform="translate(79.000000, 96.000000)">
                <g id="sonar_logo_reverse" transform="translate(360.000000, 100.000000)">
                    <path d="M88.9515464,88.9511753 C81.2146392,96.6880825 70.9268041,100.949938 59.9795876,100.949938 C49.0348454,100.949938 38.7457732,96.6880825 31.0063918,88.9511753 C28.9837113,86.9284948 27.1602062,84.6744742 25.5853608,82.2546804 L25.1412371,81.5705567 L25.9478351,81.4480825 C27.8257732,81.1635464 29.5206186,80.188701 30.7206186,78.7041649 L31.1721649,78.1474639 L31.5680412,78.7449897 C32.8286598,80.6439588 34.2884536,82.4291134 35.9078351,84.049732 C42.3371134,90.4765361 50.885567,94.0171546 59.9795876,94.0171546 C69.0736082,94.0171546 77.6220619,90.4765361 84.0501031,84.049732 C90.4781443,77.6216907 94.02,69.0732371 94.02,59.9792165 C94.02,52.0592165 91.3812371,44.6563299 86.383299,38.5338557 L82.4195876,42.497567 C86.3659794,47.5363299 88.4492784,53.5709691 88.4492784,59.9816907 C88.4492784,67.5911753 85.4876289,74.7416907 80.111134,80.112 C74.7321649,85.489732 67.5828866,88.4501443 59.9783505,88.4501443 C59.8496907,88.4501443 59.722268,88.4414845 59.5948454,88.4340619 L59.3362887,88.4192165 L58.4047423,88.3981856 L58.903299,87.6113814 C59.677732,86.3915876 60.0872165,84.9936495 60.0872165,83.5684948 C60.0872165,83.0971546 60.0389691,82.609732 59.9437113,82.1210722 L59.8237113,81.5074639 L60.4484536,81.4938557 C66.0327835,81.3750928 71.274433,79.1433402 75.2084536,75.2105567 C79.2760825,71.1466392 81.5164948,65.7379794 81.5164948,59.9816907 C81.5164948,55.4439588 80.1185567,51.1227216 77.4686598,47.4484948 L73.4591753,51.4579794 C75.0896907,54.0200412 75.9482474,56.9557113 75.9482474,59.9792165 C75.9482474,64.2398351 74.2880412,68.2505567 71.2719588,71.2703505 C68.2546392,74.286433 64.2439175,75.9478763 59.9783505,75.9478763 C55.7140206,75.9478763 51.7045361,74.286433 48.6872165,71.2715876 C45.6723711,68.2579794 44.0121649,64.2472577 44.0121649,59.9792165 C44.0121649,55.7161237 45.6723711,51.7054021 48.6859794,48.6880825 C51.3284536,46.0443711 54.8307216,44.4051959 58.5482474,44.0736495 C58.6571134,44.0625155 58.7709278,44.0563299 58.882268,44.0563299 C60.6451546,44.0563299 62.1507216,45.4456082 62.3115464,47.2171546 C62.482268,49.1198351 61.0719588,50.8072577 59.1680412,50.9779794 C57.0661856,51.1660206 55.085567,52.0926186 53.5898969,53.5895258 C51.8826804,55.2967423 50.9424742,57.5656082 50.9424742,59.9792165 C50.9424742,62.3928247 51.8826804,64.6629278 53.5898969,66.3701443 C55.2142268,67.9957113 57.5424742,68.9272577 59.9783505,68.9272577 C62.416701,68.9272577 64.7461856,67.9957113 66.3680412,66.3701443 C68.0752577,64.6616907 69.016701,62.3928247 69.016701,59.9792165 C69.016701,58.817567 68.7853608,57.6794227 68.3313402,56.5845773 L62.831134,62.0860206 C62.1717526,62.7454021 61.2909278,63.1091134 60.3507216,63.1091134 C59.4129897,63.1091134 58.5334021,62.7466392 57.8740206,62.0884948 C57.8740206,62.0872577 57.8727835,62.0872577 57.8715464,62.0860206 C57.2121649,61.4254021 56.8484536,60.5458144 56.8484536,59.6068454 C56.8484536,58.6678763 57.2121649,57.7870515 57.8715464,57.126433 L88.6162887,26.3804536 C89.2781443,25.7210722 90.1589691,25.3573608 91.096701,25.3573608 C92.0356701,25.3573608 92.9164948,25.7210722 93.5758763,26.3804536 C94.2352577,27.0410722 94.5989691,27.9218969 94.5989691,28.860866 C94.5989691,29.7998351 94.2352577,30.6806598 93.5758763,31.3412784 L91.314433,33.6027216 C97.5334021,40.9684948 100.951546,50.3173608 100.951546,59.9792165 C100.951546,70.9251959 96.6909278,81.214268 88.9515464,88.9511753 L88.9515464,88.9511753 Z M18.6538144,73.9437526 C18.6538144,70.5466392 21.4175258,67.7829278 24.8134021,67.7829278 C28.2105155,67.7829278 30.9754639,70.5466392 30.9754639,73.9437526 C30.9754639,77.340866 28.2105155,80.1045773 24.8134021,80.1045773 C21.4175258,80.1045773 18.6538144,77.340866 18.6538144,73.9437526 L18.6538144,73.9437526 Z M31.0063918,31.0072577 C37.0645361,24.9491134 44.7160825,20.9977732 53.1383505,19.5812784 C53.3276289,19.5515876 53.5107216,19.5379794 53.6901031,19.5379794 C55.402268,19.5379794 56.8484536,20.7528247 57.1292784,22.4254021 C57.4459794,24.3107629 56.1692784,26.1021031 54.2851546,26.4200412 C47.2979381,27.5915876 40.9428866,30.8736495 35.9078351,35.9099381 C29.4785567,42.3367423 25.936701,50.8851959 25.936701,59.9792165 C25.936701,61.8992165 26.1074227,63.8625155 26.4439175,65.8134433 L26.5651546,66.5235464 L25.8525773,66.4245773 C25.5123711,66.3763299 25.1672165,66.3441649 24.8134021,66.3441649 C23.2670103,66.3441649 21.7738144,66.814268 20.4946392,67.7062268 L19.8228866,68.1738557 L19.6769072,67.3672577 C19.2315464,64.9115876 19.0051546,62.4262268 19.0051546,59.9792165 C19.0051546,49.0307629 23.2670103,38.7429278 31.0063918,31.0072577 L31.0063918,31.0072577 Z M34.5878351,45.0682887 C34.5878351,41.8332371 37.2204124,39.2018969 40.4554639,39.2018969 C43.6892784,39.2018969 46.3218557,41.8332371 46.3218557,45.0682887 C46.3218557,48.3033402 43.6892784,50.9359175 40.4554639,50.9359175 C37.2204124,50.9359175 34.5878351,48.3033402 34.5878351,45.0682887 L34.5878351,45.0682887 Z M52.4851546,77.7021031 C55.7214433,77.7021031 58.3540206,80.3334433 58.3540206,83.5684948 C58.3540206,86.8035464 55.7214433,89.4361237 52.4851546,89.4361237 C49.2513402,89.4361237 46.6187629,86.8035464 46.6187629,83.5684948 C46.6187629,80.3334433 49.2513402,77.7021031 52.4851546,77.7021031 L52.4851546,77.7021031 Z M47.2435052,78.0893196 C45.8319588,79.4414845 45.0018557,81.2538557 44.9053608,83.1961237 L44.8595876,84.1289072 L44.0851546,83.6056082 C42.5610309,82.5750928 41.1346392,81.3998351 39.8468041,80.112 C34.4703093,74.7367423 31.5086598,67.5862268 31.5086598,59.9792165 C31.5086598,56.4645773 32.1593814,53.0043711 33.4410309,49.6938557 L33.7849485,48.803134 L34.3540206,49.5701443 C35.5230928,51.1462268 37.2191753,52.2027216 39.1292784,52.5441649 L39.7268041,52.6505567 L39.5375258,53.2258144 C38.8101031,55.4315876 38.4414433,57.7041649 38.4414433,59.9792165 C38.4414433,65.734268 40.6806186,71.1429278 44.7482474,75.2105567 C45.4360825,75.8996289 46.2142268,76.5590103 47.1940206,77.286433 L47.6938144,77.6588041 L47.2435052,78.0893196 Z M58.2290722,34.7940619 C58.6175258,36.6658144 57.4150515,38.5054021 55.5457732,38.897567 C52.8847423,39.4555052 50.3721649,40.512 48.0785567,42.0361237 L47.5738144,42.3713814 L47.3127835,41.8245773 C46.4703093,40.0592165 45.0068041,38.6971546 43.1894845,37.9895258 L42.3012371,37.643134 L43.0670103,37.0765361 C46.38,34.6245773 50.1,32.9544742 54.125567,32.1132371 C54.3618557,32.0649897 54.6006186,32.0402474 54.8393814,32.0402474 C56.4674227,32.0402474 57.8938144,33.1981856 58.2290722,34.7940619 L58.2290722,34.7940619 Z M59.9795876,0.00024742268 C26.8546392,0.00024742268 0.000618556701,26.8530309 0.000618556701,59.9792165 C0.000618556701,93.1041649 26.8546392,119.956948 59.9795876,119.956948 C93.1045361,119.956948 119.958557,93.1041649 119.958557,59.9792165 C119.958557,26.8530309 93.1045361,0.00024742268 59.9795876,0.00024742268 L59.9795876,0.00024742268 Z" id="Fill-1" fill="#FEFEFE"></path>
                    <polygon id="Fill-3" fill="#FEFEFE" points="137.773979 32.5997938 137.773979 42.6204124 152.248206 42.6204124 152.248206 87.1564948 162.268825 87.1564948 162.268825 32.5997938"></polygon>
                    <path d="M185.106928,45.9603711 L183.967546,45.9603711 C181.385691,45.9603711 178.944866,46.5467629 176.742804,47.5673814 L176.742804,32.5995464 L166.723423,32.5995464 L166.723423,87.1562474 L176.742804,87.1562474 L176.742804,63.205732 C176.742804,59.2222268 179.982804,55.9809897 183.967546,55.9809897 L185.106928,55.9809897 C189.09167,55.9809897 192.33167,59.2222268 192.33167,63.205732 L192.33167,87.1562474 L202.351052,87.1562474 L202.351052,63.205732 C202.351052,53.6960412 194.616619,45.9603711 185.106928,45.9603711" id="Fill-5" fill="#FEFEFE"></path>
                    <path d="M292.537608,71.0372784 C292.537608,75.0207835 289.297608,78.2607835 285.312866,78.2607835 L284.173485,78.2607835 C280.189979,78.2607835 276.948742,75.0207835 276.948742,71.0372784 L276.948742,62.0929485 C276.948742,58.1082062 280.189979,54.8682062 284.173485,54.8682062 L285.312866,54.8682062 C289.297608,54.8682062 292.537608,58.1082062 292.537608,62.0929485 L292.537608,65.4578969 L292.537608,71.0372784 Z M294.764412,44.8475876 L294.764412,47.6842887 C292.047711,45.8954227 288.801526,44.8475876 285.312866,44.8475876 L284.173485,44.8475876 C275.037402,44.8475876 267.557814,51.9956289 266.985031,60.9906804 L266.985031,72.1383093 C267.557814,81.1333608 275.037402,88.2826392 284.173485,88.2826392 L285.312866,88.2826392 C288.801526,88.2826392 292.047711,87.233567 294.764412,85.444701 L294.764412,87.1556289 L302.558227,87.1556289 L302.558227,44.8475876 L294.764412,44.8475876 Z" id="Fill-7" fill="#FEFEFE"></path>
                    <path d="M227.900907,45.3701443 C224.070804,45.3701443 219.632041,46.6270515 215.711629,48.7833402 L215.711629,44.8468454 L205.692247,44.8468454 L205.692247,87.1561237 L215.711629,87.1561237 L215.711629,62.6155052 C215.711629,59.712 223.03534,55.980866 227.960289,55.980866 L227.900907,45.3701443 Z" id="Fill-9" fill="#FEFEFE"></path>
                    <path d="M239.094062,62.6614021 L239.094062,62.0923299 C239.094062,58.1075876 242.334062,54.8675876 246.317567,54.8675876 L247.458186,54.8675876 C251.440454,54.8675876 254.681691,58.1075876 254.681691,62.0923299 L254.681691,62.6614021 L239.094062,62.6614021 Z M247.458186,44.8469691 L246.317567,44.8469691 C236.809113,44.8469691 229.072206,52.5838763 229.072206,62.0923299 L229.129113,72.1376907 C229.70066,81.1327423 237.180247,88.2820206 246.317567,88.2820206 L247.458186,88.2820206 C255.750557,88.2820206 264.702309,82.9661443 264.702309,74.3781031 L254.681691,74.3781031 C254.681691,76.2659381 250.969113,78.2614021 247.458186,78.2614021 L246.317567,78.2614021 C242.334062,78.2614021 239.094062,75.0214021 239.094062,71.0378969 L239.094062,70.4552165 L264.702309,70.4552165 L264.702309,62.0923299 C264.702309,52.5838763 256.965402,44.8469691 247.458186,44.8469691 L247.458186,44.8469691 Z" id="Fill-11" fill="#FEFEFE"></path>
                    <path d="M315.918309,53.3539794 L323.712124,53.3539794 L323.712124,45.7469691 L315.918309,45.7469691 L315.918309,38.1671753 L305.897691,38.1671753 L305.897691,76.7700619 C305.897691,80.1783093 306.820577,82.7131546 308.722021,84.5218144 C311.120784,86.8067629 314.242021,87.1556289 317.420165,87.1556289 C318.127794,87.1556289 322.837485,87.0690309 323.712124,87.0690309 L323.712124,77.2884124 L317.031711,77.2884124 C316.416866,77.2884124 315.918309,76.8022268 315.918309,76.2022268 L315.918309,53.3539794 Z" id="Fill-13" fill="#FEFEFE"></path>
                    <path d="M362.072165,54.9179381 L344.439588,54.9179381 C341.362887,54.9179381 338.858969,52.5562887 338.858969,49.6540206 L338.858969,47.7835052 C338.858969,44.8812371 341.362887,42.5195876 344.439588,42.5195876 L372.347629,42.5195876 L372.347629,32.5991753 L344.439588,32.5991753 C335.836701,32.5991753 328.839588,39.4107216 328.839588,47.7835052 L328.839588,49.6540206 C328.839588,58.025567 335.836701,64.8383505 344.439588,64.8383505 L362.072165,64.8383505 C365.148866,64.8383505 367.652784,67.2 367.652784,70.102268 L367.652784,71.9715464 C367.652784,74.8750515 365.148866,77.236701 362.072165,77.236701 L330.741031,77.236701 L330.741031,87.1558763 L362.072165,87.1558763 C370.675052,87.1558763 377.673402,80.3443299 377.673402,71.9715464 L377.673402,70.102268 C377.673402,61.7294845 370.675052,54.9179381 362.072165,54.9179381" id="Fill-15" fill="#FEFEFE"></path>
                    <path d="M397.215093,56.068701 C394.135918,56.068701 391.629526,58.5738557 391.629526,61.654268 L391.629526,70.9054021 C391.629526,73.9858144 394.135918,76.4909691 397.215093,76.4909691 L404.973031,76.4909691 C408.053443,76.4909691 410.557361,73.9858144 410.557361,70.9054021 L410.557361,61.654268 C410.557361,58.5738557 408.053443,56.068701 404.973031,56.068701 L397.215093,56.068701 Z M405.429526,87.7128247 L396.758598,87.7128247 C387.792,87.7128247 380.495505,80.417567 380.495505,71.449732 L380.495505,61.1099381 C380.495505,52.1421031 387.792,44.8468454 396.758598,44.8468454 L405.429526,44.8468454 C414.396124,44.8468454 421.691381,52.1421031 421.691381,61.1099381 L421.691381,71.449732 C421.691381,80.417567 414.396124,87.7128247 405.429526,87.7128247 L405.429526,87.7128247 Z" id="Fill-17" fill="#FEFEFE"></path>
                    <g id="Group-21" transform="translate(546.804124, 72.947753)">
                        <mask id="mask-2" fill="white">
                            <use xlink:href="#path-1"></use>
                        </mask>
                        <g id="Clip-20"></g>
                        <path d="M6.9468866,0.740659794 C3.23059794,0.740659794 0.219463918,3.75303093 0.219463918,7.46808247 C0.219463918,11.1843711 3.23059794,14.1967423 6.9468866,14.1967423 C10.6619381,14.1967423 13.6743093,11.1843711 13.6743093,7.46808247 C13.6743093,3.75303093 10.6619381,0.740659794 6.9468866,0.740659794" id="Fill-19" fill="#FEFEFE" mask="url(#mask-2)"></path>
                    </g>
                    <path d="M558.530351,54.3077938 L558.530351,44.2896495 L549.070144,44.2896495 C529.085814,44.2896495 517.625196,54.1803711 517.625196,71.4269691 L517.625196,87.1444948 L527.642103,87.1444948 L527.642103,71.4269691 C527.642103,54.3077938 543.769113,54.3077938 549.070144,54.3077938 L558.530351,54.3077938 Z" id="Fill-22" fill="#FEFEFE"></path>
                    <path d="M549.069526,69.8913402 L558.529732,69.8913402 L558.529732,59.8731959 L549.069526,59.8731959 C543.123959,59.8731959 538.592412,60.6018557 535.800247,64.1536082 C533.396536,67.2117526 533.397773,70.9824742 533.400247,75.7564948 L533.400092,87.1441237 L543.418392,87.1441237 L543.418392,75.7527835 C543.418392,75.2863918 543.417155,74.7964948 543.420866,74.3065979 C543.435711,71.9127835 545.342103,69.9754639 547.73468,69.9086598 C548.140454,69.8975258 548.58334,69.8913402 549.069526,69.8913402" id="Fill-24" fill="#FEFEFE"></path>
                    <path d="M491.317856,77.6830515 L482.283216,77.6830515 C480.057649,77.6830515 478.294763,75.6628454 478.732701,73.3593402 C479.061773,71.6323299 480.681155,70.4496495 482.44033,70.4484124 L500.536825,70.4484124 C500.583835,70.4484124 500.619711,70.4941856 500.60734,70.5399588 C499.514969,74.6471753 495.765278,77.6830515 491.317856,77.6830515 L491.317856,77.6830515 Z M513.176412,58.4150103 C513.139299,50.928 507.04033,44.8463505 499.543423,44.8463505 L474.499299,44.8463505 L474.499299,54.8644948 L499.543423,54.8644948 C501.538887,54.8644948 503.161979,56.4875876 503.161979,58.4818144 L503.161979,60.430268 L482.277031,60.4315052 C474.347134,60.4315052 467.978474,67.2405773 468.70466,75.3201649 C469.341773,82.422433 475.613938,87.7011959 482.743423,87.7011959 L491.24734,87.7011959 C495.730639,87.7011959 499.850227,86.1869691 503.161979,83.6632577 L503.161979,87.1444948 L513.180124,87.1444948 L513.180124,58.4150103 L513.176412,58.4150103 Z" id="Fill-26" fill="#FEFEFE"></path>
                    <polygon id="Fill-28" fill="#FEFEFE" points="455.228907 44.8464742 455.228907 70.6588454 435.31633 44.8477113 435.31633 44.8464742 425.174474 44.8464742 425.174474 87.1446186 435.31633 87.1446186 435.31633 61.3433814 455.228907 87.1446186 465.369526 87.1446186 465.369526 44.8464742"></polygon>
                </g>
            </g>
        </g>
    </g>
</svg>