<?xml version="1.0" encoding="UTF-8"?>
<svg width="121px" height="119px" viewBox="0 0 121 119" version="1.1" xmlns="http://www.w3.org/2000/svg" xmlns:xlink="http://www.w3.org/1999/xlink">
    <!-- Generator: Sketch 54.1 (76490) - https://sketchapp.com -->
    <title>icon/elegant</title>
    <desc>Created with Sketch.</desc>
    <defs>
        <polygon id="path-1" points="9.06801008e-05 0.044852361 119.95466 0.044852361 119.95466 118.709219 9.06801008e-05 118.709219"></polygon>
    </defs>
    <g id="mockup" stroke="none" stroke-width="1" fill="none" fill-rule="evenodd">
        <g id="sonar-1440" transform="translate(-194.000000, -1027.000000)">
            <g id="block_An-Elegant-Threat-Hunting-Solution" transform="translate(130.207909, 921.000000)">
                <g id="content" transform="translate(0.000000, 106.000000)">
                    <g id="Group">
                        <g id="icon/elegant" transform="translate(64.000000, 0.000000)">
                            <g id="Group-5">
                                <g transform="translate(0.000000, 0.254163)">
                                    <mask id="mask-2" fill="white">
                                        <use xlink:href="#path-1"></use>
                                    </mask>
                                    <g id="Clip-4"></g>
                                    <path d="M59.9774207,0.0448224594 C93.1019547,0.0448224594 119.954751,26.6087828 119.954751,59.3770206 C119.954751,92.1452585 93.1019547,118.709219 59.9774207,118.709219 C26.8528866,118.709219 9.06801e-05,92.1452585 9.06801e-05,59.3770206 C9.06801e-05,26.6087828 26.8528866,0.0448224594 59.9774207,0.0448224594 Z M59.9774207,6.48502346 C45.6959093,6.48502346 32.2692091,11.9869131 22.1704685,21.9767299 C12.0720302,31.9668458 6.51031738,45.249125 6.51031738,59.3770206 C6.51031738,73.5049163 12.0720302,86.7871955 22.1704685,96.7773114 C32.2692091,106.767128 45.6959093,112.269018 59.9774207,112.269018 C74.258932,112.269018 87.6856322,106.767128 97.7843728,96.7773114 C107.882811,86.7871955 113.444524,73.5049163 113.444524,59.3770206 C113.444524,45.249125 107.882811,31.9668458 97.7843728,21.9767299 C87.6856322,11.9869131 74.258932,6.48502346 59.9774207,6.48502346 Z M69.2103508,70.9763882 L66.2026139,68.0010033 C66.1900219,67.9888345 66.1775691,67.976516 66.1652588,67.96405 L50.7181934,52.6831373 L39.9408142,51.6897373 C38.7035062,51.575689 37.7936947,50.4884878 37.9086934,49.2614054 C38.0236921,48.0343231 39.1199533,47.1320307 40.3572614,47.246079 L45.7218742,47.7405597 L39.3566747,41.443826 C38.4768905,40.573505 38.4750985,39.1606586 39.3526722,38.2881454 C40.2302459,37.4156321 41.654866,37.4138549 42.5346502,38.284176 L53.3078944,48.9415403 C53.3170505,48.9504451 53.3261287,48.9594257 53.335128,48.968481 L64.4852088,59.9986286 L61.9628931,44.0272313 L53.3322314,35.9687581 C47.1083966,29.8118686 40.4428658,27.3807562 30.6116958,29.5372928 C29.2761585,36.9783329 29.144494,38.8820747 29.8740668,41.9713975 C30.3410012,43.9485973 31.2553543,45.8713615 32.7550599,47.9239451 L53.7309312,71.1458633 C53.9601621,70.0108685 55.0377489,69.2268279 56.2146704,69.3721149 L69.2103508,70.9763882 Z M74.404698,76.1148637 L56.1880447,73.8660787 L60.9870409,79.1789401 C65.1763589,83.2658782 74.9513218,84.4122795 80.1422552,81.7907062 L74.404698,76.1148637 Z M77.0202563,72.3988459 C77.0306191,72.4089018 77.0408817,72.4190541 77.0510429,72.4293013 L83.4433137,78.7528151 C86.6435658,74.0396352 86.4574579,67.1103694 82.6486429,63.3415742 L67.3055663,49.0157004 L69.8834217,65.338777 L77.0202563,72.3988459 Z M83.4293912,85.0424849 C76.5742225,89.4711205 63.6212727,88.0885706 57.7667906,82.2970608 L57.6798826,82.2061191 L29.3272378,50.8175398 L29.1869814,50.6458708 C27.3032568,48.0913765 26.1086672,45.5976447 25.4926306,42.989083 C24.5175258,38.8600729 24.7395291,36.6566042 26.4428108,27.3105526 L26.6993507,25.9028961 L28.0962294,25.5464196 C40.3525223,22.4186753 48.9369555,25.3173165 56.4635183,32.7642375 L85.7798849,60.1370092 C91.4314208,65.7274407 91.5443038,75.5259666 86.6720483,81.9468207 L94.3157082,89.5082633 C95.1954924,90.3785844 95.1972844,91.7914307 94.3197106,92.663944 C93.4421369,93.5364573 92.0175169,93.5382344 91.1377326,92.6679134 L83.4293912,85.0424849 Z" id="Combined-Shape" fill="#C71532" mask="url(#mask-2)"></path>
                                </g>
                            </g>
                        </g>
                    </g>
                </g>
            </g>
        </g>
    </g>
</svg>