<?xml version="1.0" encoding="UTF-8"?>
<svg width="180px" height="180px" viewBox="0 0 180 180" version="1.1" xmlns="http://www.w3.org/2000/svg" xmlns:xlink="http://www.w3.org/1999/xlink">
    <!-- Generator: Sketch 54.1 (76490) - https://sketchapp.com -->
    <title>icon/Linkage discovery</title>
    <desc>Created with Sketch.</desc>
    <g id="mockup" stroke="none" stroke-width="1" fill="none" fill-rule="evenodd">
        <g id="vision-1440" transform="translate(-221.000000, -2118.000000)">
            <g id="block_Sample-analysis" transform="translate(80.000000, 1686.000000)">
                <g id="Linkage-discovery" transform="translate(81.000000, 394.000000)">
                    <g id="icon/Linkage-discovery" transform="translate(60.000000, 38.000000)">
                        <g>
                            <circle id="Oval" fill="#FFFFFF" cx="90" cy="90" r="90"></circle>
                            <g id="Group" transform="translate(32.000000, 30.000000)">
                                <path d="M56.6623037,42.1732039 L34.826163,34.0599272 L34.6507448,33.8365025 L56.6623037,20.852243 L56.6623037,42.1732039 L34.826163,34.0599272 L34.6507448,33.8365025 L0.72295858,53.84995 L0.612565445,53.8335844 L0.72295858,53.84995 L0.306282723,54.0957403 L0.72295858,53.84995 L56.6623037,62.1428571 L0.72295858,53.84995 L34.6507448,33.8365025 L17.4581152,11.9387755 L34.6507448,33.8365025 L56.6623037,20.852243 L56.6623037,42.1732039 L64.7821994,45.1901729 L56.742895,61.974599 L86.6780105,100.102041 L56.742895,61.974599 L64.7821994,45.1901729 L64.9482785,45.25188 L64.9319372,45.2621559 L64.9482785,45.25188 L98.4220418,57.6891466 L86.6780105,100.102041 L98.4220418,57.6891466 L117,64.5918367 L98.4220418,57.6891466 L109.649215,17.1428571 L98.4220418,57.6891466 L64.9482785,45.25188 L109.649215,17.1428571 L64.9482785,45.25188 L64.7821994,45.1901729 L84.2277487,4.59183673 L64.7821994,45.1901729 L56.6623037,42.1732039 L56.6623037,61.8719523 L56.742895,61.974599 L48.2945033,79.6131156 L48.2360947,79.6257765 L0.306282723,54.0957403 L48.2360947,79.6257765 L14.7015707,86.8948089 L48.2360947,79.6257765 L48.2777991,79.6479905 L29.0968586,119.693878 L48.2777991,79.6479905 L86.6780105,100.102041 L48.2777991,79.6479905 L48.2945033,79.6131156 L48.3926702,79.5918367 L48.2945033,79.6131156 L48.2777991,79.6479905 L48.2360947,79.6257765 L48.2945033,79.6131156 L56.742895,61.974599 L56.6623037,61.8719523 L56.6623037,62.1428571 L56.6623037,61.8719523 L34.826163,34.0599272 L34.6099476,33.9795918 L34.826163,34.0599272 L56.6623037,61.8719523 L56.6623037,42.1732039 Z M56.6623037,20.852243 L84.2277487,4.59183673 L56.6623037,20.852243 L56.6623037,8.26530612 L56.6623037,20.852243 Z M0.306282723,54.0957403 L17.4581152,11.9387755 L0.306282723,54.0957403 Z M84.2277487,4.59183673 L17.4581152,11.9387755 L84.2277487,4.59183673 Z M84.2277487,4.59183673 L109.649215,17.1428571 L84.2277487,4.59183673 Z M117,64.5918367 L109.649215,17.1428571 L117,64.5918367 Z M29.0968586,119.693878 L0.306282723,54.0957403 L29.0968586,119.693878 Z M86.6780105,100.102041 L29.0968586,119.693878 L86.6780105,100.102041 Z M117,64.5918367 L86.6780105,100.102041 L117,64.5918367 Z" id="Combined-Shape" stroke="#F6AC19" stroke-width="2.44897959" stroke-linecap="square" stroke-linejoin="round"></path>
                                <ellipse id="Oval" fill="#5AA2BF" cx="17.7643979" cy="12.244898" rx="6.12565445" ry="6.12244898"></ellipse>
                                <ellipse id="Oval-Copy" fill="#5AA2BF" cx="48.3926702" cy="79.5918367" rx="6.12565445" ry="6.12244898"></ellipse>
                                <ellipse id="Oval-Copy-4" fill="#5AA2BF" cx="86.3717277" cy="99.7959184" rx="6.12565445" ry="6.12244898"></ellipse>
                                <ellipse id="Oval-Copy-2" fill="#5AA2BF" cx="14.7015707" cy="86.9387755" rx="6.12565445" ry="6.12244898"></ellipse>
                                <ellipse id="Oval-Copy-3" fill="#5AA2BF" cx="109.649215" cy="17.1428571" rx="6.12565445" ry="6.12244898"></ellipse>
                                <ellipse id="Oval-Copy-5" fill="#5AA2BF" cx="56.9685864" cy="6.12244898" rx="6.12565445" ry="6.12244898"></ellipse>
                            </g>
                        </g>
                    </g>
                </g>
            </g>
        </g>
    </g>
</svg>