<?xml version="1.0" encoding="UTF-8"?>
<svg width="180px" height="180px" viewBox="0 0 180 180" version="1.1" xmlns="http://www.w3.org/2000/svg" xmlns:xlink="http://www.w3.org/1999/xlink">
    <!-- Generator: Sketch 54.1 (76490) - https://sketchapp.com -->
    <title>icon/Malicious indicator collection</title>
    <desc>Created with Sketch.</desc>
    <g id="mockup" stroke="none" stroke-width="1" fill="none" fill-rule="evenodd">
        <g id="vision-1440" transform="translate(-220.000000, -1808.000000)">
            <g id="block_Sample-analysis" transform="translate(80.000000, 1686.000000)">
                <g id="Malicious-indicator-collection" transform="translate(80.000000, 84.000000)">
                    <g id="icon/Malicious-indicator-collection" transform="translate(60.000000, 38.000000)">
                        <g>
                            <circle id="Oval" fill="#FFFFFF" cx="90" cy="90" r="90"></circle>
                            <g id="Group-10" transform="translate(46.000000, 44.000000)">
                                <rect id="Rectangle" fill="#F6AC19" x="0" y="0" width="75" height="20"></rect>
                                <path d="M22.3642578,16 C22.1363921,16 21.9449878,15.9202482 21.7900391,15.7607422 C21.6350904,15.6012362 21.5576172,15.4121105 21.5576172,15.1933594 L21.5576172,5.63671875 C21.5576172,5.40885303 21.6350904,5.21744869 21.7900391,5.0625 C21.9449878,4.90755131 22.1363921,4.83007812 22.3642578,4.83007812 L22.7880859,4.83007812 C23.0159517,4.83007812 23.207356,4.90755131 23.3623047,5.0625 C23.5172534,5.21744869 23.5947266,5.40885303 23.5947266,5.63671875 L23.5947266,7.64648438 L23.5263672,9.01367188 C23.5263672,9.03190113 23.5332031,9.04557287 23.546875,9.0546875 C23.5605469,9.06380213 23.5764973,9.05924488 23.5947266,9.04101562 C24.3785846,8.32095994 25.1715455,7.9609375 25.9736328,7.9609375 C27.5960368,7.9609375 28.4072266,9.01366135 28.4072266,11.1191406 L28.4072266,15.1933594 C28.4072266,15.4121105 28.3274748,15.6012362 28.1679688,15.7607422 C28.0084627,15.9202482 27.819337,16 27.6005859,16 L27.1494141,16 C26.930663,16 26.7415373,15.9202482 26.5820312,15.7607422 C26.4225252,15.6012362 26.3427734,15.4121105 26.3427734,15.1933594 L26.3427734,11.3652344 C26.3427734,10.7727835 26.2561858,10.3512382 26.0830078,10.1005859 C25.9098299,9.84993364 25.6272806,9.72460938 25.2353516,9.72460938 C24.9436834,9.72460938 24.686199,9.78841082 24.4628906,9.91601562 C24.2395822,10.0436204 23.9775406,10.2532538 23.6767578,10.5449219 C23.62207,10.590495 23.5947266,10.645182 23.5947266,10.7089844 L23.5947266,15.1933594 C23.5947266,15.4121105 23.5172534,15.6012362 23.3623047,15.7607422 C23.207356,15.9202482 23.0159517,16 22.7880859,16 L22.3642578,16 Z M32.4404297,16.1914062 C31.7477179,16.1914062 31.1871766,15.9726584 30.7587891,15.5351562 C30.3304015,15.0976541 30.1162109,14.54167 30.1162109,13.8671875 C30.1162109,13.0377563 30.4671189,12.3929059 31.1689453,11.9326172 C31.8707717,11.4723284 32.9918543,11.1555998 34.5322266,10.9824219 C34.596029,10.9733072 34.6279297,10.9368493 34.6279297,10.8730469 C34.5641273,10.034501 34.1220744,9.61523438 33.3017578,9.61523438 C32.855141,9.61523438 32.3629584,9.74283727 31.8251953,9.99804688 C31.7067051,10.0527346 31.5882167,10.0800781 31.4697266,10.0800781 C31.3876949,10.0800781 31.3056645,10.0664064 31.2236328,10.0390625 C31.023111,9.98437473 30.8727219,9.86588633 30.7724609,9.68359375 C30.6995439,9.55598895 30.6630859,9.42838605 30.6630859,9.30078125 C30.6630859,9.22786422 30.6767577,9.15494828 30.7041016,9.08203125 C30.7587893,8.87239479 30.881835,8.71744842 31.0732422,8.6171875 C31.9573612,8.17968531 32.8232379,7.9609375 33.6708984,7.9609375 C34.664393,7.9609375 35.41406,8.25487987 35.9199219,8.84277344 C36.4257838,9.430667 36.6787109,10.2897079 36.6787109,11.4199219 L36.6787109,15.1933594 C36.6787109,15.4121105 36.6012378,15.6012362 36.4462891,15.7607422 C36.2913404,15.9202482 36.099936,16 35.8720703,16 L35.7626953,16 C35.5439442,16 35.3502613,15.9293627 35.1816406,15.7880859 C35.01302,15.6468092 34.910482,15.466798 34.8740234,15.2480469 L34.8603516,15.1796875 C34.8512369,15.1705729 34.8398438,15.1660156 34.8261719,15.1660156 C34.8124999,15.1660156 34.8011068,15.1705729 34.7919922,15.1796875 C33.9899048,15.85417 33.2060585,16.1914062 32.4404297,16.1914062 Z M33.1103516,14.5917969 C33.5934269,14.5917969 34.076495,14.3548201 34.5595703,13.8808594 C34.6051435,13.8352862 34.6279297,13.7805993 34.6279297,13.7167969 L34.6279297,12.3359375 C34.6279297,12.2721351 34.6005862,12.2402344 34.5458984,12.2402344 C34.5367838,12.2402344 34.5276693,12.2447916 34.5185547,12.2539062 C33.6526649,12.3723964 33.0306008,12.5524076 32.6523438,12.7939453 C32.2740867,13.035483 32.0849609,13.3385398 32.0849609,13.703125 C32.0849609,14.0039078 32.1783845,14.2272128 32.3652344,14.3730469 C32.5520843,14.5188809 32.8004542,14.5917969 33.1103516,14.5917969 Z M41.0263672,16.1914062 C40.2425091,16.1914062 39.46322,15.9726584 38.6884766,15.5351562 C38.506184,15.4348953 38.3968101,15.2708345 38.3603516,15.0429688 C38.3512369,14.9973956 38.3466797,14.9563804 38.3466797,14.9199219 C38.3466797,14.7467439 38.4013666,14.5872403 38.5107422,14.4414062 C38.638347,14.2682283 38.8115223,14.1634116 39.0302734,14.1269531 L39.1806641,14.1269531 C39.3447274,14.1269531 39.4951165,14.1679683 39.6318359,14.25 C40.1240259,14.5234389 40.607094,14.6601562 41.0810547,14.6601562 C41.4547545,14.6601562 41.7373037,14.5849617 41.9287109,14.4345703 C42.1201181,14.2841789 42.2158203,14.0813815 42.2158203,13.8261719 C42.2158203,13.725911 42.1861982,13.6279302 42.1269531,13.5322266 C42.067708,13.436523 42.001628,13.3567712 41.9287109,13.2929688 C41.8557939,13.2291663 41.7418628,13.158529 41.5869141,13.0810547 C41.4319654,13.0035803 41.3043625,12.9443361 41.2041016,12.9033203 L40.7529297,12.71875 C40.670898,12.6914061 40.6116538,12.6686199 40.5751953,12.6503906 C40.2835272,12.5410151 40.0283214,12.4293625 39.8095703,12.3154297 C39.5908192,12.2014968 39.3675142,12.0533863 39.1396484,11.8710938 C38.9117827,11.6888012 38.7363287,11.4700534 38.6132812,11.2148438 C38.4902338,10.9596341 38.4287109,10.6770849 38.4287109,10.3671875 C38.4287109,9.65624645 38.6953098,9.07747619 39.2285156,8.63085938 C39.7617214,8.18424256 40.4658159,7.9609375 41.3408203,7.9609375 C42.0426467,7.9609375 42.7171192,8.14322734 43.3642578,8.5078125 C43.555665,8.60807342 43.6650389,8.76301979 43.6923828,8.97265625 C43.7014974,9.01822939 43.7060547,9.06380186 43.7060547,9.109375 C43.7060547,9.27343832 43.655925,9.4192702 43.5556641,9.546875 C43.4280593,9.72005295 43.2548839,9.82486961 43.0361328,9.86132812 C42.981445,9.87044275 42.9222008,9.875 42.8583984,9.875 C42.7125644,9.875 42.5712897,9.84309928 42.4345703,9.77929688 C42.0699852,9.5970043 41.7236345,9.50585938 41.3955078,9.50585938 C41.0582665,9.50585938 40.8030608,9.57421807 40.6298828,9.7109375 C40.4567049,9.84765693 40.3701172,10.0299468 40.3701172,10.2578125 C40.3701172,10.3216149 40.3769531,10.3808591 40.390625,10.4355469 C40.4042969,10.4902346 40.4316404,10.542643 40.4726562,10.5927734 C40.5136721,10.6429039 40.5524087,10.6884764 40.5888672,10.7294922 C40.6253257,10.770508 40.6822913,10.8115232 40.7597656,10.8525391 C40.83724,10.8935549 40.9010414,10.9277342 40.9511719,10.9550781 C41.0013023,10.982422 41.0787755,11.0166014 41.1835938,11.0576172 C41.288412,11.098633 41.3681638,11.1305337 41.4228516,11.1533203 C41.4775393,11.1761069 41.5664056,11.2102862 41.6894531,11.2558594 C41.8125006,11.3014325 41.9013669,11.3333332 41.9560547,11.3515625 C42.2112643,11.4518234 42.4231762,11.5384111 42.5917969,11.6113281 C42.7604175,11.6842452 42.9518218,11.7913404 43.1660156,11.9326172 C43.3802094,12.0738939 43.5511061,12.2197258 43.6787109,12.3701172 C43.8063157,12.5205086 43.9156896,12.7119129 44.0068359,12.9443359 C44.0979822,13.176759 44.1435547,13.4342434 44.1435547,13.7167969 C44.1435547,14.4368526 43.8701199,15.0292946 43.3232422,15.4941406 C42.7763645,15.9589867 42.0107471,16.1914062 41.0263672,16.1914062 Z M46.5087891,16 C46.2809233,16 46.089519,15.9202482 45.9345703,15.7607422 C45.7796216,15.6012362 45.7021484,15.4121105 45.7021484,15.1933594 L45.7021484,5.63671875 C45.7021484,5.40885303 45.7796216,5.21744869 45.9345703,5.0625 C46.089519,4.90755131 46.2809233,4.83007812 46.5087891,4.83007812 L46.9326172,4.83007812 C47.1604829,4.83007812 47.3518872,4.90755131 47.5068359,5.0625 C47.6617846,5.21744869 47.7392578,5.40885303 47.7392578,5.63671875 L47.7392578,7.64648438 L47.6708984,9.01367188 C47.6708984,9.03190113 47.6777343,9.04557287 47.6914062,9.0546875 C47.7050782,9.06380213 47.7210286,9.05924488 47.7392578,9.04101562 C48.5231159,8.32095994 49.3160767,7.9609375 50.1181641,7.9609375 C51.740568,7.9609375 52.5517578,9.01366135 52.5517578,11.1191406 L52.5517578,15.1933594 C52.5517578,15.4121105 52.472006,15.6012362 52.3125,15.7607422 C52.152994,15.9202482 51.9638683,16 51.7451172,16 L51.2939453,16 C51.0751942,16 50.8860685,15.9202482 50.7265625,15.7607422 C50.5670565,15.6012362 50.4873047,15.4121105 50.4873047,15.1933594 L50.4873047,11.3652344 C50.4873047,10.7727835 50.400717,10.3512382 50.2275391,10.1005859 C50.0543611,9.84993364 49.7718119,9.72460938 49.3798828,9.72460938 C49.0882147,9.72460938 48.8307303,9.78841082 48.6074219,9.91601562 C48.3841135,10.0436204 48.1220718,10.2532538 47.8212891,10.5449219 C47.7666013,10.590495 47.7392578,10.645182 47.7392578,10.7089844 L47.7392578,15.1933594 C47.7392578,15.4121105 47.6617846,15.6012362 47.5068359,15.7607422 C47.3518872,15.9202482 47.1604829,16 46.9326172,16 L46.5087891,16 Z" id="hash" fill="#FFFFFF" fill-rule="nonzero"></path>
                            </g>
                            <g id="Group-11" transform="translate(59.000000, 68.000000)">
                                <rect id="Rectangle-Copy-5" fill="#5AA2BF" x="0" y="0" width="75" height="20"></rect>
                                <path d="M33.7802734,16.1914062 C33.1240202,16.1914062 32.5110706,16.0751965 31.9414062,15.8427734 C31.3717419,15.6103504 30.8704449,15.2731142 30.4375,14.8310547 C30.0045551,14.3889952 29.6627617,13.8284539 29.4121094,13.1494141 C29.1614571,12.4703742 29.0361328,11.7070355 29.0361328,10.859375 C29.0361328,10.0299438 29.1637357,9.27116229 29.4189453,8.58300781 C29.6741549,7.89485333 30.0227842,7.32291895 30.4648438,6.8671875 C30.9069033,6.41145605 31.4195934,6.06054811 32.0029297,5.81445312 C32.5862659,5.56835814 33.2060514,5.4453125 33.8623047,5.4453125 C34.7373091,5.4453125 35.5439416,5.71419002 36.2822266,6.25195312 C36.4827484,6.38867256 36.5830078,6.58919139 36.5830078,6.85351562 C36.5830078,7.05403746 36.5146491,7.2363273 36.3779297,7.40039062 L36.3232422,7.46875 C36.1865228,7.63281332 36.0042329,7.72395824 35.7763672,7.7421875 L35.6943359,7.7421875 C35.5029287,7.7421875 35.3297534,7.69205779 35.1748047,7.59179688 C34.773761,7.34570189 34.3499371,7.22265625 33.9033203,7.22265625 C33.101233,7.22265625 32.4427109,7.5439421 31.9277344,8.18652344 C31.4127578,8.82910478 31.1552734,9.69726016 31.1552734,10.7910156 C31.1552734,11.912115 31.3990861,12.7939421 31.8867188,13.4365234 C32.3743514,14.0791048 33.0328735,14.4003906 33.8623047,14.4003906 C34.4091824,14.4003906 34.919594,14.2363298 35.3935547,13.9082031 C35.5485034,13.7988276 35.726236,13.7441406 35.9267578,13.7441406 L35.9814453,13.7441406 C36.2001964,13.7532553 36.377929,13.8398429 36.5146484,14.0039062 L36.5693359,14.0585938 C36.71517,14.2226571 36.7880859,14.4140614 36.7880859,14.6328125 C36.7880859,14.8880221 36.696941,15.0885409 36.5146484,15.234375 C35.7490196,15.872399 34.8375704,16.1914062 33.7802734,16.1914062 Z M38.6748047,16 C38.5107414,16 38.3694667,15.9430344 38.2509766,15.8291016 C38.1324864,15.7151687 38.0732422,15.5716154 38.0732422,15.3984375 C38.0732422,15.0065085 38.2190741,14.6783867 38.5107422,14.4140625 C39.8597073,13.1835876 40.8714159,12.1126348 41.5458984,11.2011719 C42.220381,10.289709 42.5576172,9.47396193 42.5576172,8.75390625 C42.5576172,8.22525777 42.4208998,7.812827 42.1474609,7.51660156 C41.8740221,7.22037612 41.4912134,7.07226562 40.9990234,7.07226562 C40.5524066,7.07226562 40.1103538,7.24544098 39.6728516,7.59179688 C39.490559,7.72851631 39.2945974,7.796875 39.0849609,7.796875 C38.8753245,7.796875 38.6930346,7.72395906 38.5380859,7.578125 C38.3740226,7.41406168 38.2919922,7.22265734 38.2919922,7.00390625 C38.2919922,6.78515516 38.3785799,6.60286531 38.5517578,6.45703125 C39.3356159,5.78254871 40.2425079,5.4453125 41.2724609,5.4453125 C42.2477262,5.4453125 43.0338512,5.73697625 43.6308594,6.3203125 C44.2278676,6.90364875 44.5263672,7.67382334 44.5263672,8.63085938 C44.5263672,10.1985755 43.4052846,12.0898327 41.1630859,14.3046875 C41.1448567,14.3138021 41.1402994,14.3274739 41.1494141,14.3457031 C41.1585287,14.3639324 41.1722004,14.3684896 41.1904297,14.359375 C41.8375683,14.2955726 42.3616516,14.2636719 42.7626953,14.2636719 L44.2119141,14.2636719 C44.4306652,14.2636719 44.6197909,14.3434237 44.7792969,14.5029297 C44.9388029,14.6624357 45.0185547,14.8515614 45.0185547,15.0703125 L45.0185547,15.1933594 C45.0185547,15.4121105 44.9388029,15.6012362 44.7792969,15.7607422 C44.6197909,15.9202482 44.4306652,16 44.2119141,16 L38.6748047,16 Z" id="C2" fill="#FFFFFF" fill-rule="nonzero"></path>
                            </g>
                            <g id="Group-13" transform="translate(68.000000, 116.000000)">
                                <rect id="Rectangle-Copy-7" fill="#5AA2BF" x="0" y="0" width="75" height="20"></rect>
                                <path d="M32.1054688,16 C31.8867177,16 31.6975919,15.9202482 31.5380859,15.7607422 C31.3785799,15.6012362 31.2988281,15.4121105 31.2988281,15.1933594 L31.2988281,6.44335938 C31.2988281,6.22460828 31.3785799,6.03548257 31.5380859,5.87597656 C31.6975919,5.71647056 31.8867177,5.63671875 32.1054688,5.63671875 L32.5703125,5.63671875 C32.7890636,5.63671875 32.9781893,5.71647056 33.1376953,5.87597656 C33.2972013,6.03548257 33.3769531,6.22460828 33.3769531,6.44335938 L33.3769531,15.1933594 C33.3769531,15.4121105 33.2972013,15.6012362 33.1376953,15.7607422 C32.9781893,15.9202482 32.7890636,16 32.5703125,16 L32.1054688,16 Z M36.7128906,16 C36.4941395,16 36.3050138,15.9202482 36.1455078,15.7607422 C35.9860018,15.6012362 35.90625,15.4121105 35.90625,15.1933594 L35.90625,6.44335938 C35.90625,6.22460828 35.9860018,6.03548257 36.1455078,5.87597656 C36.3050138,5.71647056 36.4941395,5.63671875 36.7128906,5.63671875 L39.3105469,5.63671875 C42.0175917,5.63671875 43.3710938,6.72134332 43.3710938,8.890625 C43.3710938,9.6471392 43.1888039,10.2897109 42.8242188,10.8183594 C42.4596336,11.3470079 41.9834014,11.7298165 41.3955078,11.9667969 C40.8076142,12.2037772 40.1308632,12.3222656 39.3652344,12.3222656 L38.0800781,12.3222656 C38.0162757,12.3222656 37.984375,12.3541663 37.984375,12.4179688 L37.984375,15.1933594 C37.984375,15.4121105 37.9046232,15.6012362 37.7451172,15.7607422 C37.5856112,15.9202482 37.3964855,16 37.1777344,16 L36.7128906,16 Z M37.984375,10.5722656 C37.984375,10.6451827 38.0162757,10.6816406 38.0800781,10.6816406 L39.2285156,10.6816406 C40.6321685,10.6816406 41.3339844,10.0846414 41.3339844,8.890625 C41.3339844,8.30728875 41.1562518,7.89257936 40.8007812,7.64648438 C40.4453107,7.40038939 39.8984412,7.27734375 39.1601562,7.27734375 L38.0800781,7.27734375 C38.0162757,7.27734375 37.984375,7.31380172 37.984375,7.38671875 L37.984375,10.5722656 Z" id="IP" fill="#FFFFFF" fill-rule="nonzero"></path>
                            </g>
                            <g id="Group-12" transform="translate(39.000000, 92.000000)">
                                <rect id="Rectangle-Copy-6" fill="#F6AC19" x="0" y="0" width="75" height="20"></rect>
                                <path d="M14.9892578,16.1914062 C14.0048779,16.1914062 13.2233102,15.8268266 12.6445312,15.0976562 C12.0657523,14.3684859 11.7763672,13.3658918 11.7763672,12.0898438 C11.7763672,10.8593688 12.1022103,9.86361058 12.7539062,9.10253906 C13.4056022,8.34146755 14.1780554,7.9609375 15.0712891,7.9609375 C15.4632181,7.9609375 15.8072902,8.02701757 16.1035156,8.15917969 C16.3997411,8.29134181 16.6936834,8.48958201 16.9853516,8.75390625 C16.9944662,8.76302088 17.0081379,8.76302088 17.0263672,8.75390625 C17.0445964,8.74479162 17.0537109,8.73111988 17.0537109,8.71289062 L16.9716797,7.59179688 L16.9716797,5.63671875 C16.9716797,5.40885303 17.0514315,5.21744869 17.2109375,5.0625 C17.3704435,4.90755131 17.5595692,4.83007812 17.7783203,4.83007812 L18.2294922,4.83007812 C18.4482433,4.83007812 18.637369,4.90755131 18.796875,5.0625 C18.956381,5.21744869 19.0361328,5.40885303 19.0361328,5.63671875 L19.0361328,15.1933594 C19.0361328,15.4121105 18.956381,15.6012362 18.796875,15.7607422 C18.637369,15.9202482 18.4482433,16 18.2294922,16 L18.1064453,16 C17.8876942,16 17.6962899,15.9316413 17.5322266,15.7949219 C17.3681632,15.6582024 17.2633466,15.4850271 17.2177734,15.2753906 L17.2041016,15.2070312 C17.1949869,15.1979166 17.1835938,15.1933594 17.1699219,15.1933594 C17.1562499,15.1933594 17.1448568,15.1979166 17.1357422,15.2070312 C16.452145,15.8632845 15.7366574,16.1914062 14.9892578,16.1914062 Z M15.5224609,14.4960938 C16.0511094,14.4960938 16.5113913,14.2545597 16.9033203,13.7714844 C16.9488935,13.7167966 16.9716797,13.6575524 16.9716797,13.59375 L16.9716797,10.3535156 C16.9716797,10.2805986 16.9443362,10.2213544 16.8896484,10.1757812 C16.4794901,9.82942535 16.0237655,9.65625 15.5224609,9.65625 C15.0576149,9.65625 14.6702489,9.87044057 14.3603516,10.2988281 C14.0504542,10.7272157 13.8955078,11.3151004 13.8955078,12.0625 C13.8955078,12.8645873 14.0345038,13.4707011 14.3125,13.8808594 C14.5904962,14.2910177 14.9938125,14.4960938 15.5224609,14.4960938 Z M25.9267578,15.9179688 C25.480141,16.1002613 25.008466,16.1914062 24.5117188,16.1914062 C24.0149715,16.1914062 23.5410179,16.0979827 23.0898438,15.9111328 C22.6386696,15.7242829 22.2399106,15.4599626 21.8935547,15.1181641 C21.5471988,14.7763655 21.2692068,14.3434271 21.0595703,13.8193359 C20.8499338,13.2952448 20.7451172,12.7187531 20.7451172,12.0898438 C20.7451172,11.4609375 20.8499338,10.8821641 21.0595703,10.3535156 C21.2692068,9.82486715 21.5471988,9.38737152 21.8935547,9.04101562 C22.2399106,8.69465973 22.6386696,8.42806083 23.0898438,8.24121094 C23.5410179,8.05436104 24.0149715,7.9609375 24.5117188,7.9609375 C25.008466,7.9609375 25.4824196,8.05436104 25.9335938,8.24121094 C26.3847679,8.42806083 26.7835269,8.69465973 27.1298828,9.04101562 C27.4762387,9.38737152 27.7542307,9.82486715 27.9638672,10.3535156 C28.1735037,10.8821641 28.2783203,11.4609344 28.2783203,12.0898438 C28.2783203,12.7187531 28.1735037,13.2952448 27.9638672,13.8193359 C27.7542307,14.3434271 27.4762387,14.7763655 27.1298828,15.1181641 C26.7835269,15.4599626 26.3824893,15.7265615 25.9267578,15.9179688 Z M23.2880859,13.8671875 C23.5797541,14.2955751 23.9876276,14.5097656 24.5117188,14.5097656 C25.0358099,14.5097656 25.4436834,14.2932964 25.7353516,13.8603516 C26.0270197,13.4274067 26.1728516,12.8372433 26.1728516,12.0898438 C26.1728516,11.3424442 26.0270197,10.7477236 25.7353516,10.3056641 C25.4436834,9.86360456 25.0358099,9.64257812 24.5117188,9.64257812 C23.9876276,9.64257812 23.5797541,9.86360456 23.2880859,10.3056641 C22.9964178,10.7477236 22.8505859,11.3424442 22.8505859,12.0898438 C22.8505859,12.8372433 22.9964178,13.4296853 23.2880859,13.8671875 Z M30.8076172,16 C30.5797515,16 30.3883471,15.9202482 30.2333984,15.7607422 C30.0784497,15.6012362 30.0009766,15.4121105 30.0009766,15.1933594 L30.0009766,8.97265625 C30.0009766,8.74479053 30.0784497,8.55338619 30.2333984,8.3984375 C30.3883471,8.24348881 30.5797515,8.16601562 30.8076172,8.16601562 L30.8759766,8.16601562 C31.1038423,8.16601562 31.3043611,8.24121019 31.4775391,8.39160156 C31.650717,8.54199294 31.7555337,8.73111865 31.7919922,8.95898438 L31.8193359,9.17773438 C31.8193359,9.19596363 31.8284504,9.20507812 31.8466797,9.20507812 C31.8649089,9.20507812 31.8831379,9.20052088 31.9013672,9.19140625 C32.275067,8.79947721 32.6487612,8.49642034 33.0224609,8.28222656 C33.3961607,8.06803278 33.8154274,7.9609375 34.2802734,7.9609375 C35.2919972,7.9609375 35.9983704,8.38931863 36.3994141,9.24609375 C36.4267579,9.30078152 36.4632159,9.30533877 36.5087891,9.25976562 C36.9098327,8.84960732 37.2994773,8.5306001 37.6777344,8.30273438 C38.0559915,8.07486865 38.4729795,7.9609375 38.9287109,7.9609375 C39.7490275,7.9609375 40.3596985,8.23437227 40.7607422,8.78125 C41.1617859,9.32812773 41.3623047,10.1074168 41.3623047,11.1191406 L41.3623047,15.1933594 C41.3623047,15.4121105 41.2848315,15.6012362 41.1298828,15.7607422 C40.9749341,15.9202482 40.7835298,16 40.5556641,16 L40.1181641,16 C39.8902983,16 39.698894,15.9202482 39.5439453,15.7607422 C39.3889966,15.6012362 39.3115234,15.4121105 39.3115234,15.1933594 L39.3115234,11.3652344 C39.3115234,10.7727835 39.2249358,10.3512382 39.0517578,10.1005859 C38.8785799,9.84993364 38.6005879,9.72460938 38.2177734,9.72460938 C37.7893859,9.72460938 37.310875,9.99348689 36.7822266,10.53125 C36.7275388,10.5859378 36.7001953,10.645182 36.7001953,10.7089844 L36.7001953,15.1933594 C36.7001953,15.4121105 36.6227221,15.6012362 36.4677734,15.7607422 C36.3128247,15.9202482 36.1214204,16 35.8935547,16 L35.4560547,16 C35.228189,16 35.0367846,15.9202482 34.8818359,15.7607422 C34.7268872,15.6012362 34.6494141,15.4121105 34.6494141,15.1933594 L34.6494141,11.3652344 C34.6494141,10.7727835 34.5628264,10.3512382 34.3896484,10.1005859 C34.2164705,9.84993364 33.9384785,9.72460938 33.5556641,9.72460938 C33.1272765,9.72460938 32.6487657,9.99348689 32.1201172,10.53125 C32.0654294,10.5859378 32.0380859,10.645182 32.0380859,10.7089844 L32.0380859,15.1933594 C32.0380859,15.4121105 31.9606128,15.6012362 31.8056641,15.7607422 C31.6507154,15.9202482 31.459311,16 31.2314453,16 L30.8076172,16 Z M45.4228516,16.1914062 C44.7301398,16.1914062 44.1695985,15.9726584 43.7412109,15.5351562 C43.3128234,15.0976541 43.0986328,14.54167 43.0986328,13.8671875 C43.0986328,13.0377563 43.4495408,12.3929059 44.1513672,11.9326172 C44.8531936,11.4723284 45.9742762,11.1555998 47.5146484,10.9824219 C47.5784508,10.9733072 47.6103516,10.9368493 47.6103516,10.8730469 C47.5465492,10.034501 47.1044963,9.61523438 46.2841797,9.61523438 C45.8375629,9.61523438 45.3453803,9.74283727 44.8076172,9.99804688 C44.689127,10.0527346 44.5706386,10.0800781 44.4521484,10.0800781 C44.3701168,10.0800781 44.2880863,10.0664064 44.2060547,10.0390625 C44.0055329,9.98437473 43.8551437,9.86588633 43.7548828,9.68359375 C43.6819658,9.55598895 43.6455078,9.42838605 43.6455078,9.30078125 C43.6455078,9.22786422 43.6591796,9.15494828 43.6865234,9.08203125 C43.7412112,8.87239479 43.8642569,8.71744842 44.0556641,8.6171875 C44.9397831,8.17968531 45.8056598,7.9609375 46.6533203,7.9609375 C47.6468149,7.9609375 48.3964818,8.25487987 48.9023438,8.84277344 C49.4082057,9.430667 49.6611328,10.2897079 49.6611328,11.4199219 L49.6611328,15.1933594 C49.6611328,15.4121105 49.5836596,15.6012362 49.4287109,15.7607422 C49.2737622,15.9202482 49.0823579,16 48.8544922,16 L48.7451172,16 C48.5263661,16 48.3326831,15.9293627 48.1640625,15.7880859 C47.9954419,15.6468092 47.8929038,15.466798 47.8564453,15.2480469 L47.8427734,15.1796875 C47.8336588,15.1705729 47.8222657,15.1660156 47.8085938,15.1660156 C47.7949218,15.1660156 47.7835287,15.1705729 47.7744141,15.1796875 C46.9723267,15.85417 46.1884804,16.1914062 45.4228516,16.1914062 Z M46.0927734,14.5917969 C46.5758488,14.5917969 47.0589169,14.3548201 47.5419922,13.8808594 C47.5875653,13.8352862 47.6103516,13.7805993 47.6103516,13.7167969 L47.6103516,12.3359375 C47.6103516,12.2721351 47.5830081,12.2402344 47.5283203,12.2402344 C47.5192057,12.2402344 47.5100912,12.2447916 47.5009766,12.2539062 C46.6350868,12.3723964 46.0130227,12.5524076 45.6347656,12.7939453 C45.2565085,13.035483 45.0673828,13.3385398 45.0673828,13.703125 C45.0673828,14.0039078 45.1608064,14.2272128 45.3476562,14.3730469 C45.5345061,14.5188809 45.7828761,14.5917969 46.0927734,14.5917969 Z M52.5732422,16 C52.3453765,16 52.1539721,15.9202482 51.9990234,15.7607422 C51.8440747,15.6012362 51.7666016,15.4121105 51.7666016,15.1933594 L51.7666016,8.97265625 C51.7666016,8.74479053 51.8440747,8.55338619 51.9990234,8.3984375 C52.1539721,8.24348881 52.3453765,8.16601562 52.5732422,8.16601562 L52.9970703,8.16601562 C53.224936,8.16601562 53.4163404,8.24348881 53.5712891,8.3984375 C53.7262378,8.55338619 53.8037109,8.74479053 53.8037109,8.97265625 L53.8037109,15.1933594 C53.8037109,15.4121105 53.7262378,15.6012362 53.5712891,15.7607422 C53.4163404,15.9202482 53.224936,16 52.9970703,16 L52.5732422,16 Z M52.8056641,6.89453125 C52.4501935,6.89453125 52.1562512,6.78971459 51.9238281,6.58007812 C51.6914051,6.37044166 51.5751953,6.10156414 51.5751953,5.7734375 C51.5751953,5.44531086 51.6891265,5.17871196 51.9169922,4.97363281 C52.1448579,4.76855366 52.4410789,4.66601562 52.8056641,4.66601562 C53.15202,4.66601562 53.4414051,4.76855366 53.6738281,4.97363281 C53.9062512,5.17871196 54.0224609,5.44531086 54.0224609,5.7734375 C54.0224609,6.10156414 53.9062512,6.37044166 53.6738281,6.58007812 C53.4414051,6.78971459 53.15202,6.89453125 52.8056641,6.89453125 Z M56.8251953,16 C56.5973296,16 56.4059253,15.9202482 56.2509766,15.7607422 C56.0960279,15.6012362 56.0185547,15.4121105 56.0185547,15.1933594 L56.0185547,8.97265625 C56.0185547,8.74479053 56.0960279,8.55338619 56.2509766,8.3984375 C56.4059253,8.24348881 56.5973296,8.16601562 56.8251953,8.16601562 L56.8935547,8.16601562 C57.1214204,8.16601562 57.3219392,8.24121019 57.4951172,8.39160156 C57.6682951,8.54199294 57.7731118,8.73111865 57.8095703,8.95898438 L57.8369141,9.1640625 C57.8369141,9.18229176 57.8460286,9.19140625 57.8642578,9.19140625 C57.8824871,9.19140625 57.9007161,9.186849 57.9189453,9.17773438 C58.7483765,8.3665324 59.5869098,7.9609375 60.4345703,7.9609375 C62.0569743,7.9609375 62.8681641,9.01366135 62.8681641,11.1191406 L62.8681641,15.1933594 C62.8681641,15.4121105 62.7884123,15.6012362 62.6289062,15.7607422 C62.4694002,15.9202482 62.2802745,16 62.0615234,16 L61.6103516,16 C61.3916005,16 61.2024748,15.9202482 61.0429688,15.7607422 C60.8834627,15.6012362 60.8037109,15.4121105 60.8037109,15.1933594 L60.8037109,11.3652344 C60.8037109,10.7727835 60.7171233,10.3512382 60.5439453,10.1005859 C60.3707674,9.84993364 60.0882181,9.72460938 59.6962891,9.72460938 C59.4046209,9.72460938 59.1471365,9.78841082 58.9238281,9.91601562 C58.7005197,10.0436204 58.4384781,10.2532538 58.1376953,10.5449219 C58.0830075,10.590495 58.0556641,10.645182 58.0556641,10.7089844 L58.0556641,15.1933594 C58.0556641,15.4121105 57.9781909,15.6012362 57.8232422,15.7607422 C57.6682935,15.9202482 57.4768892,16 57.2490234,16 L56.8251953,16 Z" id="domain" fill="#FFFFFF" fill-rule="nonzero"></path>
                            </g>
                        </g>
                    </g>
                </g>
            </g>
        </g>
    </g>
</svg>