<?xml version="1.0" encoding="UTF-8"?>
<svg width="40px" height="40px" viewBox="0 0 40 40" version="1.1" xmlns="http://www.w3.org/2000/svg" xmlns:xlink="http://www.w3.org/1999/xlink">
    <!-- Generator: Sketch 54.1 (76490) - https://sketchapp.com -->
    <title>icon/menu_close</title>
    <desc>Created with Sketch.</desc>
    <g id="icon/menu_close" stroke="none" stroke-width="1" fill="none" fill-rule="evenodd">
        <g id="icon/menu" transform="translate(11.000000, 11.000000)" fill="#4C433F">
            <path d="M9.19238816,7.77817459 L16.263456,0.707106781 C16.6539803,0.316582489 17.2871452,0.316582489 17.6776695,0.707106781 C18.0681938,1.09763107 18.0681938,1.73079605 17.6776695,2.12132034 L10.6066017,9.19238816 L17.6776695,16.263456 C18.0681938,16.6539803 18.0681938,17.2871452 17.6776695,17.6776695 C17.2871452,18.0681938 16.6539803,18.0681938 16.263456,17.6776695 L9.19238816,10.6066017 L2.12132034,17.6776695 C1.73079605,18.0681938 1.09763107,18.0681938 0.707106781,17.6776695 C0.316582489,17.2871452 0.316582489,16.6539803 0.707106781,16.263456 L7.77817459,9.19238816 L0.707106781,2.12132034 C0.316582489,1.73079605 0.316582489,1.09763107 0.707106781,0.707106781 C1.09763107,0.316582489 1.73079605,0.316582489 2.12132034,0.707106781 L9.19238816,7.77817459 Z" id="Combined-Shape"></path>
        </g>
    </g>
</svg>