<?xml version="1.0" encoding="UTF-8"?>
<svg width="120px" height="120px" viewBox="0 0 120 120" version="1.1" xmlns="http://www.w3.org/2000/svg" xmlns:xlink="http://www.w3.org/1999/xlink">
    <!-- Generator: Sketch 54.1 (76490) - https://sketchapp.com -->
    <title>icon/orchestration</title>
    <desc>Created with Sketch.</desc>
    <defs>
        <polygon id="path-1" points="0 0.0452261307 119.95466 0.0452261307 119.95466 119.698372 0 119.698372"></polygon>
        <path d="M62.7642317,6.70673367 L56.555063,6.70673367 L56.555063,8.24502513 L56.555063,25.9368844 L51.5425693,25.9368844 L38.8186398,13.2449246 L26.0950126,25.9368844 L21.0825189,25.9368844 L21.0825189,8.24502513 L21.0825189,6.70673367 L14.8733501,6.70673367 C14.4879597,3.03256281 11.3730982,0.168542714 7.58780856,0.168542714 L7.58780856,0.168542714 C3.54166247,0.168542714 0.261763224,3.44020101 0.261763224,7.4761809 L0.261763224,7.4761809 C0.261763224,11.5118593 3.54166247,14.7835176 7.58780856,14.7835176 L7.58780856,14.7835176 C11.3730982,14.7835176 14.4879597,11.919196 14.8733501,8.24502513 L14.8733501,8.24502513 L19.5400504,8.24502513 L19.5400504,25.9368844 L14.8733501,25.9368844 C14.4879597,22.2627136 11.3730982,19.3986935 7.58780856,19.3986935 L7.58780856,19.3986935 C3.54166247,19.3986935 0.261763224,22.6700503 0.261763224,26.7057286 L0.261763224,26.7057286 C0.261763224,30.7417085 3.54166247,34.0133668 7.58780856,34.0133668 L7.58780856,34.0133668 C11.3730982,34.0133668 14.4879597,31.1493467 14.8733501,27.4751759 L14.8733501,27.4751759 L19.5400504,27.4751759 L19.5400504,45.1667337 L14.8733501,45.1667337 C14.4879597,41.4925628 11.3730982,38.6285427 7.58780856,38.6285427 L7.58780856,38.6285427 C3.54166247,38.6285427 0.261763224,41.900201 0.261763224,45.9361809 L0.261763224,45.9361809 C0.261763224,49.9715578 3.54166247,53.2435176 7.58780856,53.2435176 L7.58780856,53.2435176 C11.3730982,53.2435176 14.4879597,50.3794975 14.8733501,46.7053266 L14.8733501,46.7053266 L21.0825189,46.7053266 L21.0825189,45.1667337 L21.0825189,27.4751759 L26.0950126,27.4751759 L38.8186398,40.1671357 L51.5425693,27.4751759 L56.555063,27.4751759 L56.555063,45.1667337 L56.555063,46.7053266 L62.7642317,46.7053266 C63.1493199,50.3794975 66.2644836,53.2435176 70.0497733,53.2435176 L70.0497733,53.2435176 C74.0956171,53.2435176 77.3755164,49.9715578 77.3755164,45.9361809 L77.3755164,45.9361809 C77.3755164,41.900201 74.0956171,38.6285427 70.0497733,38.6285427 L70.0497733,38.6285427 C66.2644836,38.6285427 63.1493199,41.4925628 62.7642317,45.1667337 L62.7642317,45.1667337 L58.0972292,45.1667337 L58.0972292,27.4751759 L62.7642317,27.4751759 C63.1493199,31.1493467 66.2644836,34.0133668 70.0497733,34.0133668 L70.0497733,34.0133668 C74.0956171,34.0133668 77.3755164,30.7417085 77.3755164,26.7057286 L77.3755164,26.7057286 C77.3755164,22.6700503 74.0956171,19.3986935 70.0497733,19.3986935 L70.0497733,19.3986935 C66.2644836,19.3986935 63.1493199,22.2627136 62.7642317,25.9368844 L62.7642317,25.9368844 L58.0972292,25.9368844 L58.0972292,8.24502513 L62.7642317,8.24502513 C63.1493199,11.919196 66.2644836,14.7835176 70.0497733,14.7835176 L70.0497733,14.7835176 C74.0956171,14.7835176 77.3755164,11.5118593 77.3755164,7.4761809 L77.3755164,7.4761809 C77.3755164,3.44020101 74.0956171,0.168542714 70.0497733,0.168542714 L70.0497733,0.168542714 C66.2644836,0.168542714 63.1493199,3.03256281 62.7642317,6.70673367 L62.7642317,6.70673367 Z M65.8083627,7.4761809 C65.8083627,5.13949749 67.7075063,3.24542714 70.0497733,3.24542714 L70.0497733,3.24542714 C72.3920403,3.24542714 74.2908816,5.13949749 74.2908816,7.4761809 L74.2908816,7.4761809 C74.2908816,9.81256281 72.3920403,11.7066332 70.0497733,11.7066332 L70.0497733,11.7066332 C67.7075063,11.7066332 65.8083627,9.81256281 65.8083627,7.4761809 L65.8083627,7.4761809 Z M3.34609572,7.4761809 C3.34609572,5.13949749 5.24493703,3.24542714 7.58780856,3.24542714 L7.58780856,3.24542714 C9.93007557,3.24542714 11.8289169,5.13949749 11.8289169,7.4761809 L11.8289169,7.4761809 C11.8289169,9.81256281 9.93007557,11.7066332 7.58780856,11.7066332 L7.58780856,11.7066332 C5.24493703,11.7066332 3.34609572,9.81256281 3.34609572,7.4761809 L3.34609572,7.4761809 Z M29.6424181,26.7057286 L38.8186398,17.5522613 L47.995466,26.7057286 L38.8186398,35.8594975 L29.6424181,26.7057286 Z M65.8083627,26.7057286 C65.8083627,24.3693467 67.7075063,22.4752764 70.0497733,22.4752764 L70.0497733,22.4752764 C72.3920403,22.4752764 74.2908816,24.3693467 74.2908816,26.7057286 L74.2908816,26.7057286 C74.2908816,29.0424121 72.3920403,30.9364824 70.0497733,30.9364824 L70.0497733,30.9364824 C67.7075063,30.9364824 65.8083627,29.0424121 65.8083627,26.7057286 L65.8083627,26.7057286 Z M3.34609572,26.7057286 C3.34609572,24.3693467 5.24493703,22.4752764 7.58780856,22.4752764 L7.58780856,22.4752764 C9.93007557,22.4752764 11.8289169,24.3693467 11.8289169,26.7057286 L11.8289169,26.7057286 C11.8289169,29.0424121 9.93007557,30.9364824 7.58780856,30.9364824 L7.58780856,30.9364824 C5.24493703,30.9364824 3.34609572,29.0424121 3.34609572,26.7057286 L3.34609572,26.7057286 Z M65.8083627,45.9361809 C65.8083627,43.5994975 67.7075063,41.7054271 70.0497733,41.7054271 L70.0497733,41.7054271 C72.3920403,41.7054271 74.2908816,43.5994975 74.2908816,45.9361809 L74.2908816,45.9361809 C74.2908816,48.2725628 72.3920403,50.1666332 70.0497733,50.1666332 L70.0497733,50.1666332 C67.7075063,50.1666332 65.8083627,48.2725628 65.8083627,45.9361809 L65.8083627,45.9361809 Z M3.34609572,45.9361809 C3.34609572,43.5994975 5.24493703,41.7054271 7.58780856,41.7054271 L7.58780856,41.7054271 C9.93007557,41.7054271 11.8289169,43.5994975 11.8289169,45.9361809 L11.8289169,45.9361809 C11.8289169,48.2725628 9.93007557,50.1666332 7.58780856,50.1666332 L7.58780856,50.1666332 C5.24493703,50.1666332 3.34609572,48.2725628 3.34609572,45.9361809 L3.34609572,45.9361809 Z" id="path-3"></path>
    </defs>
    <g id="mockup" stroke="none" stroke-width="1" fill="none" fill-rule="evenodd">
        <g id="sonar-1440" transform="translate(-1126.000000, -1027.000000)">
            <g id="block_An-Elegant-Threat-Hunting-Solution" transform="translate(130.207909, 921.000000)">
                <g id="content" transform="translate(0.000000, 106.000000)">
                    <g id="Group-4" transform="translate(975.792091, 0.000000)">
                        <g id="icon/orchestration" transform="translate(20.000000, 0.000000)">
                            <g>
                                <g id="Group-3" transform="translate(0.000000, 0.256281)">
                                    <mask id="mask-2" fill="white">
                                        <use xlink:href="#path-1"></use>
                                    </mask>
                                    <g id="Clip-2"></g>
                                    <path d="M119.954841,59.8717387 C119.954841,92.9130452 93.1020453,119.698372 59.9772091,119.698372 C26.8526751,119.698372 -0.000120906801,92.9130452 -0.000120906801,59.8717387 C-0.000120906801,26.8304322 26.8526751,0.0451055276 59.9772091,0.0451055276 C93.1020453,0.0451055276 119.954841,26.8304322 119.954841,59.8717387" id="Fill-1" fill="#C71532" mask="url(#mask-2)"></path>
                                </g>
                                <g id="Group-6" transform="translate(21.158690, 33.422111)">
                                    <mask id="mask-4" fill="white">
                                        <use xlink:href="#path-3"></use>
                                    </mask>
                                    <g id="Clip-5"></g>
                                    <polygon id="Fill-4" fill="#FEFEFE" mask="url(#mask-4)" points="-1.66609572 55.1665327 79.3033753 55.1665327 79.3033753 -1.75447236 -1.66609572 -1.75447236"></polygon>
                                </g>
                            </g>
                        </g>
                    </g>
                </g>
            </g>
        </g>
    </g>
</svg>