<?xml version="1.0" encoding="UTF-8"?>
<svg width="200px" height="200px" viewBox="0 0 200 200" version="1.1" xmlns="http://www.w3.org/2000/svg" xmlns:xlink="http://www.w3.org/1999/xlink">
    <!-- Generator: Sketch 52.6 (67491) - http://www.bohemiancoding.com/sketch -->
    <title>sonar_logo_circle</title>
    <desc>Created with Sketch.</desc>
    <defs>
        <polygon id="path-1" points="41.0002474 40.0004948 159.764124 40.0004948 159.764124 158.764371 41.0002474 158.764371"></polygon>
    </defs>
    <g id="mockup" stroke="none" stroke-width="1" fill="none" fill-rule="evenodd">
        <g id="index-1440" transform="translate(-319.000000, -1439.000000)">
            <g id="TeamT5-Product" transform="translate(140.000000, 1163.000000)">
                <g id="sonar" transform="translate(0.000000, 158.000000)">
                    <g id="sonar_logo_circle" transform="translate(179.000000, 118.000000)">
                        <circle id="logo_bg" fill="#C81432" cx="100" cy="100" r="100"></circle>
                        <mask id="mask-2" fill="white">
                            <use xlink:href="#path-1"></use>
                        </mask>
                        <g id="Clip-2"></g>
                        <path d="M130.411381,129.13699 C122.393649,137.157196 111.728495,141.573691 100.384165,141.573691 C89.0410722,141.573691 78.3746804,137.157196 70.3544742,129.13699 C68.2600412,127.04132 66.3684948,124.706887 64.7367423,122.198021 L63.9944742,121.057402 L65.3392165,120.853278 C67.188701,120.572454 68.8563299,119.613691 70.0377732,118.15266 L70.7899381,117.223588 L71.4505567,118.219464 C72.7334433,120.154309 74.2204536,121.971629 75.8695258,123.621938 C82.4163299,130.167505 91.123134,133.773691 100.384165,133.773691 C109.645196,133.773691 118.350763,130.167505 124.89633,123.621938 C131.443134,117.076371 135.04932,108.370804 135.04932,99.1097732 C135.04932,91.0932784 132.272,83.3378144 127.209732,77.1658557 L123.613443,80.7633814 C127.733031,85.9642062 129.993237,92.4479175 129.993237,99.1122474 C129.993237,107.027299 126.912825,114.462351 121.319835,120.049155 C115.726845,125.640907 108.290557,128.72132 100.382928,128.72132 C100.241897,128.72132 100.104577,128.71266 99.9660206,128.702763 L99.7148866,128.689155 L98.1623093,128.654515 L98.9936495,127.343175 C99.7544742,126.141938 100.157773,124.766268 100.157773,123.364619 C100.157773,122.898227 100.109526,122.419464 100.016742,121.941938 L99.817567,120.918845 L100.857979,120.896577 C106.514062,120.776577 111.822515,118.516371 115.804784,114.534103 C119.924371,110.418227 122.193237,104.941526 122.193237,99.1122474 C122.193237,94.4569897 120.761897,90.0578144 118.046433,86.3303918 L114.40932,89.966268 C116.198186,92.692866 117.138392,95.8376082 117.138392,99.1097732 C117.138392,103.580701 115.396536,107.789361 112.233237,110.957608 C109.067464,114.123381 104.860041,115.865237 100.382928,115.865237 C95.9058144,115.865237 91.6996289,114.123381 88.5350928,110.958845 C85.3705567,107.795546 83.628701,103.586887 83.628701,99.1097732 C83.628701,94.6376082 85.3693196,90.4289485 88.5326186,87.2619381 C91.3074639,84.4883299 94.9816907,82.7687423 98.8835464,82.4186392 C99.0010722,82.4075052 99.1284948,82.4013196 99.2546804,82.4013196 C101.23901,82.4013196 102.935093,83.9625567 103.115711,85.9567835 C103.307464,88.0969897 101.721485,89.9947216 99.5800412,90.1889485 C97.4979794,90.3745155 95.5334433,91.2936907 94.0489072,92.7757526 C92.3590103,94.4681237 91.4274639,96.7171959 91.4274639,99.1097732 C91.4274639,101.503588 92.3590103,103.751423 94.0489072,105.443794 C95.6571546,107.052041 97.9643711,107.974928 100.382928,107.974928 C102.800247,107.974928 105.108701,107.052041 106.715711,105.443794 C108.406845,103.750186 109.339629,101.502351 109.339629,99.1097732 C109.339629,97.9431753 109.107052,96.7877113 108.665402,95.7114227 L105.103753,99.2730722 C104.38499,99.9905979 103.427464,100.386474 102.405608,100.386474 C101.383753,100.386474 100.426227,99.9905979 99.708701,99.2730722 L99.588701,99.1530722 C98.8699381,98.4355464 98.475299,97.4767835 98.475299,96.4561649 C98.475299,95.4330722 98.8699381,94.4755464 99.588701,93.7567835 L131.793237,61.5522474 C132.510763,60.8347216 133.469526,60.4388454 134.491381,60.4388454 C135.512,60.4388454 136.469526,60.8347216 137.189526,61.5522474 L137.308289,61.6722474 C138.025814,62.3897732 138.422928,63.3485361 138.422928,64.3691546 C138.422928,65.3922474 138.025814,66.3497732 137.308289,67.0685361 L132.749526,71.6285361 C139.267876,79.2875052 142.84932,89.0124536 142.84932,99.1097732 C142.84932,110.454103 138.431588,121.118021 130.411381,129.13699 Z M58.0959175,113.467711 C58.0959175,110.089155 60.8460206,107.339052 64.2245773,107.339052 C67.6043711,107.339052 70.3544742,110.089155 70.3544742,113.467711 C70.3544742,116.847505 67.6043711,119.597608 64.2245773,119.597608 C60.8460206,119.597608 58.0959175,116.847505 58.0959175,113.467711 Z M70.3544742,69.0825567 C76.6315876,62.8029691 84.5627216,58.7081237 93.2917938,57.2396701 C93.5082887,57.206268 93.7136495,57.1901856 93.9165361,57.1901856 C95.8402474,57.1901856 97.4670515,58.5559588 97.7849897,60.4388454 C98.1400412,62.5604948 96.7049897,64.5757526 94.5845773,64.9332784 C87.468701,66.1270928 80.9985979,69.4697732 75.8695258,74.5976082 C69.3214845,81.1419381 65.715299,89.8475052 65.715299,99.1097732 C65.715299,101.065649 65.889732,103.064825 66.2299381,105.052866 L66.4328247,106.234309 L65.246433,106.069773 C64.9111753,106.022763 64.5709691,105.989361 64.2245773,105.989361 C62.7041649,105.989361 61.2344742,106.453278 59.9738557,107.330392 L58.854268,108.109773 L58.6117938,106.766268 C58.1491134,104.216577 57.915299,101.640907 57.915299,99.1097732 C57.915299,87.7629691 62.3330309,77.0990515 70.3544742,69.0825567 Z M74.4802474,83.7769897 C74.4802474,80.5642062 77.0930309,77.9514227 80.3070515,77.9514227 C83.5210722,77.9514227 86.1350928,80.5642062 86.1350928,83.7769897 C86.1350928,86.9910103 83.5210722,89.6050309 80.3070515,89.6050309 C77.0930309,89.6050309 74.4802474,86.9910103 74.4802474,83.7769897 Z M92.6781856,117.539052 C95.8922062,117.539052 98.5062268,120.151835 98.5062268,123.364619 C98.5062268,126.578639 95.8922062,129.19266 92.6781856,129.19266 C89.4641649,129.19266 86.8513814,126.578639 86.8513814,123.364619 C86.8513814,120.151835 89.4641649,117.539052 92.6781856,117.539052 Z M87.5194227,117.974515 C86.1313814,119.303175 85.3136495,121.087093 85.2196289,122.998433 L85.1416907,124.552247 L83.8526186,123.68132 C82.2654021,122.608742 80.7821031,121.386474 79.4447835,120.049155 C73.8517938,114.457402 70.7726186,107.021113 70.7726186,99.1097732 C70.7726186,95.4541031 71.4493196,91.8553402 72.7816907,88.4124536 L73.3569485,86.9291546 L74.3033402,88.2070928 C75.4538557,89.7596701 77.1227216,90.7988454 79.0018969,91.132866 L79.9965361,91.3097732 L79.6810722,92.2710103 C78.9449897,94.5064742 78.5726186,96.8075052 78.5726186,99.1097732 C78.5726186,104.937814 80.8414845,110.415753 84.9598351,114.534103 C85.6501443,115.224412 86.4604536,115.912247 87.4365361,116.635959 L88.2715876,117.255753 L87.5194227,117.974515 Z M98.912,73.1452371 C99.3524124,75.249567 97.9977732,77.3204948 95.8946804,77.7609072 C93.1977732,78.326268 90.6530309,79.395134 88.3322062,80.9402887 L87.4909691,81.4994639 L87.0555052,80.5864742 C86.2266392,78.849567 84.7854021,77.5085361 82.9977732,76.8120412 L81.5181856,76.2355464 L82.7936495,75.2903918 C86.2377732,72.740701 90.1074639,71.0037938 94.2950928,70.1279175 C94.5610722,70.0734845 94.8295258,70.046268 95.0967423,70.046268 C96.9313814,70.046268 98.5346804,71.3489485 98.912,73.1452371 Z M100.382928,40.0004948 C67.5858144,40.0004948 41.0002474,66.5860619 41.0002474,99.3819381 C41.0002474,132.177814 67.5858144,158.764619 100.382928,158.764619 C133.177567,158.764619 159.764371,132.177814 159.764371,99.3819381 C159.764371,66.5860619 133.177567,40.0004948 100.382928,40.0004948 Z" id="Fill-1" fill="#FEFEFE" mask="url(#mask-2)"></path>
                    </g>
                </g>
            </g>
        </g>
    </g>
</svg>