<?xml version="1.0" encoding="UTF-8"?>
<svg width="80px" height="80px" viewBox="0 0 80 80" version="1.1" xmlns="http://www.w3.org/2000/svg" xmlns:xlink="http://www.w3.org/1999/xlink">
    <!-- Generator: Sketch 54.1 (76490) - https://sketchapp.com -->
    <title>technical</title>
    <desc>Created with Sketch.</desc>
    <defs>
        <polygon id="path-1" points="0 0 19.046875 0 19.046875 18.6875 0 18.6875"></polygon>
    </defs>
    <g id="Symbols" stroke="none" stroke-width="1" fill="none" fill-rule="evenodd">
        <g id="resource/nor" transform="translate(-20.000000, -33.000000)">
            <g id="resource">
                <g id="technical" transform="translate(20.000000, 33.000000)">
                    <circle id="Oval" stroke="#D83751" stroke-width="3" fill="#FFFFFF" cx="40" cy="40" r="38.5"></circle>
                    <g transform="translate(17.000000, 17.000000)">
                        <g id="Flash" stroke-width="1" transform="translate(3.234375, 0.000000)" fill="#D83751">
                            <path d="M29.8266841,1.43889584 L2.15625,1.43889584 C1.75929534,1.43889584 1.4375,1.7606811 1.4375,2.15762333 L1.4375,43.8438175 C1.4375,44.2407598 1.75929534,44.562545 2.15625,44.562545 L37.375,44.562545 C37.7719547,44.562545 38.09375,44.2407598 38.09375,43.8438175 L38.09375,9.3448982 L31.9829341,9.3448982 C30.7920701,9.3448982 29.8266841,8.37954243 29.8266841,7.18871574 L29.8266841,1.43889584 Z M30.5052165,0.0014408722 C30.5353048,-0.000467430936 30.5655873,-0.000493107635 30.5958779,0.0014408722 L30.90625,0.0014408722 L39.53125,8.62617071 L39.53125,43.8438175 C39.53125,45.0346442 38.565864,46 37.375,46 L2.15625,46 C0.965386008,46 0,45.0346442 0,43.8438175 L0,2.15762333 C0,0.966796641 0.965386008,0.0014408722 2.15625,0.0014408722 L30.5052165,0.0014408722 Z M36.7164681,7.90744322 L31.2641841,2.45533 L31.2641841,7.18871574 C31.2641841,7.58565797 31.5859794,7.90744322 31.9829341,7.90744322 L36.7164681,7.90744322 Z" id="Shape" fill-rule="nonzero" transform="translate(19.765625, 23.000000) scale(1, -1) translate(-19.765625, -23.000000) "></path>
                        </g>
                        <rect id="Rectangle-Copy-4" fill="#D83751" x="8.984375" y="38.453125" width="19.046875" height="1.4375" rx="0.71875"></rect>
                        <rect id="Rectangle-Copy-7" fill="#D83751" x="8.984375" y="34.859375" width="21.203125" height="1.4375" rx="0.71875"></rect>
                        <rect id="Rectangle" fill="#D83751" x="8.984375" y="3.59375" width="28.390625" height="5.390625"></rect>
                        <g id="Group-3" stroke-width="1" transform="translate(23.179688, 20.484375) scale(-1, 1) translate(-23.179688, -20.484375) translate(13.656250, 11.140625)">
                            <mask id="mask-2" fill="white">
                                <use xlink:href="#path-1"></use>
                            </mask>
                            <g id="Clip-2"></g>
                            <path d="M4.66754535,0 L3.58874061,1.08569809 L5.53277169,3.04215116 L6.15635824,4.9319248 L4.90216979,6.19412728 L3.02595375,5.56655612 L1.0803637,3.60931859 C1.0803637,3.61088752 1.07958422,3.61167198 1.07958422,3.61324091 L1.07880474,3.61167198 L0,4.69737008 C0,4.69737008 0.743626964,7.23667985 1.60417641,8.10194358 C2.49356673,8.99701694 3.65811462,9.44337692 4.8226625,9.44337692 C5.51562306,9.44337692 6.20858362,9.28569967 6.84386242,8.97034516 L15.835201,18.0191367 C16.2748295,18.4615744 16.8399549,18.6875 17.3785777,18.6875 C17.8260011,18.6875 18.2539374,18.5306072 18.572746,18.2097615 C19.2727219,17.5053128 19.1877582,16.2650754 18.3833316,15.4555086 L9.18776838,6.20118745 C9.6640326,4.63069064 9.28754222,2.85466428 8.05284085,1.6120734 C7.19073244,0.745240744 4.66754535,0 4.66754535,0 M4.88424168,0.890366573 C5.80247288,1.19787644 7.0535434,1.71562264 7.50174623,2.1666894 C8.49168989,3.16295861 8.85181112,4.62127708 8.44258244,5.97212398 L8.3053934,6.42319075 L8.63667376,6.75580346 L17.8314575,16.0101246 C18.08401,16.2642909 18.2422451,16.5984725 18.2640707,16.9263785 C18.2851167,17.218199 18.1978146,17.4770721 18.0216514,17.6551455 C17.8174268,17.860675 17.5586384,17.9030361 17.3785777,17.9030361 C17.0246924,17.9030361 16.6637917,17.7437899 16.3862956,17.4645207 L7.39495704,8.41572916 L6.99975906,8.01800594 L6.49933085,8.26668101 C5.98253349,8.52320072 5.40181852,8.65891298 4.8226625,8.65891298 C3.81479074,8.65891298 2.86693918,8.26432762 2.15527102,7.54732758 C1.70862716,7.09782974 1.19338877,5.83954958 0.885492905,4.91545105 L1.0803637,4.71933507 L2.47407965,6.12117213 L2.60503283,6.25217761 L2.77963706,6.3110124 L4.65663258,6.93779909 L5.11340973,7.09076956 L5.45404389,6.74874328 L6.70745286,5.4865408 L7.04808702,5.14373006 L6.89608779,4.68481866 L6.27328072,2.79504502 L6.21481948,2.6193251 L6.08386631,2.48753516 L4.69092984,1.08569809 L4.88424168,0.890366573" id="Fill-1" fill="#D93751" mask="url(#mask-2)"></path>
                        </g>
                        <rect id="Rectangle-Copy-8" fill="#D83751" x="8.984375" y="31.265625" width="28.390625" height="1.4375" rx="0.71875"></rect>
                    </g>
                </g>
            </g>
        </g>
    </g>
</svg>