<?xml version="1.0" encoding="UTF-8"?>
<svg width="120px" height="120px" viewBox="0 0 120 120" version="1.1" xmlns="http://www.w3.org/2000/svg" xmlns:xlink="http://www.w3.org/1999/xlink">
    <!-- Generator: Sketch 54.1 (76490) - https://sketchapp.com -->
    <title>icon/hunting</title>
    <desc>Created with Sketch.</desc>
    <defs>
        <polygon id="path-1" points="0 0.0452261307 119.95466 0.0452261307 119.95466 119.698372 0 119.698372"></polygon>
        <path d="M0.0117884131,29.2863317 C0.0117884131,45.3937688 13.10267,58.4514573 29.2506801,58.4514573 L29.2506801,58.4514573 C45.3986902,58.4514573 58.4892695,45.3937688 58.4892695,29.2863317 L58.4892695,29.2863317 C58.4892695,13.178593 45.3986902,0.12120603 29.2506801,0.12120603 L29.2506801,0.12120603 C13.10267,0.12120603 0.0117884131,13.178593 0.0117884131,29.2863317 L0.0117884131,29.2863317 Z M3.81309824,29.2863317 C3.81309824,15.2725628 15.2016121,3.91266332 29.2506801,3.91266332 L29.2506801,3.91266332 C43.2994458,3.91266332 54.6879597,15.2725628 54.6879597,29.2863317 L54.6879597,29.2863317 C54.6879597,43.299799 43.2994458,54.66 29.2506801,54.66 L29.2506801,54.66 C15.2016121,54.66 3.81309824,43.299799 3.81309824,29.2863317 L3.81309824,29.2863317 Z M28.1540554,8.50613065 L28.1540554,11.4669347 C19.181864,12.0922613 12.0129975,19.2431156 11.3867003,28.1924623 L11.3867003,28.1924623 L8.41813602,28.1924623 C7.81239295,28.1924623 7.3218136,28.6824121 7.3218136,29.2863317 L7.3218136,29.2863317 C7.3218136,29.8902513 7.81239295,30.3798995 8.41813602,30.3798995 L8.41813602,30.3798995 L11.3646348,30.3798995 C11.8192443,39.498995 19.0606549,46.8361809 28.1540554,47.4699497 L28.1540554,47.4699497 L28.1540554,50.0662312 C28.1540554,50.6707538 28.644937,51.1601005 29.2506801,51.1601005 L29.2506801,51.1601005 C29.8561209,51.1601005 30.3470025,50.6707538 30.3470025,50.0662312 L30.3470025,50.0662312 L30.3470025,47.4919598 C39.8539043,47.0201005 47.4287154,39.2285427 47.5239295,29.6508543 L47.5239295,29.6508543 L50.0832242,29.6508543 C50.688665,29.6508543 51.1795466,29.161206 51.1795466,28.5572864 L51.1795466,28.5572864 C51.1795466,27.9530653 50.688665,27.4634171 50.0832242,27.4634171 L50.0832242,27.4634171 L47.4142065,27.4634171 C46.4469521,18.7374874 39.2430227,11.8866332 30.3470025,11.4452261 L30.3470025,11.4452261 L30.3470025,8.50613065 C30.3470025,7.90190955 29.8561209,7.41226131 29.2506801,7.41226131 L29.2506801,7.41226131 C28.644937,7.41226131 28.1540554,7.90190955 28.1540554,8.50613065 L28.1540554,8.50613065 Z M30.3470025,14.3662312 L30.3470025,12.9027136 C38.4365743,13.339598 44.9891184,19.5425126 45.9454912,27.4634171 L45.9454912,27.4634171 L44.4689169,27.4634171 C43.5246348,20.3508543 37.626801,14.7973869 30.3470025,14.3662312 L30.3470025,14.3662312 Z M28.1540554,12.9262312 L28.1540554,14.3921608 C20.7974811,15.0051256 14.933199,20.8546734 14.3189924,28.1924623 L14.3189924,28.1924623 L12.8493703,28.1924623 C13.4702267,20.0472362 19.9883123,13.5458291 28.1540554,12.9262312 L28.1540554,12.9262312 Z M30.3470025,20.901407 L30.3470025,15.5321608 C36.9817632,15.958794 42.3581864,20.9948744 43.2909824,27.4634171 L43.2909824,27.4634171 L37.6567254,27.4634171 C37.0509824,27.4634171 36.5601008,27.9530653 36.5601008,28.5572864 L36.5601008,28.5572864 C36.5601008,29.161206 37.0509824,29.6508543 37.6567254,29.6508543 L37.6567254,29.6508543 L43.4327456,29.6508543 C43.3390428,36.9747739 37.5935516,42.9394975 30.3470025,43.4047236 L30.3470025,43.4047236 L30.3470025,37.6712563 C30.3470025,37.0673367 29.8561209,36.5773869 29.2506801,36.5773869 L29.2506801,36.5773869 C28.644937,36.5773869 28.1540554,37.0673367 28.1540554,37.6712563 L28.1540554,37.6712563 L28.1540554,43.3766834 C21.3213098,42.759196 15.9049874,37.2449246 15.461864,30.3798995 L15.461864,30.3798995 L20.8443325,30.3798995 C21.4497733,30.3798995 21.9409572,29.8902513 21.9409572,29.2863317 L21.9409572,29.2863317 C21.9409572,28.6824121 21.4497733,28.1924623 20.8443325,28.1924623 L20.8443325,28.1924623 L15.4899748,28.1924623 C16.098136,21.4977889 21.4425189,16.1668342 28.1540554,15.5605025 L28.1540554,15.5605025 L28.1540554,20.901407 C28.1540554,21.5053266 28.644937,21.9949749 29.2506801,21.9949749 L29.2506801,21.9949749 C29.8561209,21.9949749 30.3470025,21.5053266 30.3470025,20.901407 L30.3470025,20.901407 Z M30.3470025,44.5709548 C38.2382872,44.1033166 44.5054912,37.6175879 44.5997985,29.6508543 L44.5997985,29.6508543 L46.0648866,29.6508543 C45.9699748,38.4244221 39.0474559,45.5647236 30.3470025,46.0344724 L30.3470025,46.0344724 L30.3470025,44.5709548 Z M12.8254912,30.3798995 L14.2926952,30.3798995 C14.7400504,37.8877387 20.676272,43.921809 28.1540554,44.5450251 L28.1540554,44.5450251 L28.1540554,46.0109548 C19.866801,45.3820101 13.2770781,38.6954774 12.8254912,30.3798995 L12.8254912,30.3798995 Z M24.8647859,29.2863317 C24.8647859,31.7026131 26.8283123,33.661206 29.2506801,33.661206 L29.2506801,33.661206 C31.6724433,33.661206 33.636272,31.7026131 33.636272,29.2863317 L33.636272,29.2863317 C33.636272,26.8700503 31.6724433,24.9114573 29.2506801,24.9114573 L29.2506801,24.9114573 C26.8283123,24.9114573 24.8647859,26.8700503 24.8647859,29.2863317 L24.8647859,29.2863317 Z" id="path-3"></path>
        <path d="M0.244534005,6.9159799 L14.8032242,19.101407 C16.6588413,20.6544724 19.4248866,20.4129648 20.9821662,18.5623116 L20.9821662,18.5623116 C22.5391436,16.7113568 22.29733,13.9519598 20.4417128,12.3988945 L20.4417128,12.3988945 L5.8827204,0.213467337 L0.244534005,6.9159799 Z" id="path-5"></path>
    </defs>
    <g id="mockup" stroke="none" stroke-width="1" fill="none" fill-rule="evenodd">
        <g id="sonar-1440" transform="translate(-644.000000, -1027.000000)">
            <g id="block_An-Elegant-Threat-Hunting-Solution" transform="translate(130.207909, 921.000000)">
                <g id="content" transform="translate(0.000000, 106.000000)">
                    <g id="Group-2" transform="translate(485.792091, 0.000000)">
                        <g id="icon/hunting" transform="translate(28.000000, 0.000000)">
                            <g>
                                <g id="Group-3" transform="translate(0.000000, 0.256281)">
                                    <mask id="mask-2" fill="white">
                                        <use xlink:href="#path-1"></use>
                                    </mask>
                                    <g id="Clip-2"></g>
                                    <path d="M119.954872,59.8717387 C119.954872,92.9130452 93.1020756,119.698372 59.9772393,119.698372 C26.8527053,119.698372 -9.06801008e-05,92.9130452 -9.06801008e-05,59.8717387 C-9.06801008e-05,26.8304322 26.8527053,0.0451055276 59.9772393,0.0451055276 C93.1020756,0.0451055276 119.954872,26.8304322 119.954872,59.8717387" id="Fill-1" fill="#C71532" mask="url(#mask-2)"></path>
                                </g>
                                <g id="Group-6" transform="translate(26.901763, 26.185930)">
                                    <mask id="mask-4" fill="white">
                                        <use xlink:href="#path-3"></use>
                                    </mask>
                                    <g id="Clip-5"></g>
                                    <polygon id="Fill-4" fill="#FEFEFE" mask="url(#mask-4)" points="-1.81541562 60.2743719 60.3164736 60.2743719 60.3164736 -1.70170854 -1.81541562 -1.70170854"></polygon>
                                </g>
                                <g id="Group-9" transform="translate(73.450882, 70.206030)">
                                    <mask id="mask-6" fill="white">
                                        <use xlink:href="#path-5"></use>
                                    </mask>
                                    <g id="Clip-8"></g>
                                    <polygon id="Fill-7" fill="#FEFEFE" mask="url(#mask-6)" points="5.65765239 -2.35480402 26.3756373 14.986402 18.3882317 24.4814774 -2.33005542 7.14057286"></polygon>
                                </g>
                            </g>
                        </g>
                    </g>
                </g>
            </g>
        </g>
    </g>
</svg>