<?xml version="1.0" encoding="UTF-8"?>
<svg width="536px" height="117px" viewBox="0 0 536 117" version="1.1" xmlns="http://www.w3.org/2000/svg" xmlns:xlink="http://www.w3.org/1999/xlink">
    <!-- Generator: Sketch 54.1 (76490) - https://sketchapp.com -->
    <title>vision_logo_reverse</title>
    <desc>Created with Sketch.</desc>
    <defs>
        <polygon id="path-1" points="0.000363636364 1.08727273 116.488848 1.08727273 116.488848 117.575636 0.000363636364 117.575636"></polygon>
        <polygon id="path-3" points="0 117.700364 535.835152 117.700364 535.835152 1.21187879 0 1.21187879"></polygon>
    </defs>
    <g id="mockup" stroke="none" stroke-width="1" fill="none" fill-rule="evenodd">
        <g id="vision-1440" transform="translate(-452.000000, -203.000000)">
            <g id="hero" transform="translate(80.000000, 96.000000)">
                <g id="vision_logo_reverse" transform="translate(372.000000, 106.000000)">
                    <path d="M58.2443636,69.7762424 C55.2964848,69.7762424 52.8989091,67.3786667 52.8989091,64.432 C52.8989091,61.4853333 55.2964848,59.0877576 58.2443636,59.0877576 C61.1922424,59.0877576 63.5886061,61.4853333 63.5886061,64.432 C63.5886061,67.3786667 61.1922424,69.7762424 58.2443636,69.7762424 M58.2443636,54.7386667 C52.8734545,54.7386667 48.5025455,59.1083636 48.5025455,64.4792727 C48.5025455,69.8513939 52.8734545,74.2210909 58.2443636,74.2210909 C63.6152727,74.2210909 67.9849697,69.8513939 67.9849697,64.4792727 C67.9849697,59.1083636 63.6152727,54.7386667 58.2443636,54.7386667" id="Fill-1" fill="#FEFEFE"></path>
                    <path d="M44.822303,55.9978182 C40.5083636,58.5687273 36.9798788,61.7553939 34.7810909,63.9772121 L34.3289697,64.4317576 L34.7810909,64.8875152 C36.9798788,67.1081212 40.5083636,70.296 44.822303,72.8669091 L45.7059394,71.976 C44.3362424,69.7153939 43.6126061,67.1069091 43.6126061,64.4317576 C43.6126061,61.7566061 44.3362424,59.1481212 45.7059394,56.8887273 L44.822303,55.9978182 Z" id="Fill-3" fill="#FEFEFE"></path>
                    <path d="M71.6659394,55.9978182 L70.782303,56.8887273 C72.1507879,59.1493333 72.8744242,61.7578182 72.8744242,64.4317576 C72.8744242,67.1069091 72.1507879,69.7141818 70.7810909,71.976 L71.6659394,72.8669091 C75.9774545,70.2947879 79.5071515,67.1081212 81.7083636,64.8875152 L82.1592727,64.4317576 L81.7083636,63.9772121 C79.5071515,61.7553939 75.9774545,58.5687273 71.6659394,55.9978182" id="Fill-5" fill="#FEFEFE"></path>
                    <path d="M86.2545455,67.6716364 C81.0678788,73.1310303 70.529697,82.2873939 58.2448485,82.2873939 C45.9575758,82.2873939 35.4193939,73.1310303 30.2327273,67.6716364 C28.5333333,65.8849697 28.5333333,62.978303 30.2327273,61.1916364 C35.4193939,55.7334545 45.9575758,46.5770909 58.2448485,46.5770909 C70.529697,46.5770909 81.0678788,55.7334545 86.2545455,61.1916364 C87.9539394,62.978303 87.9539394,65.8849697 86.2545455,67.6716364 M83.6666667,40.9843636 L32.8206061,40.9843636 C28.9587879,40.9843636 25.8169697,44.1273939 25.8169697,47.9892121 L25.8169697,80.5710303 C25.8169697,84.4328485 28.9587879,87.5746667 32.8206061,87.5746667 L83.6666667,87.5746667 C87.5272727,87.5746667 90.670303,84.4328485 90.670303,80.5710303 L90.670303,47.9892121 C90.670303,44.1273939 87.5272727,40.9843636 83.6666667,40.9843636" id="Fill-7" fill="#FEFEFE"></path>
                    <g id="Group-11" transform="translate(0.000000, 0.124606)">
                        <mask id="mask-2" fill="white">
                            <use xlink:href="#path-1"></use>
                        </mask>
                        <g id="Clip-10"></g>
                        <path d="M96.6464242,80.4459394 C96.6464242,87.602303 90.8246061,93.4253333 83.6670303,93.4253333 L32.8209697,93.4253333 C25.6633939,93.4253333 19.8415758,87.602303 19.8415758,80.4459394 L19.8415758,47.8641212 C19.8415758,40.7077576 25.6633939,34.8847273 32.8209697,34.8847273 L50.1458182,34.8847273 L46.9385455,29.3307879 C46.1858182,28.0277576 46.634303,26.3538182 47.9373333,25.602303 C48.3494545,25.3647273 48.8185455,25.2374545 49.2949091,25.2374545 C50.2718788,25.2374545 51.1809697,25.7598788 51.6658182,26.6010909 L56.4488485,34.8847273 L60.0379394,34.8847273 L64.8209697,26.6010909 C65.3070303,25.7598788 66.2161212,25.2374545 67.1918788,25.2374545 C67.6694545,25.2374545 68.1385455,25.3647273 68.5506667,25.6010909 C69.1797576,25.9659394 69.6318788,26.5550303 69.8197576,27.2604848 C70.0088485,27.9671515 69.9130909,28.7029091 69.5494545,29.3307879 L66.3433939,34.8847273 L83.6670303,34.8847273 C90.8246061,34.8847273 96.6464242,40.7077576 96.6464242,47.8641212 L96.6464242,80.4459394 Z M58.244,1.08715152 C26.0767273,1.08715152 0.000363636364,27.1647273 0.000363636364,59.332 C0.000363636364,91.4992727 26.0767273,117.575636 58.244,117.575636 C90.4112727,117.575636 116.488848,91.4992727 116.488848,59.332 C116.488848,27.1647273 90.4112727,1.08715152 58.244,1.08715152 L58.244,1.08715152 Z" id="Fill-9" fill="#FEFEFE" mask="url(#mask-2)"></path>
                    </g>
                    <polygon id="Fill-12" fill="#FEFEFE" points="133.830303 33.1367273 133.830303 42.8603636 147.876364 42.8603636 147.876364 86.0821818 157.601212 86.0821818 157.601212 33.1367273"></polygon>
                    <path d="M179.764242,46.1031515 L178.657576,46.1031515 C176.153333,46.1031515 173.783636,46.6728485 171.647879,47.6631515 L171.647879,33.1370909 L161.92303,33.1370909 L161.92303,86.0813333 L171.647879,86.0813333 L171.647879,62.8389091 C171.647879,58.9722424 174.792121,55.8267879 178.657576,55.8267879 L179.764242,55.8267879 C183.629697,55.8267879 186.775152,58.9722424 186.775152,62.8389091 L186.775152,86.0813333 L196.498788,86.0813333 L196.498788,62.8389091 C196.498788,53.6098182 188.990909,46.1031515 179.764242,46.1031515" id="Fill-14" fill="#FEFEFE"></path>
                    <path d="M284.019152,70.4391515 C284.019152,74.3033939 280.874909,77.4488485 277.008242,77.4488485 L275.902788,77.4488485 C272.036121,77.4488485 268.893091,74.3033939 268.893091,70.4391515 L268.893091,61.7579394 C268.893091,57.8912727 272.036121,54.7470303 275.902788,54.7470303 L277.008242,54.7470303 C280.874909,54.7470303 284.019152,57.8912727 284.019152,61.7579394 L284.019152,65.0233939 L284.019152,70.4391515 Z M286.180364,45.0221818 L286.180364,47.7761212 C283.542788,46.0403636 280.393697,45.0221818 277.008242,45.0221818 L275.902788,45.0221818 C267.036121,45.0221818 259.776727,51.9603636 259.221576,60.6900606 L259.221576,71.5070303 C259.776727,80.2367273 267.036121,87.1749091 275.902788,87.1749091 L277.008242,87.1749091 C280.393697,87.1749091 283.542788,86.1567273 286.180364,84.4209697 L286.180364,86.0815758 L293.742788,86.0815758 L293.742788,45.0221818 L286.180364,45.0221818 Z" id="Fill-16" fill="#FEFEFE"></path>
                    <path d="M221.293697,45.530303 C217.577333,45.530303 213.269455,46.7509091 209.464606,48.8418182 L209.464606,45.0224242 L199.74097,45.0224242 L199.74097,86.0818182 L209.464606,86.0818182 L209.464606,62.2660606 C209.464606,59.4478788 216.571273,55.8272727 221.350667,55.8272727 L221.293697,45.530303 Z" id="Fill-18" fill="#FEFEFE"></path>
                    <path d="M232.155394,62.3105455 L232.155394,61.7578182 C232.155394,57.8911515 235.299636,54.7469091 239.166303,54.7469091 L240.271758,54.7469091 C244.138424,54.7469091 247.281455,57.8911515 247.281455,61.7578182 L247.281455,62.3105455 L232.155394,62.3105455 Z M240.271758,45.0220606 L239.166303,45.0220606 C229.938424,45.0220606 222.431758,52.5299394 222.431758,61.7578182 L222.485091,71.5069091 C223.040242,80.2366061 230.298424,87.1747879 239.166303,87.1747879 L240.271758,87.1747879 C248.31903,87.1747879 257.006303,82.0147879 257.006303,73.6802424 L247.281455,73.6802424 C247.281455,75.5129697 243.67903,77.4487273 240.271758,77.4487273 L239.166303,77.4487273 C235.299636,77.4487273 232.155394,74.3044848 232.155394,70.4390303 L232.155394,69.8729697 L257.006303,69.8729697 L257.006303,61.7578182 C257.006303,52.5299394 249.499636,45.0220606 240.271758,45.0220606 L240.271758,45.0220606 Z" id="Fill-20" fill="#FEFEFE"></path>
                    <path d="M306.709697,53.277697 L314.273333,53.277697 L314.273333,45.8958788 L306.709697,45.8958788 L306.709697,38.5395152 L296.984848,38.5395152 L296.984848,76.0025455 C296.984848,79.3092121 297.880606,81.7698182 299.725455,83.5249697 C302.052727,85.7407273 305.081818,86.0813333 308.166667,86.0813333 C308.853939,86.0813333 313.423636,85.9964848 314.273333,85.9964848 L314.273333,76.5055758 L307.789697,76.5055758 C307.193333,76.5055758 306.709697,76.0328485 306.709697,75.4510303 L306.709697,53.277697 Z" id="Fill-22" fill="#FEFEFE"></path>
                    <path d="M398.284121,60.7385455 L385.013818,60.7385455 C382.834424,60.7385455 381.059879,59.1591515 380.85503,57.1530909 C381.059879,55.1482424 382.834424,53.5676364 385.013818,53.5676364 L406.016242,53.5676364 L406.016242,45.0221818 L385.013818,45.0221818 C378.539879,45.0221818 373.273212,50.1494545 373.273212,56.4500606 L373.273212,57.8573333 C373.273212,64.1579394 378.539879,69.2852121 385.013818,69.2852121 L398.284121,69.2852121 C400.600485,69.2852121 402.484121,71.0621818 402.484121,73.2464242 L402.484121,73.573697 C402.484121,75.7579394 400.600485,77.5349091 398.284121,77.5349091 L374.703515,77.5349091 L374.703515,86.0815758 L398.284121,86.0815758 C404.758061,86.0815758 410.025939,80.9555152 410.025939,74.653697 L410.025939,73.2464242 C410.025939,66.9458182 404.758061,60.7385455 398.284121,60.7385455" id="Fill-24" fill="#FEFEFE"></path>
                    <polygon id="Fill-26" fill="#FEFEFE" points="525.990061 45.0224242 525.990061 70.0781818 506.661576 45.0236364 506.661576 45.0224242 496.816727 45.0224242 496.816727 86.0818182 506.661576 86.0818182 506.661576 61.0369697 525.990061 86.0818182 535.834909 86.0818182 535.834909 45.0224242"></polygon>
                    <polygon id="Fill-28" fill="#FEFEFE" points="352.090303 33.1367273 339.664848 71.1912727 327.239394 33.1367273 317.514545 33.1367273 334.801818 86.0821818 344.526667 86.0821818 361.815152 33.1367273"></polygon>
                    <mask id="mask-4" fill="white">
                        <use xlink:href="#path-3"></use>
                    </mask>
                    <g id="Clip-31"></g>
                    <polygon id="Fill-30" fill="#FEFEFE" mask="url(#mask-4)" points="360.734545 86.0821818 370.458182 86.0821818 370.458182 45.0227879 360.734545 45.0227879"></polygon>
                    <polygon id="Fill-32" fill="#FEFEFE" mask="url(#mask-4)" points="412.597576 86.0821818 422.321212 86.0821818 422.321212 45.0227879 412.597576 45.0227879"></polygon>
                    <path d="M459.059394,92.0241212 C443.866667,92.0241212 431.506667,79.6641212 431.506667,64.4713939 C431.506667,49.2786667 443.866667,36.9186667 459.059394,36.9186667 C474.252121,36.9186667 486.612121,49.2786667 486.612121,64.4713939 C486.612121,79.6641212 474.252121,92.0241212 459.059394,92.0241212 M459.059394,31.5162424 C440.888485,31.5162424 426.104242,46.2992727 426.104242,64.4713939 C426.104242,82.6435152 440.888485,97.4265455 459.059394,97.4265455 C477.230303,97.4265455 492.014545,82.6435152 492.014545,64.4713939 C492.014545,46.2992727 477.230303,31.5162424 459.059394,31.5162424" id="Fill-33" fill="#FEFEFE" mask="url(#mask-4)"></path>
                    <path d="M459.059394,81.3778182 C449.73697,81.3778182 442.153939,73.7935758 442.153939,64.4711515 C442.153939,55.1487273 449.73697,47.5644848 459.059394,47.5644848 C466.054545,47.5644848 472.071515,51.836 474.638788,57.9087273 C472.278788,58.9366061 470.626667,61.2881212 470.626667,64.0275152 C470.626667,66.8735758 472.413333,69.2978182 474.923636,70.2566061 C472.553939,76.7341818 466.347879,81.3778182 459.059394,81.3778182 M459.059394,44.005697 C447.774545,44.005697 438.592727,53.186303 438.592727,64.4711515 C438.592727,75.756 447.774545,84.9378182 459.059394,84.9378182 C468.220606,84.9378182 475.993939,78.885697 478.596364,70.5717576 C481.660606,69.9693333 483.974545,67.2687273 483.974545,64.0275152 C483.974545,60.6638788 481.484848,57.8905455 478.250909,57.4275152 C475.369697,49.6081212 467.866667,44.005697 459.059394,44.005697" id="Fill-34" fill="#FEFEFE" mask="url(#mask-4)"></path>
                </g>
            </g>
        </g>
    </g>
</svg>